<?xml version="1.0" encoding="UTF-8" standalone="no"?>
<svg
   xmlns:dc="http://purl.org/dc/elements/1.1/"
   xmlns:cc="http://creativecommons.org/ns#"
   xmlns:rdf="http://www.w3.org/1999/02/22-rdf-syntax-ns#"
   xmlns:svg="http://www.w3.org/2000/svg"
   xmlns="http://www.w3.org/2000/svg"
   xmlns:sodipodi="http://sodipodi.sourceforge.net/DTD/sodipodi-0.dtd"
   xmlns:inkscape="http://www.inkscape.org/namespaces/inkscape"
   enable-background="new 0 0 64 64"
   version="1.1"
   viewBox="0 0 64 64"
   xml:space="preserve"
   id="svg4596"
   sodipodi:docname="github.svg"
   inkscape:version="0.92.0 r"><metadata
     id="metadata4602"><rdf:RDF><cc:Work
         rdf:about=""><dc:format>image/svg+xml</dc:format><dc:type
           rdf:resource="http://purl.org/dc/dcmitype/StillImage" /><dc:title></dc:title></cc:Work></rdf:RDF></metadata><defs
     id="defs4600" /><sodipodi:namedview
     pagecolor="#ffffff"
     bordercolor="#666666"
     borderopacity="1"
     objecttolerance="10"
     gridtolerance="10"
     guidetolerance="10"
     inkscape:pageopacity="0"
     inkscape:pageshadow="2"
     inkscape:window-width="1435"
     inkscape:window-height="1176"
     id="namedview4598"
     showgrid="false"
     inkscape:zoom="10.84967"
     inkscape:cx="34.904784"
     inkscape:cy="36.468812"
     inkscape:window-x="500"
     inkscape:window-y="20"
     inkscape:window-maximized="0"
     inkscape:current-layer="g4589" /><g
     id="Layer_3"><g
       id="g4591"
       style="fill:#4776ef;fill-opacity:0.94117647"><g
         id="g4589"
         style="fill:#4776ef;fill-opacity:0.94117647"><path
           style="fill:#4776ef;fill-opacity:1"
           d="M 32 0 C 14.327 0 0 14.327 0 32 C 0 49.673 14.327 64 32 64 C 49.673 64 64 49.673 64 32 C 64 14.327 49.673 0 32 0 z M 22.886719 13.835938 C 22.886719 13.835938 25.266453 13.83575 27.689453 17.46875 C 28.889453 16.26875 32.532141 16.257812 33.744141 16.257812 C 34.952141 16.257812 38.598828 16.26875 39.798828 17.46875 C 42.221828 13.83575 44.607422 13.835938 44.607422 13.835938 C 45.903422 17.086938 44.889531 19.293625 44.644531 19.890625 C 45.854531 21.100625 47.068359 22.313141 47.068359 28.369141 C 47.068359 34.425141 42.670906 37.461594 37.378906 38.058594 C 38.060906 38.649594 38.589844 40.733406 38.589844 41.691406 L 38.591797 50.166016 L 33.751953 50.166016 L 28.908203 50.166016 C 28.908203 50.166016 28.922203 47.292266 28.908203 45.322266 C 22.279203 46.750266 20.429688 41.689453 20.429688 41.689453 C 19.219687 39.266453 18.005859 38.056641 18.005859 38.056641 C 15.582859 36.618641 18.005859 36.845703 18.005859 36.845703 C 20.428859 36.845703 21.638672 39.269531 21.638672 39.269531 C 23.764672 42.878531 27.546297 42.296406 28.904297 41.691406 C 28.904297 40.481406 29.435234 38.649594 30.115234 38.058594 C 24.825234 37.463594 20.421875 34.425141 20.421875 28.369141 C 20.421875 22.313141 21.638609 21.103625 22.849609 19.890625 C 22.605609 19.293625 21.590719 17.086938 22.886719 13.835938 z "
           id="path4587" /></g></g><g
       id="Outline_Filled" /></g></svg>