<?xml version="1.0" encoding="UTF-8" standalone="no"?>
<svg
   xmlns:dc="http://purl.org/dc/elements/1.1/"
   xmlns:cc="http://creativecommons.org/ns#"
   xmlns:rdf="http://www.w3.org/1999/02/22-rdf-syntax-ns#"
   xmlns:svg="http://www.w3.org/2000/svg"
   xmlns="http://www.w3.org/2000/svg"
   xmlns:sodipodi="http://sodipodi.sourceforge.net/DTD/sodipodi-0.dtd"
   xmlns:inkscape="http://www.inkscape.org/namespaces/inkscape"
   enable-background="new 0 0 32 32"
   version="1.1"
   viewBox="0 0 32 32"
   xml:space="preserve"
   id="svg5356"
   sodipodi:docname="reddit.svg"
   inkscape:version="0.92.0 r"><metadata
     id="metadata5362"><rdf:RDF><cc:Work
         rdf:about=""><dc:format>image/svg+xml</dc:format><dc:type
           rdf:resource="http://purl.org/dc/dcmitype/StillImage" /><dc:title></dc:title></cc:Work></rdf:RDF></metadata><defs
     id="defs5360" /><sodipodi:namedview
     pagecolor="#ffffff"
     bordercolor="#666666"
     borderopacity="1"
     objecttolerance="10"
     gridtolerance="10"
     guidetolerance="10"
     inkscape:pageopacity="0"
     inkscape:pageshadow="2"
     inkscape:window-width="1012"
     inkscape:window-height="880"
     id="namedview5358"
     showgrid="false"
     inkscape:zoom="7.375"
     inkscape:cx="16"
     inkscape:cy="16"
     inkscape:window-x="500"
     inkscape:window-y="20"
     inkscape:window-maximized="0"
     inkscape:current-layer="g5351" /><g
     id="Flat_copy"><g
       id="g5351"><path
         d="M 16.005859 -0.015625 C 7.1688594 -0.015625 0.005859375 7.147375 0.005859375 15.984375 C 0.005859375 24.820375 7.1688594 31.984375 16.005859 31.984375 C 24.842859 31.984375 32.005859 24.820375 32.005859 15.984375 C 32.005859 7.148375 24.842859 -0.015625 16.005859 -0.015625 z M 23.246094 6.9453125 C 24.468094 6.9453125 25.464844 7.9401094 25.464844 9.1621094 C 25.464844 10.384109 24.468094 11.378906 23.246094 11.378906 C 22.096094 11.378906 21.146062 10.496047 21.039062 9.3730469 L 18.052734 8.6601562 L 16.882812 11.984375 C 18.932813 12.114375 20.878062 12.691859 22.414062 13.630859 C 22.874063 13.282859 23.434672 13.09375 24.013672 13.09375 C 25.478672 13.09375 26.669922 14.284047 26.669922 15.748047 C 26.671922 16.612047 26.259547 17.40625 25.560547 17.90625 C 25.586547 18.10425 25.599609 18.298281 25.599609 18.488281 C 25.599609 22.090281 21.290188 25.021484 15.992188 25.021484 C 10.694188 25.021484 6.3867188 22.090281 6.3867188 18.488281 C 6.3867188 18.291281 6.4016875 18.087859 6.4296875 17.880859 C 5.7506875 17.379859 5.3496094 16.595 5.3496094 15.75 C 5.3496094 14.285 6.5418594 13.09375 8.0058594 13.09375 C 8.5768594 13.09375 9.1328438 13.279141 9.5898438 13.619141 C 11.236844 12.618141 13.335969 12.034844 15.542969 11.964844 L 17.234375 7.15625 L 21.289062 8.125 C 21.671063 7.402 22.417094 6.9453125 23.246094 6.9453125 z M 23.248047 8.2207031 C 22.728047 8.2207031 22.304688 8.6430625 22.304688 9.1640625 C 22.304688 9.6850625 22.728047 10.107422 23.248047 10.107422 C 23.768047 10.107422 24.191406 9.6840625 24.191406 9.1640625 C 24.191406 8.6430625 23.768047 8.2207031 23.248047 8.2207031 z M 15.992188 13.228516 C 11.397188 13.228516 7.6582031 15.588281 7.6582031 18.488281 C 7.6582031 21.388281 11.397188 23.748047 15.992188 23.748047 C 20.588188 23.748047 24.326172 21.389281 24.326172 18.488281 C 24.326172 15.587281 20.587188 13.228516 15.992188 13.228516 z M 8.0058594 14.365234 C 7.2418594 14.366234 6.6210937 14.987 6.6210938 15.75 C 6.6210938 16.016 6.70075 16.273141 6.84375 16.494141 C 7.19375 15.752141 7.740125 15.053453 8.453125 14.439453 C 8.310125 14.390453 8.1598594 14.365234 8.0058594 14.365234 z M 24.015625 14.365234 C 23.851625 14.366234 23.693969 14.394219 23.542969 14.449219 C 24.259969 15.069219 24.80925 15.777344 25.15625 16.527344 C 25.31325 16.299344 25.398438 16.03 25.398438 15.75 C 25.398438 14.987 24.777625 14.365234 24.015625 14.365234 z M 19.171875 15.648438 C 20.126875 15.648438 20.902344 16.425859 20.902344 17.380859 C 20.902344 18.335859 20.126875 19.113281 19.171875 19.113281 C 18.215875 19.113281 17.4375 18.335859 17.4375 17.380859 C 17.4375 16.425859 18.215875 15.648438 19.171875 15.648438 z M 13.023438 15.650391 C 13.978438 15.650391 14.755859 16.427813 14.755859 17.382812 C 14.755859 18.337812 13.978438 19.113281 13.023438 19.113281 C 12.067438 19.113281 11.291016 18.337812 11.291016 17.382812 C 11.291016 16.427813 12.067437 15.650391 13.023438 15.650391 z M 12.861328 20.46875 C 13.045328 20.46875 13.220797 20.546547 13.341797 20.685547 C 13.343797 20.687547 14.098609 21.472656 15.974609 21.472656 C 17.873609 21.472656 18.706234 20.688297 18.740234 20.654297 C 18.856234 20.536297 19.019406 20.46875 19.191406 20.46875 C 19.358406 20.46875 19.515766 20.533437 19.634766 20.648438 C 19.883766 20.891438 19.889391 21.292969 19.650391 21.542969 C 19.617391 21.576969 19.316938 21.882781 18.710938 22.175781 C 17.929938 22.552781 17.008609 22.744141 15.974609 22.744141 C 14.933609 22.744141 14.024484 22.548063 13.271484 22.164062 C 12.684484 21.865063 12.408906 21.552578 12.378906 21.517578 C 12.268906 21.388578 12.213563 21.224688 12.226562 21.054688 C 12.239562 20.885687 12.318266 20.729141 12.447266 20.619141 C 12.562266 20.521141 12.710328 20.46875 12.861328 20.46875 z "
         id="path5349"
         style="fill:#4776ef;fill-opacity:1" /></g></g></svg>