<?xml version="1.0" encoding="UTF-8" standalone="no"?>
<svg
   xmlns:dc="http://purl.org/dc/elements/1.1/"
   xmlns:cc="http://creativecommons.org/ns#"
   xmlns:rdf="http://www.w3.org/1999/02/22-rdf-syntax-ns#"
   xmlns:svg="http://www.w3.org/2000/svg"
   xmlns="http://www.w3.org/2000/svg"
   xmlns:sodipodi="http://sodipodi.sourceforge.net/DTD/sodipodi-0.dtd"
   xmlns:inkscape="http://www.inkscape.org/namespaces/inkscape"
   enable-background="new 0 0 32 32"
   version="1.1"
   viewBox="0 0 32 32"
   xml:space="preserve"
   id="svg4697"
   sodipodi:docname="twitter.svg"
   inkscape:version="0.92.0 r"><metadata
     id="metadata4703"><rdf:RDF><cc:Work
         rdf:about=""><dc:format>image/svg+xml</dc:format><dc:type
           rdf:resource="http://purl.org/dc/dcmitype/StillImage" /><dc:title></dc:title></cc:Work></rdf:RDF></metadata><defs
     id="defs4701" /><sodipodi:namedview
     pagecolor="#ffffff"
     bordercolor="#666666"
     borderopacity="1"
     objecttolerance="10"
     gridtolerance="10"
     guidetolerance="10"
     inkscape:pageopacity="0"
     inkscape:pageshadow="2"
     inkscape:window-width="1383"
     inkscape:window-height="1096"
     id="namedview4699"
     showgrid="false"
     inkscape:zoom="7.375"
     inkscape:cx="16"
     inkscape:cy="16"
     inkscape:window-x="507"
     inkscape:window-y="32"
     inkscape:window-maximized="0"
     inkscape:current-layer="Flat_copy" /><g
     id="Flat_copy"><g
       id="g4692"><path
         d="M 16 0 C 7.163 0 0 7.163 0 16 C 0 24.836 7.163 32 16 32 C 24.837 32 32 24.836 32 16 C 32 7.163 24.837 0 16 0 z M 19.316406 8.7148438 C 19.718906 8.7050937 20.128125 8.7439844 20.453125 8.8339844 C 20.708125 8.9109844 21.191156 9.1693906 21.535156 9.4003906 L 22.158203 9.8261719 L 22.845703 9.6074219 C 23.227703 9.4924219 23.735844 9.2989219 23.964844 9.1699219 C 24.180844 9.0549219 24.371094 8.9912969 24.371094 9.0292969 C 24.371094 9.2472969 23.901812 9.9922969 23.507812 10.404297 C 22.972813 10.983297 23.124078 11.034437 24.205078 10.648438 C 24.853078 10.429438 24.868234 10.430781 24.740234 10.675781 C 24.663234 10.803781 24.269609 11.252062 23.849609 11.664062 C 23.137609 12.371063 23.099609 12.449016 23.099609 13.041016 C 23.099609 13.954016 22.667375 15.857437 22.234375 16.898438 C 21.432375 18.854438 19.714094 20.874625 17.996094 21.890625 C 15.579094 23.317625 12.360391 23.67975 9.6503906 22.84375 C 8.7483906 22.55975 7.1953125 21.838938 7.1953125 21.710938 C 7.1953125 21.671937 7.6672344 21.620422 8.2402344 21.607422 C 9.4362344 21.583422 10.632391 21.24925 11.650391 20.65625 L 12.337891 20.244141 L 11.548828 19.974609 C 10.428828 19.588609 9.4239219 18.701234 9.1699219 17.865234 C 9.0929219 17.594234 9.1180781 17.580078 9.8300781 17.580078 L 10.568359 17.570312 L 9.9453125 17.273438 C 9.2073125 16.899438 8.5321719 16.270953 8.2011719 15.626953 C 7.9591719 15.162953 7.6551406 13.992344 7.7441406 13.902344 C 7.7691406 13.863344 8.0367969 13.941922 8.3417969 14.044922 C 9.2187969 14.365922 9.3332188 14.288047 8.8242188 13.748047 C 7.8702187 12.770047 7.5771562 11.315453 8.0351562 9.9394531 L 8.2519531 9.3222656 L 9.0917969 10.158203 C 10.809797 11.843203 12.831484 12.846578 15.146484 13.142578 L 15.783203 13.220703 L 15.744141 12.589844 C 15.630141 10.956844 16.636563 9.4657188 18.226562 8.8867188 C 18.519563 8.7837188 18.913906 8.7245938 19.316406 8.7148438 z "
         id="path4690"
         style="fill:#4776ef;fill-opacity:1" /></g></g></svg>