<?xml version="1.0" encoding="UTF-8" standalone="no"?>
<!-- Created with Inkscape (http://www.inkscape.org/) -->

<svg
   xmlns:dc="http://purl.org/dc/elements/1.1/"
   xmlns:cc="http://creativecommons.org/ns#"
   xmlns:rdf="http://www.w3.org/1999/02/22-rdf-syntax-ns#"
   xmlns:svg="http://www.w3.org/2000/svg"
   xmlns="http://www.w3.org/2000/svg"
   xmlns:xlink="http://www.w3.org/1999/xlink"
   xmlns:sodipodi="http://sodipodi.sourceforge.net/DTD/sodipodi-0.dtd"
   xmlns:inkscape="http://www.inkscape.org/namespaces/inkscape"
   width="100"
   height="100"
   viewBox="0 0 26.458333 26.458333"
   version="1.1"
   id="svg8"
   inkscape:version="0.92.1 r"
   sodipodi:docname="jk-icon-v2.svg"
   inkscape:export-filename="/home/jaksonk/code/jaksonkallio.github.io/assets/structure/logos/jk-icon-v2-hd.png"
   inkscape:export-xdpi="479.99997"
   inkscape:export-ydpi="479.99997">
  <defs
     id="defs2">
    <linearGradient
       id="linearGradient4491"
       inkscape:collect="always">
      <stop
         id="stop4507"
         offset="0"
         style="stop-color:#cb2d3e;stop-opacity:1" />
      <stop
         id="stop4509"
         offset="1"
         style="stop-color:#ef473a;stop-opacity:1" />
    </linearGradient>
    <linearGradient
       inkscape:collect="always"
       xlink:href="#linearGradient4491"
       id="linearGradient4495"
       gradientUnits="userSpaceOnUse"
       x1="26.426275"
       y1="284.53922"
       x2="-0.0013493075"
       y2="284.53922"
       spreadMethod="pad" />
  </defs>
  <sodipodi:namedview
     id="base"
     pagecolor="#ffffff"
     bordercolor="#666666"
     borderopacity="1.0"
     inkscape:pageopacity="0.0"
     inkscape:pageshadow="2"
     inkscape:zoom="7.9195959"
     inkscape:cx="49.589698"
     inkscape:cy="42.321474"
     inkscape:document-units="mm"
     inkscape:current-layer="layer1"
     showgrid="false"
     units="px"
     inkscape:window-width="2560"
     inkscape:window-height="1376"
     inkscape:window-x="0"
     inkscape:window-y="27"
     inkscape:window-maximized="1" />
  <metadata
     id="metadata5">
    <rdf:RDF>
      <cc:Work
         rdf:about="">
        <dc:format>image/svg+xml</dc:format>
        <dc:type
           rdf:resource="http://purl.org/dc/dcmitype/StillImage" />
        <dc:title />
      </cc:Work>
    </rdf:RDF>
  </metadata>
  <g
     inkscape:label="Layer 1"
     inkscape:groupmode="layer"
     id="layer1"
     transform="translate(0,-270.54167)">
    <rect
       style="opacity:1;fill:url(#linearGradient4495);fill-opacity:1;stroke:none;stroke-width:0.41356489;stroke-linecap:round;stroke-linejoin:round;stroke-miterlimit:4;stroke-dasharray:none;stroke-dashoffset:0.25;stroke-opacity:1"
       id="rect4485"
       width="26.458334"
       height="26.458334"
       x="0"
       y="270.54166"
       rx="0"
       ry="0" />
    <g
       aria-label="jk"
       style="font-style:normal;font-variant:normal;font-weight:normal;font-stretch:normal;font-size:21.17157745px;line-height:13.23223591px;font-family:Heebo;-inkscape-font-specification:Heebo;letter-spacing:0px;word-spacing:0px;fill:#000000;fill-opacity:1;stroke:none;stroke-width:0.52928942px;stroke-linecap:butt;stroke-linejoin:miter;stroke-opacity:1"
       id="text4514">
      <path
         d="m 7.903059,273.60154 q 0.589248,0 1.0544438,0.23777 0.4651958,0.23777 0.7236379,0.66161 0.2687798,0.42385 0.2687798,0.96141 0,0.54789 -0.2584421,0.97174 -0.2584421,0.42384 -0.7339756,0.66161 -0.4651958,0.23777 -1.0544438,0.23777 -0.5995857,0 -1.0647815,-0.23777 -0.4651958,-0.23777 -0.7236379,-0.66161 -0.2584421,-0.42385 -0.2584421,-0.97174 0,-0.53756 0.2584421,-0.96141 0.2584421,-0.42384 0.7236379,-0.66161 0.4651958,-0.23777 1.0647815,-0.23777 z m 1.9331469,15.9924 q 0,1.41626 -0.5478972,2.40868 -0.5478973,1.00276 -1.5609904,1.51964 -1.013093,0.51688 -2.388005,0.51688 -0.5065466,0 -0.8890409,-0.0413 -0.3824943,-0.031 -0.8373524,-0.13439 v -2.9359 l 0.2584421,0.031 q 0.4962088,0.062 0.7443133,0.062 0.7339756,0 1.1164699,-0.37216 0.3824943,-0.36182 0.3824943,-1.05444 V 278.3362 h 3.7215663 z"
         style="fill:#ffffff;fill-opacity:1;stroke-width:0.52928942px"
         id="path4518" />
      <path
         d="m 16.338609,285.53123 -0.940729,0.92005 v 3.0703 h -3.711229 v -15.88902 h 3.711229 v 8.20812 l 0.248104,-0.33081 2.522395,-3.17367 h 4.434867 l -3.855956,4.62095 4.073047,6.56443 h -4.228113 z"
         style="fill:#ffffff;fill-opacity:1;stroke-width:0.52928942px"
         id="path4520" />
    </g>
  </g>
</svg>
