<?xml version="1.0" encoding="UTF-8" standalone="no"?>
<!-- Created with Inkscape (http://www.inkscape.org/) -->

<svg
   xmlns:dc="http://purl.org/dc/elements/1.1/"
   xmlns:cc="http://creativecommons.org/ns#"
   xmlns:rdf="http://www.w3.org/1999/02/22-rdf-syntax-ns#"
   xmlns:svg="http://www.w3.org/2000/svg"
   xmlns="http://www.w3.org/2000/svg"
   xmlns:xlink="http://www.w3.org/1999/xlink"
   xmlns:sodipodi="http://sodipodi.sourceforge.net/DTD/sodipodi-0.dtd"
   xmlns:inkscape="http://www.inkscape.org/namespaces/inkscape"
   width="1253.2394"
   height="332.87619"
   id="svg2"
   version="1.1"
   inkscape:version="0.91 r13725"
   sodipodi:docname="logo.svg">
  <defs
     id="defs4">
    <linearGradient
       id="linearGradient3799">
      <stop
         id="stop3801"
         offset="0"
         style="stop-color:#3498db;stop-opacity:1;" />
      <stop
         style="stop-color:#2fbcb2;stop-opacity:1;"
         offset="0.39040267"
         id="stop3803" />
      <stop
         id="stop3805"
         offset="1"
         style="stop-color:#2be189;stop-opacity:1;" />
    </linearGradient>
    <linearGradient
       id="linearGradient3772">
      <stop
         style="stop-color:#3498db;stop-opacity:1;"
         offset="0"
         id="stop3774" />
      <stop
         id="stop3780"
         offset="0.21538462"
         style="stop-color:#2fbcb2;stop-opacity:1;" />
      <stop
         style="stop-color:#2be189;stop-opacity:1;"
         offset="1"
         id="stop3776" />
    </linearGradient>
    <linearGradient
       inkscape:collect="always"
       xlink:href="#linearGradient3772"
       id="linearGradient3778"
       x1="-255.98287"
       y1="531.91835"
       x2="997.25646"
       y2="531.91835"
       gradientUnits="userSpaceOnUse" />
    <linearGradient
       inkscape:collect="always"
       xlink:href="#linearGradient3772"
       id="linearGradient3794"
       gradientUnits="userSpaceOnUse"
       x1="-255.98287"
       y1="531.91835"
       x2="997.25646"
       y2="531.91835"
       gradientTransform="translate(255.98287,-365.48025)" />
  </defs>
  <sodipodi:namedview
     id="base"
     pagecolor="#ffffff"
     bordercolor="#666666"
     borderopacity="1.0"
     inkscape:pageopacity="0.0"
     inkscape:pageshadow="2"
     inkscape:zoom="0.35"
     inkscape:cx="456.87763"
     inkscape:cy="-308.9675"
     inkscape:document-units="px"
     inkscape:current-layer="text2985"
     showgrid="false"
     fit-margin-top="0"
     fit-margin-left="0"
     fit-margin-right="0"
     fit-margin-bottom="0"
     inkscape:window-width="1262"
     inkscape:window-height="1399"
     inkscape:window-x="8"
     inkscape:window-y="31"
     inkscape:window-maximized="0" />
  <metadata
     id="metadata7">
    <rdf:RDF>
      <cc:Work
         rdf:about="">
        <dc:format>image/svg+xml</dc:format>
        <dc:type
           rdf:resource="http://purl.org/dc/dcmitype/StillImage" />
        <dc:title />
      </cc:Work>
    </rdf:RDF>
  </metadata>
  <g
     inkscape:label="Layer 1"
     inkscape:groupmode="layer"
     id="layer1"
     transform="translate(255.98287,-365.48025)">
    <g
       style="font-size:466.21316527999999835px;font-style:normal;font-variant:normal;font-weight:normal;font-stretch:normal;line-height:125%;letter-spacing:0px;word-spacing:0px;fill:url(#linearGradient3778);fill-opacity:1;stroke:none;font-family:Bebas Neue;-inkscape-font-specification:Bebas Neue"
       id="text2985">
      <path
         style="fill-opacity:1;fill:#556270"
         d="M 73.65625 0 C 49.10229 0.00033 30.93569 7.29856 19.125 21.90625 C 7.31425 36.51455 1.40623 56.41851 1.40625 81.59375 C 1.40623 96.82362 4.02874 110.02986 9.3125 121.21875 C 14.90703 132.09726 21.76269 141.89129 29.84375 150.59375 C 37.92473 159.29657 46.61318 167.3845 55.9375 174.84375 C 65.26168 181.9925 73.98138 189.44867 82.0625 197.21875 C 90.14342 204.67828 96.80989 212.89291 102.09375 221.90625 C 107.68819 230.60899 110.49988 241.03479 110.5 253.15625 C 110.49988 268.07513 107.3723 279.57527 101.15625 287.65625 C 94.93996 295.73731 85.30387 299.78128 72.25 299.78125 C 59.19596 299.78128 49.55987 295.73731 43.34375 287.65625 C 37.12753 279.57527 34.0312 268.07513 34.03125 253.15625 L 34.03125 232.625 L 0 232.625 L 0 251.28125 C -1e-05 276.14601 5.908 296.04996 17.71875 310.96875 C 29.52944 325.57677 48.01192 332.875 73.1875 332.875 C 98.3629 332.875 116.87664 325.57677 128.6875 310.96875 C 140.80889 296.04996 146.84359 276.14601 146.84375 251.28125 C 146.84359 236.05172 144.06315 223.00341 138.46875 212.125 C 133.18485 200.93601 126.48714 190.98403 118.40625 182.28125 C 110.3251 173.57876 101.47871 165.64877 91.84375 158.5 C 82.51939 151.04077 73.83094 143.5846 65.75 136.125 C 57.6689 128.35498 50.81324 119.98242 45.21875 110.96875 C 39.93494 101.95553 37.31245 91.37178 37.3125 79.25 C 37.31245 64.64225 40.25083 53.30005 46.15625 45.21875 C 52.06155 37.13801 61.5397 33.09405 74.59375 33.09375 C 87.64761 33.09405 97.12577 37.13801 103.03125 45.21875 C 108.93649 53.30005 111.90612 64.80019 111.90625 79.71875 L 111.90625 90.4375 L 146.40625 90.4375 L 146.40625 81.59375 C 146.40609 56.72932 140.49808 36.98331 128.6875 22.375 C 116.87664 7.4565 98.52084 0.00033 73.65625 0 z M 981.125 0 C 955.94942 0.00033 937.15105 7.4565 924.71875 22.375 C 912.59718 36.98331 906.53124 56.88726 906.53125 82.0625 L 906.53125 250.8125 C 906.53124 275.67726 912.59718 295.58121 924.71875 310.5 C 937.15105 325.41882 955.94942 332.875 981.125 332.875 C 1006.3004 332.875 1025.0988 325.41882 1037.5312 310.5 C 1049.9634 295.58121 1056.1873 275.67726 1056.1875 250.8125 L 1056.1875 82.0625 C 1056.1873 56.88726 1049.9634 36.98331 1037.5312 22.375 C 1025.0988 7.4565 1006.3004 0.00033 981.125 0 z M 231.28125 3.25 L 168.8125 329.625 L 202.375 329.625 L 214.96875 263.875 L 297.5 263.875 L 310.0625 329.625 L 346.4375 329.625 L 283.96875 3.25 L 231.28125 3.25 z M 374.8125 3.25 L 374.8125 329.625 L 449.875 329.625 C 475.3612 329.625 494.15957 323.08523 506.28125 310.03125 C 518.40263 296.66651 524.46858 277.71019 524.46875 253.15625 L 524.46875 225.65625 C 524.46858 207.62946 521.05637 192.55918 514.21875 180.4375 C 507.69161 168.31612 496.50736 160.07024 480.65625 155.71875 C 494.95331 151.3676 504.90529 143.91144 510.5 133.34375 C 516.0944 122.46565 518.87483 108.31176 518.875 90.90625 L 518.875 75.53125 C 518.87483 51.28845 513.44065 33.24853 502.5625 21.4375 C 491.68405 9.31628 473.51745 3.25033 448.03125 3.25 L 374.8125 3.25 z M 557.84375 3.25 L 557.84375 329.625 L 594.21875 329.625 L 594.21875 190.21875 L 619.84375 190.21875 C 635.07328 190.21889 646.73137 193.78904 654.8125 200.9375 C 663.20422 207.77542 667.40612 220.34989 667.40625 238.6875 L 667.40625 290 C 667.40612 300.87833 667.87994 309.09296 668.8125 314.6875 C 669.74479 319.97125 671.29296 324.96287 673.46875 329.625 L 710.3125 329.625 C 707.20424 324.03044 705.30895 317.9645 704.6875 311.4375 C 704.06572 304.59974 703.78109 297.58613 703.78125 290.4375 L 703.78125 239.625 C 703.78109 221.909 700.65352 207.31255 694.4375 195.8125 C 688.22118 184.00191 677.66868 175.91398 662.75 171.5625 C 676.73625 167.21134 686.97286 159.43928 693.5 148.25 C 700.02682 137.06107 703.31234 122.46461 703.3125 104.4375 L 703.3125 77.84375 C 703.31234 53.60094 697.56227 35.11845 686.0625 22.375 C 674.87325 9.63216 656.35951 3.25033 630.5625 3.25 L 557.84375 3.25 z M 741.78125 3.25 L 741.78125 329.625 L 876.0625 329.625 L 876.0625 296.5 L 778.15625 296.5 L 778.15625 180.4375 L 857.875 180.4375 L 857.875 147.78125 L 778.15625 147.78125 L 778.15625 36.375 L 876.0625 36.375 L 876.0625 3.25 L 741.78125 3.25 z M 1090.5312 3.25 L 1090.5312 329.625 L 1126.9062 329.625 L 1126.9062 220.0625 L 1146 187.875 L 1215.9375 329.625 L 1253.25 329.625 L 1167.9375 152 L 1250.4375 3.25 L 1213.625 3.25 L 1126.9062 160.84375 L 1126.9062 3.25 L 1090.5312 3.25 z M 981.125 33.09375 C 994.48967 33.09405 1004.2837 37.29595 1010.5 45.6875 C 1016.716 53.7688 1019.8124 65.26895 1019.8125 80.1875 L 1019.8125 252.6875 C 1019.8124 267.60639 1016.716 279.26447 1010.5 287.65625 C 1004.2837 295.73731 994.48967 299.78128 981.125 299.78125 C 968.07095 299.78128 958.27692 295.73731 951.75 287.65625 C 945.53377 279.26447 942.43745 267.60639 942.4375 252.6875 L 942.4375 80.1875 C 942.43745 65.26895 945.53377 53.7688 951.75 45.6875 C 958.27692 37.29595 968.07095 33.09405 981.125 33.09375 z M 411.1875 36.375 L 447.09375 36.375 C 460.14761 36.37529 469.30988 39.94544 474.59375 47.09375 C 480.18818 53.93182 482.96863 64.64225 482.96875 79.25 L 482.96875 98.375 C 482.96863 115.46969 479.24054 126.96984 471.78125 132.875 C 464.63254 138.78056 453.76416 141.71894 439.15625 141.71875 L 411.1875 141.71875 L 411.1875 36.375 z M 594.21875 36.375 L 629.65625 36.375 C 643.33173 36.37529 652.96783 40.10338 658.5625 47.5625 C 664.46774 55.02219 667.40612 66.20644 667.40625 81.125 L 667.40625 112.34375 C 667.40612 130.06005 663.36215 142.03401 655.28125 148.25 C 647.20011 154.15554 635.85792 157.12517 621.25 157.125 L 594.21875 157.125 L 594.21875 36.375 z M 255.53125 44.28125 L 292.34375 232.625 L 219.625 232.625 L 255.53125 44.28125 z M 411.1875 174.84375 L 442.875 174.84375 C 458.72615 174.8439 470.22628 178.41405 477.375 185.5625 C 484.83428 192.40043 488.56237 204.97491 488.5625 223.3125 L 488.5625 252.21875 C 488.56237 281.74563 475.67201 296.50003 449.875 296.5 L 411.1875 296.5 L 411.1875 174.84375 z "
         transform="translate(-255.98287,365.48025)"
         id="path2990" />
    </g>
  </g>
</svg>
