<?xml version="1.0" encoding="UTF-8" standalone="no"?>
<!-- Created with Inkscape (http://www.inkscape.org/) -->

<svg
   xmlns:dc="http://purl.org/dc/elements/1.1/"
   xmlns:cc="http://creativecommons.org/ns#"
   xmlns:rdf="http://www.w3.org/1999/02/22-rdf-syntax-ns#"
   xmlns:svg="http://www.w3.org/2000/svg"
   xmlns="http://www.w3.org/2000/svg"
   xmlns:xlink="http://www.w3.org/1999/xlink"
   xmlns:sodipodi="http://sodipodi.sourceforge.net/DTD/sodipodi-0.dtd"
   xmlns:inkscape="http://www.inkscape.org/namespaces/inkscape"
   width="2116.9319"
   height="287.76523"
   viewBox="0 0 560.10488 76.137885"
   version="1.1"
   id="svg8"
   inkscape:version="0.92.4 5da689c313, 2019-01-14"
   sodipodi:docname="bulletmark-logo.svg">
  <defs
     id="defs2">
    <linearGradient
       id="linearGradient870"
       inkscape:collect="always">
      <stop
         id="stop874"
         offset="0"
         style="stop-color:#355c7d;stop-opacity:1" />
      <stop
         id="stop876"
         offset="1"
         style="stop-color:#c06c84;stop-opacity:1" />
    </linearGradient>
    <linearGradient
       inkscape:collect="always"
       xlink:href="#linearGradient870"
       id="linearGradient872"
       x1="-242.92056"
       y1="59.46487"
       x2="317.1843"
       y2="59.46487"
       gradientUnits="userSpaceOnUse" />
    <linearGradient
       inkscape:collect="always"
       xlink:href="#linearGradient870"
       id="linearGradient919"
       gradientUnits="userSpaceOnUse"
       x1="-242.92056"
       y1="59.46487"
       x2="317.1843"
       y2="59.46487" />
    <linearGradient
       inkscape:collect="always"
       xlink:href="#linearGradient870"
       id="linearGradient921"
       gradientUnits="userSpaceOnUse"
       x1="-242.92056"
       y1="59.46487"
       x2="317.1843"
       y2="59.46487" />
    <linearGradient
       inkscape:collect="always"
       xlink:href="#linearGradient870"
       id="linearGradient923"
       gradientUnits="userSpaceOnUse"
       x1="-242.92056"
       y1="59.46487"
       x2="317.1843"
       y2="59.46487" />
    <linearGradient
       inkscape:collect="always"
       xlink:href="#linearGradient870"
       id="linearGradient925"
       gradientUnits="userSpaceOnUse"
       x1="-242.92056"
       y1="59.46487"
       x2="317.1843"
       y2="59.46487" />
    <linearGradient
       inkscape:collect="always"
       xlink:href="#linearGradient870"
       id="linearGradient927"
       gradientUnits="userSpaceOnUse"
       x1="-242.92056"
       y1="59.46487"
       x2="317.1843"
       y2="59.46487" />
    <linearGradient
       inkscape:collect="always"
       xlink:href="#linearGradient870"
       id="linearGradient929"
       gradientUnits="userSpaceOnUse"
       x1="-242.92056"
       y1="59.46487"
       x2="317.1843"
       y2="59.46487" />
    <linearGradient
       inkscape:collect="always"
       xlink:href="#linearGradient870"
       id="linearGradient931"
       gradientUnits="userSpaceOnUse"
       x1="-242.92056"
       y1="59.46487"
       x2="317.1843"
       y2="59.46487" />
    <linearGradient
       inkscape:collect="always"
       xlink:href="#linearGradient870"
       id="linearGradient933"
       gradientUnits="userSpaceOnUse"
       x1="-242.92056"
       y1="59.46487"
       x2="317.1843"
       y2="59.46487" />
    <linearGradient
       inkscape:collect="always"
       xlink:href="#linearGradient870"
       id="linearGradient935"
       gradientUnits="userSpaceOnUse"
       x1="-242.92056"
       y1="59.46487"
       x2="317.1843"
       y2="59.46487" />
    <linearGradient
       inkscape:collect="always"
       xlink:href="#linearGradient870"
       id="linearGradient937"
       gradientUnits="userSpaceOnUse"
       x1="-242.92056"
       y1="59.46487"
       x2="317.1843"
       y2="59.46487" />
    <linearGradient
       inkscape:collect="always"
       xlink:href="#linearGradient870"
       id="linearGradient939"
       gradientUnits="userSpaceOnUse"
       x1="-242.92056"
       y1="59.46487"
       x2="317.1843"
       y2="59.46487" />
  </defs>
  <sodipodi:namedview
     id="base"
     pagecolor="#ffffff"
     bordercolor="#666666"
     borderopacity="1.0"
     inkscape:pageopacity="0.0"
     inkscape:pageshadow="2"
     inkscape:zoom="0.35"
     inkscape:cx="746.69642"
     inkscape:cy="-205.31649"
     inkscape:document-units="mm"
     inkscape:current-layer="layer1"
     showgrid="false"
     inkscape:window-width="2213"
     inkscape:window-height="1184"
     inkscape:window-x="61"
     inkscape:window-y="121"
     inkscape:window-maximized="0"
     units="px"
     fit-margin-top="0"
     fit-margin-left="0"
     fit-margin-right="0"
     fit-margin-bottom="0" />
  <metadata
     id="metadata5">
    <rdf:RDF>
      <cc:Work
         rdf:about="">
        <dc:format>image/svg+xml</dc:format>
        <dc:type
           rdf:resource="http://purl.org/dc/dcmitype/StillImage" />
        <dc:title></dc:title>
      </cc:Work>
    </rdf:RDF>
  </metadata>
  <g
     inkscape:label="Layer 1"
     inkscape:groupmode="layer"
     id="layer1"
     transform="translate(242.92057,-21.395932)">
    <g
       aria-label="bulletmark"
       style="font-style:normal;font-variant:normal;font-weight:normal;font-stretch:normal;font-size:103.27758789px;line-height:1.25;font-family:Inter;-inkscape-font-specification:Inter;letter-spacing:0px;word-spacing:0px;fill:url(#linearGradient939);fill-opacity:1;stroke:none;stroke-width:2.5819397"
       id="text817">
      <path
         d="M -242.92057,96.506905 V 21.395932 h 20.24476 V 50.00265 h 0.2934 q 1.65039,-4.291008 5.61132,-7.408407 3.96093,-3.154074 10.2324,-3.154074 5.57464,0 10.59916,2.970698 5.06119,2.970698 8.21526,9.352196 3.19075,6.381499 3.19075,16.577227 0,9.755624 -3.04405,16.173798 -3.00737,6.418174 -8.06856,9.572248 -5.02451,3.154074 -11.03926,3.154074 -5.9414,0 -9.939,-2.823996 -3.99761,-2.860672 -5.75802,-7.15168 h -0.4401 v 9.242171 z m 19.80465,-28.166615 q 0,6.161447 2.3839,9.755624 2.38389,3.594178 6.56487,3.594178 4.18098,0 6.49153,-3.520827 2.31054,-3.557502 2.31054,-9.828975 0,-6.271473 -2.31054,-9.7923 -2.31055,-3.557502 -6.49153,-3.557502 -4.18098,0 -6.56487,3.557502 -2.3839,3.520827 -2.3839,9.7923 z"
         style="fill:url(#linearGradient919);fill-opacity:1;stroke-width:2.5819397"
         id="path898"
         inkscape:connector-curvature="0" />
      <path
         d="M -139.53295,71.861117 V 40.173675 h 20.24475 v 56.33323 h -19.21784 V 85.797723 h -0.58681 q -1.83376,5.391266 -6.41817,8.435314 -4.58441,3.007373 -10.89256,3.007373 -5.90472,0 -10.34243,-2.713971 -4.40103,-2.71397 -6.85827,-7.481757 -2.42057,-4.767786 -2.45725,-10.929233 V 40.173675 h 20.24476 v 31.687442 q 0.0367,4.180981 2.12716,6.564875 2.12717,2.383893 5.9414,2.383893 3.77755,0 6.01474,-2.383893 2.2372,-2.383894 2.20052,-6.564875 z"
         style="fill:url(#linearGradient921);fill-opacity:1;stroke-width:2.5819397"
         id="path900"
         inkscape:connector-curvature="0" />
      <path
         d="M -88.847711,21.395932 V 96.506905 H -109.09247 V 21.395932 Z"
         style="fill:url(#linearGradient923);fill-opacity:1;stroke-width:2.5819397"
         id="path902"
         inkscape:connector-curvature="0" />
      <path
         d="M -58.388895,21.395932 V 96.506905 H -78.633649 V 21.395932 Z"
         style="fill:url(#linearGradient925);fill-opacity:1;stroke-width:2.5819397"
         id="path904"
         inkscape:connector-curvature="0" />
      <path
         d="m -21.181827,97.533812 q -13.533178,0 -21.308337,-7.665133 -7.738484,-7.701809 -7.738484,-21.381688 0,-8.728717 3.520826,-15.256917 3.520827,-6.528199 9.939001,-10.159052 6.418174,-3.630853 15.146891,-3.630853 8.508665,0 14.7801375,3.484152 6.30814817,3.484151 9.7556245,9.975676 3.4841516,6.454849 3.4841516,15.440293 v 4.694436 H -30.277296 v 0.880206 q 0,4.070956 2.493919,6.748252 2.530594,2.64062 7.041654,2.64062 3.117398,0 5.427941,-1.283635 2.347218,-1.32031 3.227425,-3.704203 H 6.3979836 q -1.430336,8.802067 -8.6553661,14.009957 -7.1883548,5.207889 -18.9244445,5.207889 z M -30.277296,61.88544 h 18.044237 q -0.07335,-3.630852 -2.64062,-5.90472 -2.530594,-2.310542 -6.308148,-2.310542 -3.704203,0 -6.381499,2.273867 -2.64062,2.273868 -2.71397,5.941395 z"
         style="fill:url(#linearGradient927);fill-opacity:1;stroke-width:2.5819397"
         id="path906"
         inkscape:connector-curvature="0" />
      <path
         d="m 48.152786,40.173675 v 14.670112 h -9.682274 v 23.545529 q 0,3.520827 3.814229,3.520827 0.916882,0 2.127167,-0.220051 1.246959,-0.220052 1.833764,-0.366753 l 2.934022,14.230008 q -1.356985,0.403428 -3.88758,0.990233 -2.493919,0.586804 -5.941395,0.770181 -10.48913,0.586804 -15.880396,-3.777554 -5.354591,-4.401034 -5.244565,-13.239776 V 54.843787 H 11.037403 V 40.173675 h 7.188355 V 26.677172 h 20.244754 v 13.496503 z"
         style="fill:url(#linearGradient929);fill-opacity:1;stroke-width:2.5819397"
         id="path908"
         inkscape:connector-curvature="0" />
      <path
         d="m 56.313052,96.506905 v -56.33323 h 19.217846 v 10.709182 h 0.586805 q 1.760413,-5.281241 6.014746,-8.361964 4.254332,-3.080724 10.122377,-3.080724 5.941395,0 10.232404,3.154074 4.29101,3.117399 5.17121,8.288614 h 0.58681 q 1.43033,-5.171215 6.08809,-8.288614 4.65776,-3.154074 10.92924,-3.154074 8.10523,0 13.12975,5.20789 5.06119,5.20789 5.06119,13.863256 v 37.99559 H 123.20876 V 63.645854 q 0,-3.704203 -1.87044,-5.794694 -1.87044,-2.127167 -5.02451,-2.127167 -3.1174,0 -4.95116,2.127167 -1.79709,2.090491 -1.79709,5.794694 V 96.506905 H 90.20101 V 63.645854 q 0,-3.704203 -1.870439,-5.794694 -1.870439,-2.127167 -5.024513,-2.127167 -3.117399,0 -4.951163,2.127167 -1.797089,2.090491 -1.797089,5.794694 v 32.861051 z"
         style="fill:url(#linearGradient931);fill-opacity:1;stroke-width:2.5819397"
         id="path910"
         inkscape:connector-curvature="0" />
      <path
         d="m 169.03452,97.387111 q -8.06857,0 -13.2031,-3.997605 -5.13454,-4.034281 -5.13454,-12.43292 0,-6.198122 2.75064,-9.975676 2.75065,-3.777554 7.44508,-5.647993 4.69444,-1.870439 10.48913,-2.273868 7.11501,-0.513453 10.08571,-1.503686 2.97069,-1.026908 2.97069,-3.484152 V 57.92451 q 0,-2.200517 -1.68706,-3.374125 -1.68706,-1.173609 -4.32768,-1.173609 -2.89735,0 -4.73111,1.283634 -1.79709,1.24696 -2.16384,3.850905 h -18.63105 q 0.36676,-5.134539 3.2641,-9.462222 2.93403,-4.364359 8.54534,-6.968304 5.61132,-2.64062 14.00996,-2.64062 8.06856,0 13.86326,2.457244 5.83137,2.457244 8.94876,6.638226 3.15408,4.180982 3.15408,9.388871 v 38.582395 h -18.92445 v -7.921861 h -0.4401 q -2.56727,4.731111 -6.6749,6.784927 -4.10763,2.01714 -9.60892,2.01714 z m 6.60155,-12.762997 q 3.44747,0 6.19812,-2.090491 2.75064,-2.127166 2.75064,-5.978071 v -4.694435 q -3.00737,1.246959 -8.06856,2.053815 -3.52082,0.550129 -5.13454,2.127166 -1.61371,1.577038 -1.61371,3.740879 0,2.347218 1.65039,3.594177 1.65039,1.24696 4.21766,1.24696 z"
         style="fill:url(#linearGradient933);fill-opacity:1;stroke-width:2.5819397"
         id="path912"
         inkscape:connector-curvature="0" />
      <path
         d="m 214.45685,96.506905 v -56.33323 h 19.65795 v 10.709182 h 0.58681 q 1.54036,-5.941396 4.87781,-8.692042 3.37412,-2.750646 7.88518,-2.750646 2.5306,0 5.13454,0.770181 v 17.274057 q -1.50368,-0.513454 -3.7042,-0.770181 -2.20052,-0.256727 -3.77756,-0.256727 -4.47438,0 -7.44508,2.934022 -2.97069,2.934023 -2.97069,7.77516 v 29.340224 z"
         style="fill:url(#linearGradient935);fill-opacity:1;stroke-width:2.5819397"
         id="path914"
         inkscape:connector-curvature="0" />
      <path
         d="M 259.23737,96.506905 V 21.395932 h 20.24475 v 37.702187 h 0.73351 l 13.6432,-18.924444 h 22.73868 l -19.1445,24.682463 19.7313,31.650767 h -23.17878 l -11.47936,-19.841327 -3.04405,3.850905 v 15.990422 z"
         style="fill:url(#linearGradient937);fill-opacity:1;stroke-width:2.5819397"
         id="path916"
         inkscape:connector-curvature="0" />
    </g>
  </g>
</svg>
