<?xml version="1.0" encoding="UTF-8" standalone="no"?>
<!-- Created with Inkscape (http://www.inkscape.org/) -->

<svg
   xmlns:dc="http://purl.org/dc/elements/1.1/"
   xmlns:cc="http://creativecommons.org/ns#"
   xmlns:rdf="http://www.w3.org/1999/02/22-rdf-syntax-ns#"
   xmlns:svg="http://www.w3.org/2000/svg"
   xmlns="http://www.w3.org/2000/svg"
   xmlns:sodipodi="http://sodipodi.sourceforge.net/DTD/sodipodi-0.dtd"
   xmlns:inkscape="http://www.inkscape.org/namespaces/inkscape"
   width="1018.226"
   height="204.87268"
   viewBox="0 0 269.40563 54.205898"
   version="1.1"
   id="svg8"
   inkscape:version="0.92.4 5da689c313, 2019-01-14"
   sodipodi:docname="candb-logo.svg">
  <defs
     id="defs2" />
  <sodipodi:namedview
     id="base"
     pagecolor="#ffffff"
     bordercolor="#666666"
     borderopacity="1.0"
     inkscape:pageopacity="0.0"
     inkscape:pageshadow="2"
     inkscape:zoom="0.35"
     inkscape:cx="-152.41395"
     inkscape:cy="110.92704"
     inkscape:document-units="mm"
     inkscape:current-layer="text817"
     showgrid="false"
     units="px"
     fit-margin-top="0"
     fit-margin-left="0"
     fit-margin-right="0"
     fit-margin-bottom="0"
     inkscape:window-width="2560"
     inkscape:window-height="1376"
     inkscape:window-x="0"
     inkscape:window-y="27"
     inkscape:window-maximized="1" />
  <metadata
     id="metadata5">
    <rdf:RDF>
      <cc:Work
         rdf:about="">
        <dc:format>image/svg+xml</dc:format>
        <dc:type
           rdf:resource="http://purl.org/dc/dcmitype/StillImage" />
        <dc:title></dc:title>
      </cc:Work>
    </rdf:RDF>
  </metadata>
  <g
     inkscape:label="Layer 1"
     inkscape:groupmode="layer"
     id="layer1"
     transform="translate(98.495876,-81.342254)">
    <g
       aria-label="Cryptocurrency &amp;
Blockchain"
       style="font-style:normal;font-variant:normal;font-weight:normal;font-stretch:normal;font-size:32.65733719px;line-height:1.25;font-family:Inter;-inkscape-font-specification:Inter;letter-spacing:0px;word-spacing:0px;fill:#000000;fill-opacity:1;stroke:none;stroke-width:0.81643343"
       id="text817">
      <path
         d="m -78.456147,89.089094 h -2.876072 q -0.347912,-1.646783 -1.333663,-2.771699 -0.98575,-1.124915 -2.377398,-1.704768 -1.391648,-0.579854 -2.968849,-0.579854 -2.157054,0 -3.908211,1.090125 -1.73956,1.090124 -2.771699,3.212387 -1.020542,2.122263 -1.020542,5.207082 0,3.08482 1.020542,5.207083 1.032139,2.12226 2.771699,3.21239 1.751157,1.09012 3.908211,1.09012 1.577201,0 2.968849,-0.57985 1.391648,-0.57986 2.377398,-1.70477 0.985751,-1.124916 1.333663,-2.771699 h 2.876072 q -0.440688,2.435379 -1.797545,4.174939 -1.356857,1.72797 -3.363149,2.65573 -2.006292,0.91617 -4.395288,0.91617 -3.038431,0 -5.404232,-1.48442 -2.365802,-1.48443 -3.722659,-4.22134 -1.356856,-2.736903 -1.356856,-6.494353 0,-3.757449 1.356856,-6.494356 1.356857,-2.736908 3.722659,-4.221332 2.365801,-1.484425 5.404232,-1.484425 2.388996,0 4.395288,0.927765 2.006292,0.916169 3.363149,2.655729 1.356857,1.727962 1.797545,4.163346 z"
         style="font-style:normal;font-variant:normal;font-weight:normal;font-stretch:normal;font-family:'Inter UI';-inkscape-font-specification:'Inter UI';stroke-width:0.81643343"
         id="path821"
         inkscape:connector-curvature="0" />
      <path
         d="M -74.211621,105.41776 V 87.60467 h 2.644131 v 2.690519 h 0.185553 q 0.47548,-1.322065 1.751157,-2.145457 1.275677,-0.823392 2.887669,-0.823392 0.742213,0 1.298872,0.173956 0.556659,0.173956 0.974153,0.47548 l -0.927765,2.319413 q -0.289927,-0.150762 -0.684227,-0.231941 -0.382703,-0.09278 -0.892974,-0.09278 -1.948307,0 -3.223984,1.194498 -1.275677,1.182901 -1.275677,2.980446 v 11.272348 z"
         style="font-style:normal;font-variant:normal;font-weight:normal;font-stretch:normal;font-family:'Inter UI';-inkscape-font-specification:'Inter UI';stroke-width:0.81643343"
         id="path823"
         inkscape:connector-curvature="0" />
      <path
         d="m -60.040007,112.32961 q -0.695824,0 -1.240886,-0.11597 -0.545062,-0.10437 -0.753809,-0.20874 l 0.695824,-2.41219 q 1.496021,0.3827 2.493369,-0.0232 1.008945,-0.3943 1.727963,-2.38899 l 0.603047,-1.66998 -6.587133,-17.90587 h 2.968849 l 4.917155,14.19481 h 0.185554 l 4.917155,-14.19481 h 2.968849 l -7.654063,20.68917 q -1.507619,4.03577 -5.241874,4.03577 z"
         style="font-style:normal;font-variant:normal;font-weight:normal;font-stretch:normal;font-family:'Inter UI';-inkscape-font-specification:'Inter UI';stroke-width:0.81643343"
         id="path825"
         inkscape:connector-curvature="0" />
      <path
         d="m -43.531586,112.09767 v -24.493 h 2.644131 v 2.829684 h 0.324718 q 0.301523,-0.463883 0.834988,-1.182901 0.545062,-0.730615 1.554007,-1.298871 1.020542,-0.579854 2.760102,-0.579854 2.249831,0 3.966196,1.124916 1.716366,1.124915 2.678922,3.189193 0.962557,2.064278 0.962557,4.870768 0,2.829684 -0.962557,4.905555 -0.962556,2.06428 -2.667325,3.20079 -1.704768,1.12492 -3.931405,1.12492 -1.716366,0 -2.748505,-0.56826 -1.032138,-0.57985 -1.588798,-1.31047 -0.556659,-0.74221 -0.858182,-1.22928 h -0.231942 v 9.41681 z m 2.690519,-15.586454 q 0,3.026834 1.310468,4.928754 1.322066,1.89032 3.792241,1.89032 1.716366,0 2.864475,-0.90457 1.159707,-0.91617 1.73956,-2.458578 0.59145,-1.554007 0.59145,-3.455926 0,-1.878724 -0.579853,-3.386343 -0.568256,-1.519216 -1.727963,-2.400593 -1.148109,-0.892974 -2.887669,-0.892974 -2.504966,0 -3.803838,1.843934 -1.298871,1.843933 -1.298871,4.835976 z"
         style="font-style:normal;font-variant:normal;font-weight:normal;font-stretch:normal;font-family:'Inter UI';-inkscape-font-specification:'Inter UI';stroke-width:0.81643343"
         id="path827"
         inkscape:connector-curvature="0" />
      <path
         d="m -15.88418,87.60467 v 2.319413 h -3.803838 v 10.390967 q 0,1.15971 0.336315,1.73956 0.347912,0.56826 0.881377,0.76541 0.545062,0.18555 1.14811,0.18555 0.452285,0 0.742212,-0.0464 0.289927,-0.058 0.463882,-0.0928 l 0.55666,2.45858 q -0.27833,0.10437 -0.777004,0.20874 -0.498674,0.11597 -1.26408,0.11597 -1.159707,0 -2.273025,-0.49867 -1.101721,-0.49867 -1.832336,-1.51922 -0.719018,-1.02054 -0.719018,-2.57454 V 89.924083 h -2.69052 V 87.60467 h 2.69052 v -4.26772 h 2.736907 v 4.26772 z"
         style="font-style:normal;font-variant:normal;font-weight:normal;font-stretch:normal;font-family:'Inter UI';-inkscape-font-specification:'Inter UI';stroke-width:0.81643343"
         id="path829"
         inkscape:connector-curvature="0" />
      <path
         d="m -4.530651,105.78887 q -2.4121897,0 -4.232929,-1.14811 -1.809142,-1.14811 -2.829684,-3.21239 -1.008945,-2.064276 -1.008945,-4.824377 0,-2.783296 1.008945,-4.859171 1.020542,-2.075875 2.829684,-3.223984 1.8207393,-1.14811 4.232929,-1.14811 2.4121896,0 4.2213319,1.14811 1.8207393,1.148109 2.829684,3.223984 1.0205418,2.075875 1.0205418,4.859171 0,2.760101 -1.0205418,4.824377 -1.0089447,2.06428 -2.829684,3.21239 -1.8091423,1.14811 -4.2213319,1.14811 z m 0,-2.45858 q 1.8323364,0 3.0152371,-0.93936 1.18290067,-0.93936 1.75115689,-2.470176 0.56825622,-1.530813 0.56825622,-3.316761 0,-1.785948 -0.56825622,-3.328358 -0.56825622,-1.54241 -1.75115689,-2.493369 -1.1829007,-0.95096 -3.0152371,-0.95096 -1.8323364,0 -3.0152371,0.95096 -1.1829007,0.950959 -1.751157,2.493369 -0.5682562,1.54241 -0.5682562,3.328358 0,1.785948 0.5682562,3.316761 0.5682563,1.530816 1.751157,2.470176 1.1829007,0.93936 3.0152371,0.93936 z"
         style="font-style:normal;font-variant:normal;font-weight:normal;font-stretch:normal;font-family:'Inter UI';-inkscape-font-specification:'Inter UI';stroke-width:0.81643343"
         id="path831"
         inkscape:connector-curvature="0" />
      <path
         d="m 14.923428,105.78887 q -2.504967,0 -4.314109,-1.1829 -1.8091421,-1.1829 -2.7832956,-3.25878 -0.9741535,-2.075872 -0.9741535,-4.743197 0,-2.713714 0.9973476,-4.789588 1.0089447,-2.087472 2.8064895,-3.258776 1.809143,-1.182901 4.221332,-1.182901 1.878725,0 3.386344,0.695824 1.507618,0.695824 2.470175,1.948307 0.962556,1.252484 1.194497,2.922461 h -2.736907 q -0.313121,-1.217692 -1.391648,-2.157054 -1.06693,-0.95096 -2.876072,-0.95096 -2.400593,0 -3.87342,1.832337 -1.4612306,1.820739 -1.4612306,4.847573 0,3.096417 1.4496336,4.963544 1.449633,1.85553 3.885017,1.85553 1.600395,0 2.736907,-0.82339 1.14811,-0.82339 1.530813,-2.28462 h 2.736907 q -0.231941,1.5772 -1.148109,2.84128 -0.904571,1.25248 -2.400593,1.99469 -1.484424,0.73062 -3.455925,0.73062 z"
         style="font-style:normal;font-variant:normal;font-weight:normal;font-stretch:normal;font-family:'Inter UI';-inkscape-font-specification:'Inter UI';stroke-width:0.81643343"
         id="path833"
         inkscape:connector-curvature="0" />
      <path
         d="M 37.154998,98.134805 V 87.60467 h 2.736908 v 17.81309 h -2.736908 v -3.01523 h -0.185553 q -0.626241,1.35685 -1.948307,2.30781 -1.322065,0.93936 -3.339955,0.93936 -2.504966,0 -4.128555,-1.65838 -1.62359,-1.65838 -1.62359,-5.067914 V 87.60467 h 2.736908 v 11.133183 q 0,1.948307 1.090124,3.108017 1.101721,1.1597 2.80649,1.1597 1.020542,0 2.075875,-0.52186 1.06693,-0.52187 1.785948,-1.6004 0.730615,-1.078527 0.730615,-2.748505 z"
         style="font-style:normal;font-variant:normal;font-weight:normal;font-stretch:normal;font-family:'Inter UI';-inkscape-font-specification:'Inter UI';stroke-width:0.81643343"
         id="path835"
         inkscape:connector-curvature="0" />
      <path
         d="M 44.872856,105.41776 V 87.60467 h 2.644131 v 2.690519 h 0.185553 q 0.475479,-1.322065 1.751157,-2.145457 1.275677,-0.823392 2.887669,-0.823392 0.742212,0 1.298871,0.173956 0.556659,0.173956 0.974154,0.47548 l -0.927765,2.319413 q -0.289927,-0.150762 -0.684227,-0.231941 -0.382703,-0.09278 -0.892974,-0.09278 -1.948307,0 -3.223985,1.194498 -1.275677,1.182901 -1.275677,2.980446 v 11.272348 z"
         style="font-style:normal;font-variant:normal;font-weight:normal;font-stretch:normal;font-family:'Inter UI';-inkscape-font-specification:'Inter UI';stroke-width:0.81643343"
         id="path837"
         inkscape:connector-curvature="0" />
      <path
         d="M 57.374488,105.41776 V 87.60467 h 2.644131 v 2.690519 h 0.185553 q 0.47548,-1.322065 1.751157,-2.145457 1.275678,-0.823392 2.88767,-0.823392 0.742212,0 1.298871,0.173956 0.556659,0.173956 0.974154,0.47548 l -0.927766,2.319413 q -0.289926,-0.150762 -0.684227,-0.231941 -0.382703,-0.09278 -0.892974,-0.09278 -1.948307,0 -3.223984,1.194498 -1.275677,1.182901 -1.275677,2.980446 v 11.272348 z"
         style="font-style:normal;font-variant:normal;font-weight:normal;font-stretch:normal;font-family:'Inter UI';-inkscape-font-specification:'Inter UI';stroke-width:0.81643343"
         id="path839"
         inkscape:connector-curvature="0" />
      <path
         d="m 76.77058,105.78887 q -2.574548,0 -4.441676,-1.13651 -1.85553,-1.14811 -2.864475,-3.20079 -0.997348,-2.064281 -0.997348,-4.801189 0,-2.736907 0.997348,-4.824379 1.008945,-2.099069 2.80649,-3.270373 1.809142,-1.182901 4.221332,-1.182901 1.391648,0 2.748504,0.463883 1.356857,0.463883 2.470175,1.507619 1.113319,1.032138 1.774352,2.736907 0.661032,1.704769 0.661032,4.198138 v 1.159707 H 71.215586 q 0.09278,2.852878 1.611992,4.372098 1.530813,1.51921 3.943002,1.51921 1.611993,0 2.771699,-0.69582 1.159707,-0.69583 1.681575,-2.08747 l 2.644131,0.74221 q -0.626242,2.01789 -2.504967,3.25877 -1.878724,1.24089 -4.592438,1.24089 z M 71.215586,95.07318 h 10.147432 q 0,-2.261428 -1.322065,-3.745852 -1.322066,-1.496022 -3.548702,-1.496022 -1.565604,0 -2.713714,0.730616 -1.148109,0.730615 -1.809142,1.936709 -0.661033,1.194498 -0.753809,2.574549 z"
         style="font-style:normal;font-variant:normal;font-weight:normal;font-stretch:normal;font-family:'Inter UI';-inkscape-font-specification:'Inter UI';stroke-width:0.81643343"
         id="path841"
         inkscape:connector-curvature="0" />
      <path
         d="M 91.046561,94.702074 V 105.41776 H 88.309654 V 87.60467 h 2.644131 v 2.783296 h 0.231941 q 0.626242,-1.356857 1.901919,-2.180249 1.275677,-0.834989 3.293566,-0.834989 2.702117,0 4.360499,1.658381 1.66998,1.65838 1.66998,5.067918 V 105.41776 H 99.674778 V 94.28458 q 0,-2.099069 -1.090124,-3.270373 -1.090124,-1.182901 -2.992043,-1.182901 -1.959904,0 -3.258775,1.275678 -1.287275,1.26408 -1.287275,3.59509 z"
         style="font-style:normal;font-variant:normal;font-weight:normal;font-stretch:normal;font-family:'Inter UI';-inkscape-font-specification:'Inter UI';stroke-width:0.81643343"
         id="path843"
         inkscape:connector-curvature="0" />
      <path
         d="m 114.68139,105.78887 q -2.50497,0 -4.31411,-1.1829 -1.80915,-1.1829 -2.7833,-3.25878 -0.97415,-2.075872 -0.97415,-4.743197 0,-2.713714 0.99734,-4.789588 1.00895,-2.087472 2.80649,-3.258776 1.80915,-1.182901 4.22134,-1.182901 1.87872,0 3.38634,0.695824 1.50762,0.695824 2.47018,1.948307 0.96255,1.252484 1.19449,2.922461 h -2.7369 q -0.31313,-1.217692 -1.39165,-2.157054 -1.06693,-0.95096 -2.87607,-0.95096 -2.4006,0 -3.87342,1.832337 -1.46124,1.820739 -1.46124,4.847573 0,3.096417 1.44964,4.963544 1.44963,1.85553 3.88502,1.85553 1.60039,0 2.7369,-0.82339 1.14811,-0.82339 1.53082,-2.28462 h 2.7369 q -0.23194,1.5772 -1.14811,2.84128 -0.90457,1.25248 -2.40059,1.99469 -1.48442,0.73062 -3.45592,0.73062 z"
         style="font-style:normal;font-variant:normal;font-weight:normal;font-stretch:normal;font-family:'Inter UI';-inkscape-font-specification:'Inter UI';stroke-width:0.81643343"
         id="path845"
         inkscape:connector-curvature="0" />
      <path
         d="m 127.35698,112.32961 q -0.69582,0 -1.24089,-0.11597 -0.54506,-0.10437 -0.7538,-0.20874 l 0.69582,-2.41219 q 1.49602,0.3827 2.49337,-0.0232 1.00894,-0.3943 1.72796,-2.38899 l 0.60305,-1.66998 -6.58713,-17.90587 h 2.96884 l 4.91716,14.19481 h 0.18555 l 4.91716,-14.19481 h 2.96885 l -7.65407,20.68917 q -1.50761,4.03577 -5.24187,4.03577 z"
         style="font-style:normal;font-variant:normal;font-weight:normal;font-stretch:normal;font-family:'Inter UI';-inkscape-font-specification:'Inter UI';stroke-width:0.81643343"
         id="path847"
         inkscape:connector-curvature="0" />
      <path
         d="m 159.77657,105.74248 q -2.34261,0 -4.03578,-0.85818 -1.69317,-0.85819 -2.60934,-2.35421 -0.91617,-1.49602 -0.91617,-3.421131 0,-2.157054 1.29887,-3.641479 1.31047,-1.496021 3.38635,-2.945654 -1.22929,-1.472828 -2.0063,-2.794893 -0.777,-1.333663 -0.777,-2.910864 0,-2.400592 1.5656,-3.885017 1.5772,-1.496021 4.18654,-1.496021 1.78595,0 3.07323,0.695824 1.28727,0.684227 1.98309,1.820739 0.69583,1.124915 0.69583,2.446981 0,1.704769 -0.84659,2.957252 -0.84658,1.252483 -2.30781,2.33101 l -1.73956,1.298871 5.16069,6.297207 q 0.46388,-0.892974 0.71902,-1.959904 0.26673,-1.078527 0.26673,-2.296219 h 2.64413 q 0,2.481772 -0.61464,4.012585 -0.60305,1.519213 -1.27568,2.377403 l 3.28197,4.00098 h -3.29357 l -1.68157,-2.01789 q -1.15971,1.1829 -2.84128,1.76276 -1.68158,0.57985 -3.31676,0.57985 z m 4.52285,-4.3257 -5.68256,-6.853871 q 0,0 0,0 l -0.88138,0.649436 q -1.60039,1.182901 -2.16865,2.296219 -0.56825,1.113318 -0.56825,1.600395 0,1.113321 0.57985,2.075871 0.57985,0.96256 1.63519,1.55401 1.05533,0.59145 2.47017,0.59145 2.58615,0 4.61563,-1.91351 z m -5.25347,-10.472155 1.56561,-1.159707 q 1.00894,-0.661033 1.61199,-1.414842 0.61464,-0.753809 0.61464,-1.971501 0,-0.904571 -0.80019,-1.751157 -0.7886,-0.846586 -2.07588,-0.846586 -0.90457,0 -1.60039,0.463883 -0.68423,0.452285 -1.07853,1.159706 -0.3827,0.695824 -0.3827,1.438037 0,0.98575 0.63783,2.006292 0.63784,1.008945 1.50762,2.075875 z"
         style="font-style:normal;font-variant:normal;font-weight:normal;font-stretch:normal;font-family:'Inter UI';-inkscape-font-specification:'Inter UI';stroke-width:0.81643343"
         id="path849"
         inkscape:connector-curvature="0" />
      <path
         d="m 8.0033524,135.13065 v -23.75079 h 8.3034986 q 2.481772,0 4.093764,0.85818 1.611992,0.84659 2.400593,2.28463 0.7886,1.42644 0.7886,3.166 0,1.53081 -0.545062,2.52816 -0.533465,0.99734 -1.414842,1.5772 -0.86978,0.57985 -1.890321,0.85818 v 0.23194 q 1.090124,0.0696 2.191845,0.76541 1.101721,0.69582 1.843933,1.99469 0.742213,1.29887 0.742213,3.1776 0,1.78595 -0.811795,3.21239 -0.811795,1.42644 -2.562952,2.26142 -1.751156,0.83499 -4.557646,0.83499 z m 2.8760716,-2.55135 h 5.705757 q 2.818087,0 4.000987,-1.09013 1.194498,-1.10172 1.194498,-2.66732 0,-1.2061 -0.614644,-2.22664 -0.614645,-1.03214 -1.751157,-1.64678 -1.136513,-0.62624 -2.69052,-0.62624 h -5.844921 z m 0,-10.76208 h 5.334651 q 1.948307,0 3.293566,-1.12491 1.34526,-1.12492 1.34526,-3.00364 0,-1.56561 -1.090124,-2.65573 -1.090125,-1.10172 -3.455926,-1.10172 h -5.427427 z"
         style="font-style:normal;font-variant:normal;font-weight:normal;font-stretch:normal;font-family:'Inter UI';-inkscape-font-specification:'Inter UI';stroke-width:0.81643343"
         id="path851"
         inkscape:connector-curvature="0" />
      <path
         d="m 31.60918,111.37986 v 23.75079 h -2.736908 v -23.75079 z"
         style="font-style:normal;font-variant:normal;font-weight:normal;font-stretch:normal;font-family:'Inter UI';-inkscape-font-specification:'Inter UI';stroke-width:0.81643343"
         id="path853"
         inkscape:connector-curvature="0" />
      <path
         d="m 43.826689,135.50176 q -2.412189,0 -4.232929,-1.14811 -1.809142,-1.14811 -2.829684,-3.21239 -1.008945,-2.06428 -1.008945,-4.82438 0,-2.78329 1.008945,-4.85917 1.020542,-2.07587 2.829684,-3.22398 1.82074,-1.14811 4.232929,-1.14811 2.41219,0 4.221332,1.14811 1.820739,1.14811 2.829684,3.22398 1.020542,2.07588 1.020542,4.85917 0,2.7601 -1.020542,4.82438 -1.008945,2.06428 -2.829684,3.21239 -1.809142,1.14811 -4.221332,1.14811 z m 0,-2.45858 q 1.832337,0 3.015237,-0.93936 1.182901,-0.93936 1.751157,-2.47018 0.568256,-1.53081 0.568256,-3.31676 0,-1.78595 -0.568256,-3.32836 -0.568256,-1.5424 -1.751157,-2.49336 -1.1829,-0.95096 -3.015237,-0.95096 -1.832336,0 -3.015237,0.95096 -1.182901,0.95096 -1.751157,2.49336 -0.568256,1.54241 -0.568256,3.32836 0,1.78595 0.568256,3.31676 0.568256,1.53082 1.751157,2.47018 1.182901,0.93936 3.015237,0.93936 z"
         style="font-style:normal;font-variant:normal;font-weight:normal;font-stretch:normal;font-family:'Inter UI';-inkscape-font-specification:'Inter UI';stroke-width:0.81643343"
         id="path855"
         inkscape:connector-curvature="0" />
      <path
         d="m 63.280768,135.50176 q -2.504966,0 -4.314109,-1.1829 -1.809142,-1.1829 -2.783295,-3.25878 -0.974154,-2.07587 -0.974154,-4.7432 0,-2.71371 0.997348,-4.78959 1.008944,-2.08747 2.80649,-3.25877 1.809142,-1.1829 4.221332,-1.1829 1.878724,0 3.386343,0.69582 1.507618,0.69583 2.470175,1.94831 0.962556,1.25248 1.194498,2.92246 h -2.736908 q -0.313121,-1.21769 -1.391648,-2.15705 -1.06693,-0.95096 -2.876072,-0.95096 -2.400593,0 -3.87342,1.83233 -1.46123,1.82074 -1.46123,4.84758 0,3.09641 1.449633,4.96354 1.449633,1.85553 3.885017,1.85553 1.600395,0 2.736907,-0.82339 1.14811,-0.82339 1.530813,-2.28462 h 2.736908 q -0.231942,1.5772 -1.14811,2.84128 -0.904571,1.25248 -2.400593,1.99469 -1.484424,0.73062 -3.455925,0.73062 z"
         style="font-style:normal;font-variant:normal;font-weight:normal;font-stretch:normal;font-family:'Inter UI';-inkscape-font-specification:'Inter UI';stroke-width:0.81643343"
         id="path857"
         inkscape:connector-curvature="0" />
      <path
         d="m 74.286383,135.13065 v -23.75079 h 2.736907 v 13.87009 h 0.324718 l 7.793228,-7.93239 h 3.386343 l -7.526495,7.60767 8.083154,10.20542 h -3.479119 l -6.668313,-8.44266 -1.913516,1.77435 v 6.66831 z"
         style="font-style:normal;font-variant:normal;font-weight:normal;font-stretch:normal;font-family:'Inter UI';-inkscape-font-specification:'Inter UI';stroke-width:0.81643343"
         id="path859"
         inkscape:connector-curvature="0" />
      <path
         d="m 98.55324,135.50176 q -2.504966,0 -4.314108,-1.1829 -1.809142,-1.1829 -2.783296,-3.25878 -0.974154,-2.07587 -0.974154,-4.7432 0,-2.71371 0.997348,-4.78959 1.008945,-2.08747 2.80649,-3.25877 1.809142,-1.1829 4.221332,-1.1829 1.878718,0 3.386338,0.69582 1.50762,0.69583 2.47018,1.94831 0.96255,1.25248 1.1945,2.92246 h -2.73691 q -0.31312,-1.21769 -1.39165,-2.15705 -1.06693,-0.95096 -2.87607,-0.95096 -2.400592,0 -3.87342,1.83233 -1.46123,1.82074 -1.46123,4.84758 0,3.09641 1.449633,4.96354 1.449633,1.85553 3.885017,1.85553 1.60039,0 2.73691,-0.82339 1.1481,-0.82339 1.53081,-2.28462 h 2.73691 q -0.23195,1.5772 -1.14811,2.84128 -0.90458,1.25248 -2.4006,1.99469 -1.48442,0.73062 -3.45592,0.73062 z"
         style="font-style:normal;font-variant:normal;font-weight:normal;font-stretch:normal;font-family:'Inter UI';-inkscape-font-specification:'Inter UI';stroke-width:0.81643343"
         id="path861"
         inkscape:connector-curvature="0" />
      <path
         d="m 112.29576,124.41496 v 10.71569 h -2.7369 v -23.75079 h 2.7369 v 8.721 h 0.23195 q 0.62624,-1.38006 1.87872,-2.19185 1.26408,-0.82339 3.36315,-0.82339 2.73691,0 4.40688,1.64678 1.66998,1.64678 1.66998,5.07952 v 11.31873 h -2.73691 v -11.13318 q 0,-2.12226 -1.10172,-3.28197 -1.09012,-1.1713 -3.02683,-1.1713 -2.02949,0 -3.36315,1.27567 -1.32207,1.26408 -1.32207,3.59509 z"
         style="font-style:normal;font-variant:normal;font-weight:normal;font-stretch:normal;font-family:'Inter UI';-inkscape-font-specification:'Inter UI';stroke-width:0.81643343"
         id="path863"
         inkscape:connector-curvature="0" />
      <path
         d="m 134.12724,135.54815 q -1.69317,0 -3.07322,-0.63784 -1.38006,-0.64944 -2.19185,-1.86713 -0.81179,-1.22929 -0.81179,-2.96885 0,-1.53081 0.60304,-2.48177 0.60305,-0.96256 1.61199,-1.50762 1.00895,-0.54506 2.22664,-0.81179 1.22929,-0.27833 2.47018,-0.44069 1.62359,-0.20875 2.63253,-0.31312 1.02054,-0.11597 1.48442,-0.38271 0.47548,-0.26673 0.47548,-0.92776 v -0.0928 q 0,-1.71636 -0.93936,-2.66732 -0.92776,-0.95096 -2.81809,-0.95096 -1.9599,0 -3.07322,0.85818 -1.11332,0.85818 -1.5656,1.83234 l -2.59774,-0.92777 q 0.69582,-1.62359 1.85553,-2.52816 1.1713,-0.91617 2.55135,-1.27568 1.39165,-0.3711 2.73691,-0.3711 0.85818,0 1.9715,0.20875 1.12492,0.19715 2.16865,0.82339 1.05533,0.62624 1.75116,1.89032 0.69582,1.26408 0.69582,3.38634 v 11.73623 h -2.73691 v -2.41219 h -0.13916 q -0.27833,0.57986 -0.92777,1.24089 -0.64943,0.66103 -1.72796,1.12491 -1.07853,0.46389 -2.63253,0.46389 z m 0.41749,-2.45858 q 1.62359,0 2.73691,-0.63784 1.12491,-0.63784 1.69317,-1.64678 0.57985,-1.00895 0.57985,-2.12227 v -2.50496 q -0.17395,0.20875 -0.7654,0.3827 -0.57986,0.16236 -1.34526,0.28993 -0.75381,0.11597 -1.47283,0.20874 -0.70742,0.0812 -1.14811,0.13917 -1.06693,0.13916 -1.99469,0.45229 -0.91617,0.30152 -1.48443,0.91616 -0.55666,0.60305 -0.55666,1.64679 0,1.42644 1.05534,2.15705 1.06693,0.71902 2.70211,0.71902 z"
         style="font-style:normal;font-variant:normal;font-weight:normal;font-stretch:normal;font-family:'Inter UI';-inkscape-font-specification:'Inter UI';stroke-width:0.81643343"
         id="path865"
         inkscape:connector-curvature="0" />
      <path
         d="m 147.3189,135.13065 v -17.81309 h 2.73691 v 17.81309 z m 1.39165,-20.73555 q -0.8002,0 -1.38005,-0.54506 -0.56826,-0.54507 -0.56826,-1.31047 0,-0.76541 0.56826,-1.31047 0.57985,-0.54506 1.38005,-0.54506 0.8002,0 1.36846,0.54506 0.57985,0.54506 0.57985,1.31047 0,0.7654 -0.57985,1.31047 -0.56826,0.54506 -1.36846,0.54506 z"
         style="font-style:normal;font-variant:normal;font-weight:normal;font-stretch:normal;font-family:'Inter UI';-inkscape-font-specification:'Inter UI';stroke-width:0.81643343"
         id="path867"
         inkscape:connector-curvature="0" />
      <path
         d="m 157.77366,124.41496 v 10.71569 h -2.73691 v -17.81309 h 2.64414 v 2.7833 h 0.23194 q 0.62624,-1.35686 1.90192,-2.18025 1.27568,-0.83499 3.29356,-0.83499 2.70212,0 4.3605,1.65838 1.66998,1.65838 1.66998,5.06792 v 11.31873 h -2.73691 v -11.13318 q 0,-2.09907 -1.09012,-3.27037 -1.09013,-1.1829 -2.99205,-1.1829 -1.9599,0 -3.25877,1.27567 -1.28728,1.26408 -1.28728,3.59509 z"
         style="font-style:normal;font-variant:normal;font-weight:normal;font-stretch:normal;font-family:'Inter UI';-inkscape-font-specification:'Inter UI';stroke-width:0.81643343"
         id="path869"
         inkscape:connector-curvature="0" />
    </g>
  </g>
</svg>
