<?xml version="1.0" encoding="UTF-8" standalone="no"?>
<!-- Created with Inkscape (http://www.inkscape.org/) -->

<svg
   xmlns:dc="http://purl.org/dc/elements/1.1/"
   xmlns:cc="http://creativecommons.org/ns#"
   xmlns:rdf="http://www.w3.org/1999/02/22-rdf-syntax-ns#"
   xmlns:svg="http://www.w3.org/2000/svg"
   xmlns="http://www.w3.org/2000/svg"
   xmlns:sodipodi="http://sodipodi.sourceforge.net/DTD/sodipodi-0.dtd"
   xmlns:inkscape="http://www.inkscape.org/namespaces/inkscape"
   width="1067.3771"
   height="88.477158"
   viewBox="0 0 282.41018 23.409582"
   version="1.1"
   id="svg8"
   inkscape:version="0.92.4 5da689c313, 2019-01-14"
   sodipodi:docname="jaksonkalliocom-logo.svg">
  <defs
     id="defs2" />
  <sodipodi:namedview
     id="base"
     pagecolor="#ffffff"
     bordercolor="#666666"
     borderopacity="1.0"
     inkscape:pageopacity="0.0"
     inkscape:pageshadow="2"
     inkscape:zoom="0.35"
     inkscape:cx="-108.6343"
     inkscape:cy="-153.80566"
     inkscape:document-units="mm"
     inkscape:current-layer="layer1"
     showgrid="false"
     units="px"
     fit-margin-top="0"
     fit-margin-left="0"
     fit-margin-right="0"
     fit-margin-bottom="0"
     inkscape:window-width="2560"
     inkscape:window-height="1376"
     inkscape:window-x="0"
     inkscape:window-y="27"
     inkscape:window-maximized="1" />
  <metadata
     id="metadata5">
    <rdf:RDF>
      <cc:Work
         rdf:about="">
        <dc:format>image/svg+xml</dc:format>
        <dc:type
           rdf:resource="http://purl.org/dc/dcmitype/StillImage" />
        <dc:title></dc:title>
      </cc:Work>
    </rdf:RDF>
  </metadata>
  <g
     inkscape:label="Layer 1"
     inkscape:groupmode="layer"
     id="layer1"
     transform="translate(16.614318,-87.753139)">
    <g
       aria-label="JaksonKallio.com"
       style="font-style:normal;font-variant:normal;font-weight:normal;font-stretch:normal;font-size:29.8211174px;line-height:1.25;font-family:'Fira Code';-inkscape-font-specification:'Fira Code';letter-spacing:0px;word-spacing:0px;fill:#23074d;fill-opacity:1;stroke:none;stroke-width:0.74552792"
       id="text817">
      <path
         d="m -3.9701644,103.97583 q 0,3.01193 -1.6699826,5.09941 -1.6401614,2.08748 -5.367801,2.08748 -1.520877,0 -2.982112,-0.47714 -1.431413,-0.47714 -2.624258,-1.40159 l 1.133202,-1.69981 q 2.236584,1.40159 4.443347,1.40159 2.1471202,0 3.3101438,-1.34195 1.1630236,-1.37177 1.1630236,-3.78728 V 92.375412 H -12.64811 v -2.117299 h 8.6779456 z"
         style="fill:#23074d;fill-opacity:1;stroke-width:0.74552792"
         id="path819"
         inkscape:connector-curvature="0" />
      <path
         d="m 13.344256,107.37543 q 0,0.92446 0.298211,1.37178 0.298211,0.41749 0.984097,0.62624 l -0.626244,1.78927 q -2.296226,-0.29821 -2.862827,-2.23659 -0.834991,1.07356 -2.1172992,1.64016 -1.2524869,0.56661 -2.803185,0.56661 -2.3558683,0 -3.7276397,-1.31213 -1.3419503,-1.31213 -1.3419503,-3.5189 0,-2.41551 1.8787304,-3.72764 1.9085515,-1.31212 5.4572645,-1.31212 h 2.3260473 v -1.282313 q 0,-1.669982 -0.9542759,-2.385689 -0.9542757,-0.745528 -2.7733639,-0.745528 -1.789267,0 -4.0854931,0.80517 L 2.3104424,95.745199 q 2.7733639,-0.984097 5.1590533,-0.984097 2.8628273,0 4.3538833,1.34195 1.520877,1.34195 1.520877,3.72764 z m -6.5010037,1.87873 q 1.1630235,0 2.2067626,-0.59642 1.0735601,-0.59642 1.7594461,-1.64016 v -4.02585 H 8.543056 q -2.5049739,0 -3.6083553,0.83499 -1.1033813,0.83499 -1.1033813,2.44533 0,2.98211 3.0119329,2.98211 z"
         style="fill:#23074d;fill-opacity:1;stroke-width:0.74552792"
         id="path821"
         inkscape:connector-curvature="0" />
      <path
         d="M 22.636796,88.468846 V 110.80486 H 20.131822 V 88.767057 Z m 10.467212,6.620288 -7.037784,7.097426 7.872775,8.6183 h -3.310144 l -7.723669,-8.58848 6.978141,-7.127246 z"
         style="fill:#23074d;fill-opacity:1;stroke-width:0.74552792"
         id="path823"
         inkscape:connector-curvature="0" />
      <path
         d="m 43.20172,109.07524 q 1.789267,0 2.833006,-0.68589 1.043739,-0.68588 1.043739,-1.81909 0,-0.77534 -0.26839,-1.25248 -0.26839,-0.50696 -1.073561,-0.89464 -0.80517,-0.41749 -2.445331,-0.83499 -2.743543,-0.68588 -4.055672,-1.64016 -1.312129,-0.9841 -1.312129,-2.892647 0,-1.968194 1.640161,-3.131218 1.640162,-1.163023 4.324062,-1.163023 3.280323,0 5.725655,1.729625 l -1.133203,1.729624 Q 47.49596,97.534466 46.4224,97.176612 q -1.07356,-0.387674 -2.475153,-0.387674 -3.399607,0 -3.399607,2.057657 0,0.715707 0.357853,1.163025 0.387675,0.44732 1.222666,0.80517 0.864813,0.32803 2.564616,0.80517 2.564616,0.68588 3.817103,1.75944 1.282308,1.04374 1.282308,3.07158 0,2.35587 -1.908551,3.51889 -1.908552,1.16303 -4.681915,1.16303 -3.697819,0 -6.143151,-2.1173 l 1.401593,-1.64017 q 0.954276,0.77535 2.176941,1.25249 1.222666,0.44732 2.564617,0.44732 z"
         style="fill:#23074d;fill-opacity:1;stroke-width:0.74552792"
         id="path825"
         inkscape:connector-curvature="0" />
      <path
         d="m 61.708983,94.761102 q 3.250501,0 4.980126,2.206763 1.759446,2.176941 1.759446,5.964225 0,3.69782 -1.789267,5.96422 -1.759446,2.23659 -4.980127,2.23659 -3.250501,0 -5.009947,-2.17695 -1.759446,-2.20676 -1.759446,-5.99404 0,-3.727641 1.759446,-5.964224 1.789267,-2.236584 5.039769,-2.236584 z m 0,2.057657 q -2.057658,0 -3.071576,1.520877 -1.013918,1.520877 -1.013918,4.622274 0,3.1014 0.984097,4.62227 1.013918,1.49106 3.071575,1.49106 2.057658,0 3.041754,-1.49106 1.013918,-1.52087 1.013918,-4.65209 0,-3.101398 -1.013918,-4.592454 -0.984096,-1.520877 -3.011932,-1.520877 z"
         style="fill:#23074d;fill-opacity:1;stroke-width:0.74552792"
         id="path827"
         inkscape:connector-curvature="0" />
      <path
         d="m 73.595958,95.089134 h 2.14712 l 0.208748,2.206763 q 0.924454,-1.192845 2.326047,-1.848909 1.431414,-0.685886 2.862827,-0.685886 4.413526,0 4.413526,4.652094 v 11.391664 h -2.504974 v -9.54275 q 0,-1.759451 -0.208748,-2.683905 -0.178927,-0.924455 -0.745528,-1.371772 -0.566601,-0.447316 -1.729625,-0.447316 -1.282308,0 -2.41551,0.775349 -1.133203,0.775349 -1.84891,1.848909 v 11.421485 h -2.504973 z"
         style="fill:#23074d;fill-opacity:1;stroke-width:0.74552792"
         id="path829"
         inkscape:connector-curvature="0" />
      <path
         d="M 94.220528,110.80486 H 91.62609 V 90.258113 h 2.594438 z m 0.149105,-10.974168 8.051697,-9.572579 h 3.01194 l -8.021883,9.423473 8.588483,11.123274 h -3.2505 z"
         style="fill:#23074d;fill-opacity:1;stroke-width:0.74552792"
         id="path831"
         inkscape:connector-curvature="0" />
      <path
         d="m 120.63039,107.37543 q 0,0.92446 0.29821,1.37178 0.29821,0.41749 0.98409,0.62624 l -0.62624,1.78927 q -2.29622,-0.29821 -2.86283,-2.23659 -0.83499,1.07356 -2.1173,1.64016 -1.25248,0.56661 -2.80318,0.56661 -2.35587,0 -3.72764,-1.31213 -1.34195,-1.31213 -1.34195,-3.5189 0,-2.41551 1.87873,-3.72764 1.90855,-1.31212 5.45726,-1.31212 h 2.32605 v -1.282313 q 0,-1.669982 -0.95427,-2.385689 -0.95428,-0.745528 -2.77337,-0.745528 -1.78926,0 -4.08549,0.80517 l -0.68589,-1.908551 q 2.77337,-0.984097 5.15906,-0.984097 2.86282,0 4.35388,1.34195 1.52088,1.34195 1.52088,3.72764 z m -6.50101,1.87873 q 1.16303,0 2.20677,-0.59642 1.07356,-0.59642 1.75944,-1.64016 v -4.02585 h -2.2664 q -2.50498,0 -3.60836,0.83499 -1.10338,0.83499 -1.10338,2.44533 0,2.98211 3.01193,2.98211 z"
         style="fill:#23074d;fill-opacity:1;stroke-width:0.74552792"
         id="path833"
         inkscape:connector-curvature="0" />
      <path
         d="m 133.38217,106.92812 q 0,2.1173 2.59444,2.1173 1.22267,0 2.62426,-0.53678 l 0.65606,1.81909 q -1.49105,0.80517 -3.72764,0.80517 -2.11729,0 -3.3996,-1.16303 -1.25249,-1.16302 -1.25249,-3.16104 V 90.765072 h -4.83102 v -1.998015 h 7.33599 z"
         style="fill:#23074d;fill-opacity:1;stroke-width:0.74552792"
         id="path835"
         inkscape:connector-curvature="0" />
      <path
         d="m 151.2632,106.92812 q 0,2.1173 2.59444,2.1173 1.22266,0 2.62426,-0.53678 l 0.65606,1.81909 q -1.49105,0.80517 -3.72764,0.80517 -2.1173,0 -3.39961,-1.16303 -1.25248,-1.16302 -1.25248,-3.16104 V 90.765072 h -4.83102 v -1.998015 h 7.33599 z"
         style="fill:#23074d;fill-opacity:1;stroke-width:0.74552792"
         id="path837"
         inkscape:connector-curvature="0" />
      <path
         d="m 168.96529,87.753139 q 0.83499,0 1.34195,0.506959 0.50696,0.477138 0.50696,1.252487 0,0.775349 -0.50696,1.282308 -0.50696,0.477138 -1.34195,0.477138 -0.80517,0 -1.31213,-0.477138 -0.47714,-0.506959 -0.47714,-1.282308 0,-0.775349 0.47714,-1.252487 0.50696,-0.506959 1.31213,-0.506959 z m 1.99801,7.335995 v 13.717716 h 4.41353 v 1.99801 h -11.74952 v -1.99801 h 4.83102 V 97.087149 h -4.68192 v -1.998015 z"
         style="fill:#23074d;fill-opacity:1;stroke-width:0.74552792"
         id="path839"
         inkscape:connector-curvature="0" />
      <path
         d="m 186.87613,94.761102 q 3.25051,0 4.98013,2.206763 1.75945,2.176941 1.75945,5.964225 0,3.69782 -1.78927,5.96422 -1.75945,2.23659 -4.98013,2.23659 -3.2505,0 -5.00994,-2.17695 -1.75945,-2.20676 -1.75945,-5.99404 0,-3.727641 1.75945,-5.964224 1.78926,-2.236584 5.03976,-2.236584 z m 0,2.057657 q -2.05765,0 -3.07157,1.520877 -1.01392,1.520877 -1.01392,4.622274 0,3.1014 0.9841,4.62227 1.01392,1.49106 3.07157,1.49106 2.05766,0 3.04176,-1.49106 1.01392,-1.52087 1.01392,-4.65209 0,-3.101398 -1.01392,-4.592454 -0.9841,-1.520877 -3.01194,-1.520877 z"
         style="fill:#23074d;fill-opacity:1;stroke-width:0.74552792"
         id="path841"
         inkscape:connector-curvature="0" />
      <path
         d="m 202.07326,108.50864 q 0,-1.10338 0.74553,-1.84891 0.77535,-0.77535 1.87873,-0.77535 1.1332,0 1.87873,0.77535 0.74553,0.74553 0.74553,1.84891 0,1.1332 -0.74553,1.87873 -0.74553,0.74553 -1.87873,0.74553 -1.10338,0 -1.87873,-0.74553 -0.74553,-0.77535 -0.74553,-1.87873 z"
         style="fill:#23074d;fill-opacity:1;stroke-width:0.74552792"
         id="path843"
         inkscape:connector-curvature="0" />
      <path
         d="m 223.77138,108.98577 q 2.05765,0 4.08549,-1.37177 l 1.19284,1.64016 q -0.98409,0.86482 -2.44533,1.37178 -1.46123,0.50696 -2.833,0.50696 -3.48907,0 -5.45727,-2.17695 -1.93837,-2.20676 -1.93837,-5.9344 0,-2.35587 0.86481,-4.234597 0.89464,-1.878731 2.56462,-2.952291 1.66998,-1.07356 3.96621,-1.07356 3.04175,0 5.24851,1.848909 l -1.22266,1.640162 q -2.05766,-1.371772 -4.05567,-1.371772 -2.1173,0 -3.39961,1.580519 -1.25249,1.5507 -1.25249,4.56263 0,3.01193 1.25249,4.50299 1.28231,1.46123 3.42943,1.46123 z"
         style="fill:#23074d;fill-opacity:1;stroke-width:0.74552792"
         id="path845"
         inkscape:connector-curvature="0" />
      <path
         d="m 240.5192,94.761102 q 3.2505,0 4.98013,2.206763 1.75944,2.176941 1.75944,5.964225 0,3.69782 -1.78926,5.96422 -1.75945,2.23659 -4.98013,2.23659 -3.2505,0 -5.00995,-2.17695 -1.75944,-2.20676 -1.75944,-5.99404 0,-3.727641 1.75944,-5.964224 1.78927,-2.236584 5.03977,-2.236584 z m 0,2.057657 q -2.05766,0 -3.07157,1.520877 -1.01392,1.520877 -1.01392,4.622274 0,3.1014 0.9841,4.62227 1.01391,1.49106 3.07157,1.49106 2.05766,0 3.04175,-1.49106 1.01392,-1.52087 1.01392,-4.65209 0,-3.101398 -1.01392,-4.592454 -0.98409,-1.520877 -3.01193,-1.520877 z"
         style="fill:#23074d;fill-opacity:1;stroke-width:0.74552792"
         id="path847"
         inkscape:connector-curvature="0" />
      <path
         d="m 262.75411,94.761102 q 1.34195,0 2.17694,0.954276 0.86482,0.924454 0.86482,3.399607 v 11.689875 h -2.29623 V 99.532481 q 0,-1.640162 -0.20875,-2.206763 -0.20875,-0.596422 -1.01392,-0.596422 -1.52087,0 -2.74354,1.87873 v 12.196834 h -2.32605 V 99.532481 q 0,-1.640162 -0.20874,-2.206763 -0.20875,-0.596422 -1.01392,-0.596422 -1.52088,0 -2.74354,1.87873 v 12.196834 h -2.29623 V 95.089134 h 1.93837 l 0.17893,1.848909 q 0.71571,-1.043739 1.49105,-1.61034 0.80517,-0.566601 1.90856,-0.566601 2.20676,0 2.833,2.087478 0.71571,-1.013918 1.52088,-1.550698 0.80517,-0.53678 1.93837,-0.53678 z"
         style="fill:#23074d;fill-opacity:1;stroke-width:0.74552792"
         id="path849"
         inkscape:connector-curvature="0" />
    </g>
  </g>
</svg>
