<?xml version="1.0" encoding="UTF-8" standalone="no"?>
<svg
   xmlns:dc="http://purl.org/dc/elements/1.1/"
   xmlns:cc="http://creativecommons.org/ns#"
   xmlns:rdf="http://www.w3.org/1999/02/22-rdf-syntax-ns#"
   xmlns:svg="http://www.w3.org/2000/svg"
   xmlns="http://www.w3.org/2000/svg"
   xmlns:sodipodi="http://sodipodi.sourceforge.net/DTD/sodipodi-0.dtd"
   xmlns:inkscape="http://www.inkscape.org/namespaces/inkscape"
   width="289px"
   height="58px"
   viewBox="0 0 289 58"
   version="1.1"
   id="svg927"
   sodipodi:docname="verse-logo.svg"
   inkscape:version="0.92.4 5da689c313, 2019-01-14">
  <metadata
     id="metadata933">
    <rdf:RDF>
      <cc:Work
         rdf:about="">
        <dc:format>image/svg+xml</dc:format>
        <dc:type
           rdf:resource="http://purl.org/dc/dcmitype/StillImage" />
      </cc:Work>
    </rdf:RDF>
  </metadata>
  <defs
     id="defs931" />
  <sodipodi:namedview
     pagecolor="#ffffff"
     bordercolor="#666666"
     borderopacity="1"
     objecttolerance="10"
     gridtolerance="10"
     guidetolerance="10"
     inkscape:pageopacity="0"
     inkscape:pageshadow="2"
     inkscape:window-width="2560"
     inkscape:window-height="1376"
     id="namedview929"
     showgrid="false"
     inkscape:zoom="2.4002483"
     inkscape:cx="42.751093"
     inkscape:cy="2.8293714"
     inkscape:window-x="0"
     inkscape:window-y="27"
     inkscape:window-maximized="1"
     inkscape:current-layer="svg927" />
  <!-- Generator: Sketch 53.2 (72643) - https://sketchapp.com -->
  <title
     id="title920">VERSE</title>
  <desc
     id="desc922">Created with Sketch.</desc>
  <g
     id="Page-1"
     stroke="none"
     stroke-width="1"
     fill="none"
     fill-rule="evenodd"
     style="fill:#2f3542;fill-opacity:1">
    <g
       id="Home"
       transform="translate(-213.000000, -360.000000)"
       fill="#FFFFFF"
       fill-rule="nonzero"
       style="fill:#2f3542;fill-opacity:1">
      <path
         d="M213.08,361.568 L228.416,361.568 L243.176,402.464 L257.288,361.568 L271.4,361.568 L251.456,416 L233.744,416 L213.08,361.568 Z M278.528,361.568 L325.544,361.568 L325.544,372.296 L292.64,372.296 L292.64,382.664 L317.264,382.664 L317.264,393.392 L292.64,393.392 L292.64,405.056 L326.84,405.056 L326.84,416 L278.528,416 L278.528,361.568 Z M365.504,385.112 C368.335999,385.112 370.328,384.560001 371.48,383.456 C372.632,382.351999 373.208,380.792 373.208,378.776 C373.208,376.808001 372.619999,375.380003 371.444,374.492 C370.268001,373.604001 368.312,373.16 365.576,373.16 L350.096,373.16 L350.096,385.112 L365.504,385.112 Z M350.096,416 L335.984,416 L335.984,361.568 L366.584,361.568 C373.784,361.568 379.016001,362.948001 382.28,365.708 C385.543999,368.467999 387.176,372.463999 387.176,377.696 C387.176,379.808001 386.911999,381.62 386.384,383.132 C385.856001,384.644 385.148003,385.928001 384.26,386.984 C383.372001,388.039999 382.340003,388.903999 381.164,389.576 C379.988001,390.248001 378.728001,390.776001 377.384,391.16 C378.968,391.544001 380.384001,392.216001 381.632,393.176 C382.879999,394.136001 383.743999,395.240001 384.224,396.488 C384.607999,397.496 384.908,398.6 385.124,399.8 C385.34,401 385.507999,402.236001 385.628,403.508 C385.748001,404.78 385.856001,406.064 385.952,407.36 C386.047999,408.656 386.168,409.904001 386.312,411.104 C386.6,413.552 387.032,415.016 387.608,415.496 L387.608,416 L373.208,416 C373.112001,415.568 373.016003,415.088 372.92,414.56 C372.824001,414.032 372.728003,413.347999 372.632,412.508 C372.536001,411.668001 372.440003,410.647999 372.344,409.448 C372.248001,408.248001 372.176001,406.784 372.128,405.056 C372.032001,401.84 371.240001,399.595999 369.752,398.324 C368.263999,397.052001 365.815999,396.416 362.408,396.416 L350.096,396.416 L350.096,416 Z M419.936,417.296 C416.527999,417.296 413.431999,417.044 410.648,416.54 C407.864,416.036 405.331999,415.328 403.052,414.416 C400.772,413.504001 398.732,412.4 396.932,411.104 C395.132,409.808 393.487999,408.368 392,406.784 L401.288,398.504 C403.208,400.76 405.692,402.583999 408.74,403.976 C411.788001,405.368 415.448001,406.064 419.72,406.064 C423.608,406.064 426.368001,405.656 428,404.84 C429.632001,404.024 430.448,402.728 430.448,400.952 C430.448,399.992 430.255999,399.2 429.872,398.576 C429.488001,397.952 428.804001,397.435999 427.82,397.028 C426.836001,396.620001 425.528001,396.272 423.896,395.984 C422.264001,395.696 420.224,395.383999 417.776,395.048 C415.087999,394.663999 412.34,394.184 409.532,393.608 C406.724,393.032 404.168,392.120001 401.864,390.872 C399.56,389.623999 397.676001,387.956 396.212,385.868 C394.747999,383.78 394.016,381.032001 394.016,377.624 C394.016,374.695999 394.58,372.163997 395.708,370.028 C396.835999,367.891999 398.419999,366.127999 400.46,364.736 C402.5,363.344001 404.96,362.300001 407.84,361.604 C410.72,360.907999 413.935999,360.56 417.488,360.56 C423.583999,360.56 428.612,361.364001 432.572,362.972 C436.532,364.579999 439.928001,366.896 442.76,369.92 L434.048,378.2 C433.423999,377.431999 432.644,376.639999 431.708,375.824 C430.772,375.008001 429.643999,374.288001 428.324,373.664 C427.003999,373.039999 425.491999,372.523997 423.788,372.116 C422.084001,371.707999 420.152,371.504 417.992,371.504 C414.248,371.504 411.572001,371.887999 409.964,372.656 C408.356,373.424001 407.552,374.672 407.552,376.4 C407.552,377.312001 407.756,378.068001 408.164,378.668 C408.572,379.268001 409.292001,379.772001 410.324,380.18 C411.356001,380.587999 412.724001,380.936 414.428,381.224 C416.131999,381.512 418.28,381.8 420.872,382.088 C423.655999,382.423999 426.452,382.903999 429.26,383.528 C432.068,384.151999 434.588,385.112 436.82,386.408 C439.052,387.704 440.864001,389.396 442.256,391.484 C443.647999,393.572 444.344,396.272 444.344,399.584 C444.344,405.584001 442.376001,410.036 438.44,412.94 C434.503999,415.844 428.335997,417.296 419.936,417.296 Z M452.768,361.568 L499.784,361.568 L499.784,372.296 L466.88,372.296 L466.88,382.664 L491.504,382.664 L491.504,393.392 L466.88,393.392 L466.88,405.056 L501.08,405.056 L501.08,416 L452.768,416 L452.768,361.568 Z"
         id="VERSE"
         style="fill:#2f3542;fill-opacity:1" />
    </g>
  </g>
</svg>
