<?xml version="1.0" encoding="UTF-8" standalone="no"?>
<!-- Created with Inkscape (http://www.inkscape.org/) -->

<svg
   xmlns:dc="http://purl.org/dc/elements/1.1/"
   xmlns:cc="http://creativecommons.org/ns#"
   xmlns:rdf="http://www.w3.org/1999/02/22-rdf-syntax-ns#"
   xmlns:svg="http://www.w3.org/2000/svg"
   xmlns="http://www.w3.org/2000/svg"
   xmlns:sodipodi="http://sodipodi.sourceforge.net/DTD/sodipodi-0.dtd"
   xmlns:inkscape="http://www.inkscape.org/namespaces/inkscape"
   width="549.58374"
   height="116.16754"
   viewBox="0 0 145.4107 30.735996"
   version="1.1"
   id="svg8"
   inkscape:version="0.92.4 5da689c313, 2019-01-14"
   sodipodi:docname="email.svg"
   inkscape:export-filename="/home/jak/code/jaksonkallio-com/frontend/assets/img/email.png"
   inkscape:export-xdpi="96"
   inkscape:export-ydpi="96">
  <defs
     id="defs2" />
  <sodipodi:namedview
     id="base"
     pagecolor="#ffffff"
     bordercolor="#666666"
     borderopacity="1.0"
     inkscape:pageopacity="0.0"
     inkscape:pageshadow="2"
     inkscape:zoom="2.8"
     inkscape:cx="368.35066"
     inkscape:cy="64.130765"
     inkscape:document-units="mm"
     inkscape:current-layer="layer1"
     showgrid="false"
     fit-margin-top="0"
     fit-margin-left="0"
     fit-margin-bottom="0"
     fit-margin-right="0"
     units="px"
     inkscape:window-width="2560"
     inkscape:window-height="1376"
     inkscape:window-x="0"
     inkscape:window-y="27"
     inkscape:window-maximized="1" />
  <metadata
     id="metadata5">
    <rdf:RDF>
      <cc:Work
         rdf:about="">
        <dc:format>image/svg+xml</dc:format>
        <dc:type
           rdf:resource="http://purl.org/dc/dcmitype/StillImage" />
        <dc:title></dc:title>
      </cc:Work>
    </rdf:RDF>
  </metadata>
  <g
     inkscape:label="Layer 1"
     inkscape:groupmode="layer"
     id="layer1"
     transform="translate(6.6145835,-133.57092)">
    <rect
       style="opacity:1;fill:#ffffff;fill-opacity:1;stroke:none;stroke-width:0.55634153;stroke-linecap:butt;stroke-linejoin:round;stroke-miterlimit:4;stroke-dasharray:none;stroke-dashoffset:0;stroke-opacity:1;paint-order:stroke fill markers"
       id="rect955"
       width="145.41071"
       height="30.735996"
       x="-6.6145835"
       y="133.57092"
       ry="1.3962365" />
    <g
       aria-label="To prevent spam, this email address is an image:"
       style="font-style:normal;font-variant:normal;font-weight:normal;font-stretch:normal;font-size:5.7943511px;line-height:1.25;font-family:'Inter UI';-inkscape-font-specification:'Inter UI';letter-spacing:0px;word-spacing:0px;fill:#000000;fill-opacity:1;stroke:none;stroke-width:0.14485878"
       id="text817"
       transform="translate(-2.0230317)">
      <path
         d="m 2.0230317,140.81426 v -0.45268 h 3.1605552 v 0.45268 H 3.8584583 v 3.76139 h -0.510298 v -3.76139 z"
         style="font-style:normal;font-variant:normal;font-weight:normal;font-stretch:normal;font-family:'Inter UI';-inkscape-font-specification:'Inter UI';stroke-width:0.14485878"
         id="path831"
         inkscape:connector-curvature="0" />
      <path
         d="m 6.7309419,144.6415 q -0.4279919,0 -0.7510434,-0.20371 -0.3209939,-0.20371 -0.5020673,-0.56997 -0.1790159,-0.36626 -0.1790159,-0.85598 0,-0.49384 0.1790159,-0.86216 0.1810734,-0.36832 0.5020673,-0.57203 0.3230515,-0.20371 0.7510434,-0.20371 0.4279918,0 0.7489857,0.20371 0.3230515,0.20371 0.5020674,0.57203 0.1810734,0.36832 0.1810734,0.86216 0,0.48972 -0.1810734,0.85598 -0.1790159,0.36626 -0.5020674,0.56997 -0.3209939,0.20371 -0.7489857,0.20371 z m 0,-0.43622 q 0.3251092,0 0.5349898,-0.16667 0.2098806,-0.16667 0.3107056,-0.43828 0.100825,-0.27161 0.100825,-0.58849 0,-0.31688 -0.100825,-0.59055 -0.100825,-0.27367 -0.3107056,-0.4424 -0.2098806,-0.16872 -0.5349898,-0.16872 -0.3251092,0 -0.5349898,0.16872 -0.2098806,0.16873 -0.3107056,0.4424 -0.100825,0.27367 -0.100825,0.59055 0,0.31688 0.100825,0.58849 0.100825,0.27161 0.3107056,0.43828 0.2098806,0.16667 0.5349898,0.16667 z"
         style="font-style:normal;font-variant:normal;font-weight:normal;font-stretch:normal;font-family:'Inter UI';-inkscape-font-specification:'Inter UI';stroke-width:0.14485878"
         id="path833"
         inkscape:connector-curvature="0" />
      <path
         d="m 10.52834,145.76086 v -4.34576 h 0.469145 v 0.50207 h 0.05761 q 0.0535,-0.0823 0.148152,-0.20989 0.09671,-0.12963 0.275725,-0.23045 0.181073,-0.10289 0.489721,-0.10289 0.399185,0 0.703718,0.1996 0.304532,0.19959 0.475318,0.56585 0.170785,0.36626 0.170785,0.86422 0,0.50206 -0.170785,0.87038 -0.170786,0.36627 -0.473261,0.56792 -0.302475,0.19959 -0.697544,0.19959 -0.304533,0 -0.487664,-0.10083 -0.183131,-0.10288 -0.281898,-0.23251 -0.09877,-0.13169 -0.152267,-0.21811 h -0.04115 v 1.67081 z m 0.477376,-2.76548 q 0,0.53704 0.232515,0.8745 0.234572,0.3354 0.672852,0.3354 0.304533,0 0.50824,-0.1605 0.205766,-0.16256 0.308648,-0.43622 0.104941,-0.27573 0.104941,-0.61318 0,-0.33334 -0.102883,-0.60084 -0.100825,-0.26955 -0.30659,-0.42593 -0.203708,-0.15844 -0.512356,-0.15844 -0.444453,0 -0.67491,0.32716 -0.230457,0.32717 -0.230457,0.85805 z"
         style="font-style:normal;font-variant:normal;font-weight:normal;font-stretch:normal;font-family:'Inter UI';-inkscape-font-specification:'Inter UI';stroke-width:0.14485878"
         id="path835"
         inkscape:connector-curvature="0" />
      <path
         d="m 14.059274,144.57565 v -3.16055 h 0.469145 v 0.47737 h 0.03292 q 0.08436,-0.23457 0.310706,-0.38066 0.226341,-0.1461 0.512355,-0.1461 0.13169,0 0.230457,0.0309 0.09877,0.0309 0.172843,0.0844 l -0.164612,0.41153 q -0.05144,-0.0267 -0.121402,-0.0412 -0.0679,-0.0165 -0.158439,-0.0165 -0.345686,0 -0.572027,0.21194 -0.226342,0.20988 -0.226342,0.52881 v 2.00004 z"
         style="font-style:normal;font-variant:normal;font-weight:normal;font-stretch:normal;font-family:'Inter UI';-inkscape-font-specification:'Inter UI';stroke-width:0.14485878"
         id="path837"
         inkscape:connector-curvature="0" />
      <path
         d="m 17.500698,144.6415 q -0.456799,0 -0.788081,-0.20165 -0.329225,-0.20371 -0.50824,-0.56791 -0.176959,-0.36627 -0.176959,-0.85187 0,-0.48561 0.176959,-0.85599 0.179015,-0.37243 0.497952,-0.58025 0.320994,-0.20989 0.748985,-0.20989 0.246919,0 0.487664,0.0823 0.240746,0.0823 0.43828,0.2675 0.197535,0.18313 0.314821,0.4856 0.117286,0.30248 0.117286,0.74487 v 0.20577 h -2.294283 q 0.01646,0.50618 0.286014,0.77573 0.27161,0.26956 0.699602,0.26956 0.286014,0 0.491779,-0.12346 0.205765,-0.12346 0.29836,-0.37038 l 0.469145,0.13169 q -0.111114,0.35803 -0.444453,0.5782 -0.33334,0.22017 -0.814831,0.22017 z m -0.985616,-1.90127 h 1.800447 q 0,-0.40125 -0.234573,-0.66463 -0.234572,-0.26543 -0.629642,-0.26543 -0.277783,0 -0.48149,0.12963 -0.203708,0.12963 -0.320994,0.34363 -0.117287,0.21194 -0.133748,0.4568 z"
         style="font-style:normal;font-variant:normal;font-weight:normal;font-stretch:normal;font-family:'Inter UI';-inkscape-font-specification:'Inter UI';stroke-width:0.14485878"
         id="path839"
         inkscape:connector-curvature="0" />
      <path
         d="m 22.132475,141.4151 -1.168747,3.16055 h -0.493837 l -1.168747,-3.16055 h 0.526759 l 0.872445,2.51857 h 0.03292 l 0.872445,-2.51857 z"
         style="font-style:normal;font-variant:normal;font-weight:normal;font-stretch:normal;font-family:'Inter UI';-inkscape-font-specification:'Inter UI';stroke-width:0.14485878"
         id="path841"
         inkscape:connector-curvature="0" />
      <path
         d="m 23.985393,144.6415 q -0.456799,0 -0.788082,-0.20165 -0.329224,-0.20371 -0.50824,-0.56791 -0.176958,-0.36627 -0.176958,-0.85187 0,-0.48561 0.176958,-0.85599 0.179016,-0.37243 0.497952,-0.58025 0.320994,-0.20989 0.748986,-0.20989 0.246918,0 0.487664,0.0823 0.240745,0.0823 0.43828,0.2675 0.197534,0.18313 0.314821,0.4856 0.117286,0.30248 0.117286,0.74487 v 0.20577 h -2.294283 q 0.01646,0.50618 0.286014,0.77573 0.27161,0.26956 0.699602,0.26956 0.286013,0 0.491779,-0.12346 0.205765,-0.12346 0.298359,-0.37038 l 0.469145,0.13169 q -0.111113,0.35803 -0.444453,0.5782 -0.33334,0.22017 -0.81483,0.22017 z m -0.985616,-1.90127 h 1.800446 q 0,-0.40125 -0.234572,-0.66463 -0.234573,-0.26543 -0.629642,-0.26543 -0.277783,0 -0.481491,0.12963 -0.203708,0.12963 -0.320994,0.34363 -0.117286,0.21194 -0.133747,0.4568 z"
         style="font-style:normal;font-variant:normal;font-weight:normal;font-stretch:normal;font-family:'Inter UI';-inkscape-font-specification:'Inter UI';stroke-width:0.14485878"
         id="path843"
         inkscape:connector-curvature="0" />
      <path
         d="m 26.518364,142.67438 v 1.90127 h -0.485606 v -3.16055 h 0.469145 v 0.49383 h 0.04115 q 0.111113,-0.24074 0.337455,-0.38683 0.226342,-0.14816 0.584373,-0.14816 0.479433,0 0.773678,0.29425 0.296302,0.29424 0.296302,0.89919 v 2.00827 h -0.485606 v -1.97534 q 0,-0.37244 -0.19342,-0.58026 -0.193419,-0.20988 -0.530874,-0.20988 -0.347744,0 -0.578201,0.22634 -0.228399,0.22428 -0.228399,0.63787 z"
         style="font-style:normal;font-variant:normal;font-weight:normal;font-stretch:normal;font-family:'Inter UI';-inkscape-font-specification:'Inter UI';stroke-width:0.14485878"
         id="path845"
         inkscape:connector-curvature="0" />
      <path
         d="m 30.802396,141.4151 v 0.41153 h -0.67491 v 1.84366 q 0,0.20576 0.05967,0.30864 0.06173,0.10083 0.156382,0.13581 0.09671,0.0329 0.203707,0.0329 0.08025,0 0.13169,-0.008 0.05144,-0.0103 0.08231,-0.0165 l 0.09877,0.43622 q -0.04938,0.0185 -0.137863,0.037 -0.08848,0.0206 -0.224284,0.0206 -0.205766,0 -0.4033,-0.0885 -0.195477,-0.0885 -0.32511,-0.26956 -0.127574,-0.18107 -0.127574,-0.45679 v -1.97535 h -0.477376 v -0.41153 h 0.477376 v -0.75722 h 0.485606 v 0.75722 z"
         style="font-style:normal;font-variant:normal;font-weight:normal;font-stretch:normal;font-family:'Inter UI';-inkscape-font-specification:'Inter UI';stroke-width:0.14485878"
         id="path847"
         inkscape:connector-curvature="0" />
      <path
         d="m 35.435202,142.12293 -0.436223,0.12346 q -0.06379,-0.16461 -0.213996,-0.30865 -0.150209,-0.14403 -0.469145,-0.14403 -0.290129,0 -0.483548,0.13374 -0.191362,0.13169 -0.191362,0.3354 0,0.18107 0.13169,0.28601 0.13169,0.10495 0.41153,0.17491 l 0.469145,0.11522 q 0.839523,0.20577 0.839523,0.85599 0,0.27161 -0.156382,0.4856 -0.154324,0.214 -0.432107,0.33746 -0.277783,0.12346 -0.646103,0.12346 -0.483549,0 -0.800427,-0.20988 -0.316879,-0.20988 -0.401242,-0.61318 l 0.460914,-0.11523 q 0.129632,0.5103 0.732524,0.5103 0.339513,0 0.539105,-0.14404 0.20165,-0.14609 0.20165,-0.3498 0,-0.3354 -0.469144,-0.44445 l -0.52676,-0.12346 q -0.434164,-0.10289 -0.637872,-0.31894 -0.20165,-0.21811 -0.20165,-0.54528 0,-0.26749 0.150209,-0.47326 0.152266,-0.20576 0.413588,-0.32305 0.263379,-0.11729 0.596719,-0.11729 0.469145,0 0.73664,0.20577 0.269553,0.20577 0.382724,0.54322 z"
         style="font-style:normal;font-variant:normal;font-weight:normal;font-stretch:normal;font-family:'Inter UI';-inkscape-font-specification:'Inter UI';stroke-width:0.14485878"
         id="path849"
         inkscape:connector-curvature="0" />
      <path
         d="m 36.229457,145.76086 v -4.34576 h 0.469145 v 0.50207 h 0.05761 q 0.0535,-0.0823 0.148151,-0.20989 0.09671,-0.12963 0.275726,-0.23045 0.181073,-0.10289 0.489721,-0.10289 0.399185,0 0.703717,0.1996 0.304533,0.19959 0.475318,0.56585 0.170785,0.36626 0.170785,0.86422 0,0.50206 -0.170785,0.87038 -0.170785,0.36627 -0.47326,0.56792 -0.302475,0.19959 -0.697544,0.19959 -0.304533,0 -0.487664,-0.10083 -0.183131,-0.10288 -0.281899,-0.23251 -0.09877,-0.13169 -0.152266,-0.21811 h -0.04115 v 1.67081 z m 0.477375,-2.76548 q 0,0.53704 0.232515,0.8745 0.234573,0.3354 0.672853,0.3354 0.304532,0 0.50824,-0.1605 0.205765,-0.16256 0.308648,-0.43622 0.10494,-0.27573 0.10494,-0.61318 0,-0.33334 -0.102882,-0.60084 -0.100825,-0.26955 -0.306591,-0.42593 -0.203707,-0.15844 -0.512355,-0.15844 -0.444453,0 -0.67491,0.32716 -0.230458,0.32717 -0.230458,0.85805 z"
         style="font-style:normal;font-variant:normal;font-weight:normal;font-stretch:normal;font-family:'Inter UI';-inkscape-font-specification:'Inter UI';stroke-width:0.14485878"
         id="path851"
         inkscape:connector-curvature="0" />
      <path
         d="m 40.690449,144.64973 q -0.300417,0 -0.545278,-0.11317 -0.24486,-0.11523 -0.388896,-0.33128 -0.144036,-0.21812 -0.144036,-0.52676 0,-0.27161 0.106998,-0.44034 0.106998,-0.17079 0.286014,-0.2675 0.179016,-0.0967 0.395069,-0.14403 0.218112,-0.0494 0.43828,-0.0782 0.288072,-0.037 0.467088,-0.0556 0.181073,-0.0206 0.263379,-0.0679 0.08436,-0.0473 0.08436,-0.16461 v -0.0165 q 0,-0.30453 -0.16667,-0.47326 -0.164612,-0.16872 -0.50001,-0.16872 -0.347743,0 -0.545278,0.15226 -0.197534,0.15227 -0.277783,0.32511 l -0.460914,-0.16461 q 0.123459,-0.28807 0.329224,-0.44857 0.207823,-0.16255 0.452684,-0.22634 0.246918,-0.0658 0.485606,-0.0658 0.152267,0 0.349801,0.037 0.199593,0.035 0.384781,0.1461 0.187247,0.11111 0.310706,0.33539 0.123459,0.22429 0.123459,0.60084 v 2.08234 h -0.485606 v -0.42799 h -0.02469 q -0.04938,0.10288 -0.164612,0.22017 -0.115229,0.11729 -0.30659,0.19959 -0.191362,0.0823 -0.467088,0.0823 z m 0.07408,-0.43622 q 0.288071,0 0.485606,-0.11317 0.199592,-0.11318 0.300417,-0.29219 0.102883,-0.17902 0.102883,-0.37655 v -0.44446 q -0.03086,0.037 -0.135805,0.0679 -0.102883,0.0288 -0.238688,0.0514 -0.133747,0.0206 -0.261322,0.037 -0.125517,0.0144 -0.203707,0.0247 -0.189304,0.0247 -0.353917,0.0803 -0.162554,0.0535 -0.263379,0.16255 -0.09877,0.107 -0.09877,0.29219 0,0.25309 0.187247,0.38272 0.189304,0.12758 0.479433,0.12758 z"
         style="font-style:normal;font-variant:normal;font-weight:normal;font-stretch:normal;font-family:'Inter UI';-inkscape-font-specification:'Inter UI';stroke-width:0.14485878"
         id="path853"
         inkscape:connector-curvature="0" />
      <path
         d="m 43.031028,144.57565 v -3.16055 h 0.469145 v 0.49383 h 0.04115 q 0.09877,-0.25309 0.318936,-0.39301 0.220169,-0.14198 0.528817,-0.14198 0.312763,0 0.520586,0.14198 0.209881,0.13992 0.327167,0.39301 h 0.03292 q 0.121402,-0.24486 0.364205,-0.38889 0.242803,-0.1461 0.582316,-0.1461 0.423876,0 0.693429,0.26544 0.269552,0.26338 0.269552,0.82101 v 2.11526 H 46.69365 v -2.11526 q 0,-0.34981 -0.191361,-0.50001 -0.191362,-0.15021 -0.450627,-0.15021 -0.333339,0 -0.51647,0.20165 -0.183132,0.19959 -0.183132,0.50618 v 2.05765 H 44.858224 V 142.411 q 0,-0.26955 -0.174901,-0.43416 -0.1749,-0.16667 -0.450626,-0.16667 -0.189304,0 -0.353916,0.10082 -0.162555,0.10083 -0.26338,0.27984 -0.09877,0.17696 -0.09877,0.40948 v 1.97534 z"
         style="font-style:normal;font-variant:normal;font-weight:normal;font-stretch:normal;font-family:'Inter UI';-inkscape-font-specification:'Inter UI';stroke-width:0.14485878"
         id="path855"
         inkscape:connector-curvature="0" />
      <path
         d="m 48.791428,143.99951 -0.03292,0.22223 q -0.03498,0.23457 -0.106998,0.50206 -0.06996,0.2675 -0.146093,0.50413 -0.07613,0.23663 -0.125517,0.37655 h -0.37038 q 0.02675,-0.13169 0.06996,-0.34774 0.04321,-0.21606 0.08642,-0.48355 0.04527,-0.26544 0.07408,-0.54322 l 0.02469,-0.23046 z"
         style="font-style:normal;font-variant:normal;font-weight:normal;font-stretch:normal;font-family:'Inter UI';-inkscape-font-specification:'Inter UI';stroke-width:0.14485878"
         id="path857"
         inkscape:connector-curvature="0" />
      <path
         d="m 52.689651,141.4151 v 0.41153 h -0.67491 v 1.84366 q 0,0.20576 0.05967,0.30864 0.06173,0.10083 0.156381,0.13581 0.09671,0.0329 0.203708,0.0329 0.08025,0 0.13169,-0.008 0.05144,-0.0103 0.08231,-0.0165 l 0.09877,0.43622 q -0.04938,0.0185 -0.137862,0.037 -0.08848,0.0206 -0.224285,0.0206 -0.205765,0 -0.4033,-0.0885 -0.195477,-0.0885 -0.325109,-0.26956 -0.127574,-0.18107 -0.127574,-0.45679 v -1.97535 h -0.477376 v -0.41153 h 0.477376 v -0.75722 h 0.485606 v 0.75722 z"
         style="font-style:normal;font-variant:normal;font-weight:normal;font-stretch:normal;font-family:'Inter UI';-inkscape-font-specification:'Inter UI';stroke-width:0.14485878"
         id="path859"
         inkscape:connector-curvature="0" />
      <path
         d="m 54.007578,142.67438 v 1.90127 h -0.485606 v -4.21407 h 0.485606 v 1.54735 h 0.04115 q 0.111113,-0.24486 0.33334,-0.38889 0.224284,-0.1461 0.596719,-0.1461 0.485606,0 0.781908,0.29219 0.296302,0.29219 0.296302,0.90125 v 2.00827 h -0.485606 v -1.97534 q 0,-0.37655 -0.195477,-0.58232 -0.193419,-0.20782 -0.537047,-0.20782 -0.36009,0 -0.59672,0.22634 -0.234572,0.22428 -0.234572,0.63787 z"
         style="font-style:normal;font-variant:normal;font-weight:normal;font-stretch:normal;font-family:'Inter UI';-inkscape-font-specification:'Inter UI';stroke-width:0.14485878"
         id="path861"
         inkscape:connector-curvature="0" />
      <path
         d="m 56.951053,144.57565 v -3.16055 h 0.485606 v 3.16055 z m 0.246918,-3.67908 q -0.141978,0 -0.244861,-0.0967 -0.100825,-0.0967 -0.100825,-0.23252 0,-0.1358 0.100825,-0.23251 0.102883,-0.0967 0.244861,-0.0967 0.141978,0 0.242803,0.0967 0.102883,0.0967 0.102883,0.23251 0,0.13581 -0.102883,0.23252 -0.100825,0.0967 -0.242803,0.0967 z"
         style="font-style:normal;font-variant:normal;font-weight:normal;font-stretch:normal;font-family:'Inter UI';-inkscape-font-specification:'Inter UI';stroke-width:0.14485878"
         id="path863"
         inkscape:connector-curvature="0" />
      <path
         d="m 60.559145,142.12293 -0.436223,0.12346 q -0.06379,-0.16461 -0.213996,-0.30865 -0.150208,-0.14403 -0.469144,-0.14403 -0.290129,0 -0.483549,0.13374 -0.191362,0.13169 -0.191362,0.3354 0,0.18107 0.13169,0.28601 0.13169,0.10495 0.411531,0.17491 l 0.469145,0.11522 q 0.839522,0.20577 0.839522,0.85599 0,0.27161 -0.156381,0.4856 -0.154324,0.214 -0.432108,0.33746 -0.277783,0.12346 -0.646103,0.12346 -0.483548,0 -0.800427,-0.20988 -0.316878,-0.20988 -0.401242,-0.61318 l 0.460914,-0.11523 q 0.129632,0.5103 0.732525,0.5103 0.339512,0 0.539105,-0.14404 0.20165,-0.14609 0.20165,-0.3498 0,-0.3354 -0.469145,-0.44445 l -0.526759,-0.12346 q -0.434165,-0.10289 -0.637873,-0.31894 -0.20165,-0.21811 -0.20165,-0.54528 0,-0.26749 0.150209,-0.47326 0.152266,-0.20576 0.413588,-0.32305 0.26338,-0.11729 0.59672,-0.11729 0.469144,0 0.736639,0.20577 0.269553,0.20577 0.382724,0.54322 z"
         style="font-style:normal;font-variant:normal;font-weight:normal;font-stretch:normal;font-family:'Inter UI';-inkscape-font-specification:'Inter UI';stroke-width:0.14485878"
         id="path865"
         inkscape:connector-curvature="0" />
      <path
         d="m 64.30819,144.6415 q -0.456799,0 -0.788081,-0.20165 -0.329224,-0.20371 -0.50824,-0.56791 -0.176958,-0.36627 -0.176958,-0.85187 0,-0.48561 0.176958,-0.85599 0.179016,-0.37243 0.497952,-0.58025 0.320994,-0.20989 0.748986,-0.20989 0.246918,0 0.487663,0.0823 0.240746,0.0823 0.438281,0.2675 0.197534,0.18313 0.31482,0.4856 0.117287,0.30248 0.117287,0.74487 v 0.20577 h -2.294284 q 0.01646,0.50618 0.286014,0.77573 0.27161,0.26956 0.699602,0.26956 0.286014,0 0.491779,-0.12346 0.205766,-0.12346 0.29836,-0.37038 l 0.469145,0.13169 q -0.111113,0.35803 -0.444453,0.5782 -0.33334,0.22017 -0.814831,0.22017 z m -0.985616,-1.90127 h 1.800447 q 0,-0.40125 -0.234573,-0.66463 -0.234572,-0.26543 -0.629641,-0.26543 -0.277784,0 -0.481491,0.12963 -0.203708,0.12963 -0.320994,0.34363 -0.117286,0.21194 -0.133748,0.4568 z"
         style="font-style:normal;font-variant:normal;font-weight:normal;font-stretch:normal;font-family:'Inter UI';-inkscape-font-specification:'Inter UI';stroke-width:0.14485878"
         id="path867"
         inkscape:connector-curvature="0" />
      <path
         d="m 66.355559,144.57565 v -3.16055 h 0.469145 v 0.49383 h 0.04115 q 0.09877,-0.25309 0.318936,-0.39301 0.220169,-0.14198 0.528817,-0.14198 0.312764,0 0.520587,0.14198 0.20988,0.13992 0.327166,0.39301 h 0.03292 q 0.121401,-0.24486 0.364204,-0.38889 0.242804,-0.1461 0.582316,-0.1461 0.423877,0 0.693429,0.26544 0.269553,0.26338 0.269553,0.82101 v 2.11526 h -0.485606 v -2.11526 q 0,-0.34981 -0.191362,-0.50001 -0.191362,-0.15021 -0.450626,-0.15021 -0.33334,0 -0.516471,0.20165 -0.183131,0.19959 -0.183131,0.50618 v 2.05765 H 68.182755 V 142.411 q 0,-0.26955 -0.1749,-0.43416 -0.174901,-0.16667 -0.450626,-0.16667 -0.189304,0 -0.353917,0.10082 -0.162554,0.10083 -0.263379,0.27984 -0.09877,0.17696 -0.09877,0.40948 v 1.97534 z"
         style="font-style:normal;font-variant:normal;font-weight:normal;font-stretch:normal;font-family:'Inter UI';-inkscape-font-specification:'Inter UI';stroke-width:0.14485878"
         id="path869"
         inkscape:connector-curvature="0" />
      <path
         d="m 72.321721,144.64973 q -0.300418,0 -0.545278,-0.11317 -0.244861,-0.11523 -0.388897,-0.33128 -0.144035,-0.21812 -0.144035,-0.52676 0,-0.27161 0.106998,-0.44034 0.106997,-0.17079 0.286013,-0.2675 0.179016,-0.0967 0.39507,-0.14403 0.218111,-0.0494 0.43828,-0.0782 0.288071,-0.037 0.467087,-0.0556 0.181074,-0.0206 0.26338,-0.0679 0.08436,-0.0473 0.08436,-0.16461 v -0.0165 q 0,-0.30453 -0.166669,-0.47326 -0.164613,-0.16872 -0.50001,-0.16872 -0.347744,0 -0.545278,0.15226 -0.197535,0.15227 -0.277783,0.32511 l -0.460915,-0.16461 q 0.123459,-0.28807 0.329225,-0.44857 0.207823,-0.16255 0.452683,-0.22634 0.246919,-0.0658 0.485607,-0.0658 0.152266,0 0.349801,0.037 0.199592,0.035 0.384781,0.1461 0.187246,0.11111 0.310705,0.33539 0.12346,0.22429 0.12346,0.60084 v 2.08234 h -0.485607 v -0.42799 h -0.02469 q -0.04938,0.10288 -0.164613,0.22017 -0.115228,0.11729 -0.30659,0.19959 -0.191362,0.0823 -0.467087,0.0823 z m 0.07408,-0.43622 q 0.288072,0 0.485606,-0.11317 0.199593,-0.11318 0.300418,-0.29219 0.102882,-0.17902 0.102882,-0.37655 v -0.44446 q -0.03086,0.037 -0.135805,0.0679 -0.102882,0.0288 -0.238687,0.0514 -0.133748,0.0206 -0.261322,0.037 -0.125517,0.0144 -0.203708,0.0247 -0.189304,0.0247 -0.353916,0.0803 -0.162555,0.0535 -0.26338,0.16255 -0.09877,0.107 -0.09877,0.29219 0,0.25309 0.187246,0.38272 0.189304,0.12758 0.479433,0.12758 z"
         style="font-style:normal;font-variant:normal;font-weight:normal;font-stretch:normal;font-family:'Inter UI';-inkscape-font-specification:'Inter UI';stroke-width:0.14485878"
         id="path871"
         inkscape:connector-curvature="0" />
      <path
         d="m 74.662299,144.57565 v -3.16055 h 0.485606 v 3.16055 z m 0.246918,-3.67908 q -0.141978,0 -0.24486,-0.0967 -0.100825,-0.0967 -0.100825,-0.23252 0,-0.1358 0.100825,-0.23251 0.102882,-0.0967 0.24486,-0.0967 0.141979,0 0.242804,0.0967 0.102882,0.0967 0.102882,0.23251 0,0.13581 -0.102882,0.23252 -0.100825,0.0967 -0.242804,0.0967 z"
         style="font-style:normal;font-variant:normal;font-weight:normal;font-stretch:normal;font-family:'Inter UI';-inkscape-font-specification:'Inter UI';stroke-width:0.14485878"
         id="path873"
         inkscape:connector-curvature="0" />
      <path
         d="m 76.517275,140.36158 v 4.21407 h -0.485606 v -4.21407 z"
         style="font-style:normal;font-variant:normal;font-weight:normal;font-stretch:normal;font-family:'Inter UI';-inkscape-font-specification:'Inter UI';stroke-width:0.14485878"
         id="path875"
         inkscape:connector-curvature="0" />
      <path
         d="m 79.960759,144.64973 q -0.300417,0 -0.545278,-0.11317 -0.244861,-0.11523 -0.388897,-0.33128 -0.144035,-0.21812 -0.144035,-0.52676 0,-0.27161 0.106998,-0.44034 0.106998,-0.17079 0.286013,-0.2675 0.179016,-0.0967 0.39507,-0.14403 0.218111,-0.0494 0.43828,-0.0782 0.288071,-0.037 0.467087,-0.0556 0.181074,-0.0206 0.26338,-0.0679 0.08436,-0.0473 0.08436,-0.16461 v -0.0165 q 0,-0.30453 -0.16667,-0.47326 -0.164613,-0.16872 -0.50001,-0.16872 -0.347743,0 -0.545278,0.15226 -0.197535,0.15227 -0.277783,0.32511 l -0.460915,-0.16461 q 0.12346,-0.28807 0.329225,-0.44857 0.207823,-0.16255 0.452684,-0.22634 0.246918,-0.0658 0.485606,-0.0658 0.152266,0 0.349801,0.037 0.199592,0.035 0.384781,0.1461 0.187246,0.11111 0.310705,0.33539 0.12346,0.22429 0.12346,0.60084 v 2.08234 h -0.485606 v -0.42799 h -0.02469 q -0.04938,0.10288 -0.164613,0.22017 -0.115228,0.11729 -0.30659,0.19959 -0.191362,0.0823 -0.467087,0.0823 z m 0.07408,-0.43622 q 0.288072,0 0.485607,-0.11317 0.199592,-0.11318 0.300417,-0.29219 0.102883,-0.17902 0.102883,-0.37655 v -0.44446 q -0.03087,0.037 -0.135806,0.0679 -0.102882,0.0288 -0.238687,0.0514 -0.133748,0.0206 -0.261322,0.037 -0.125517,0.0144 -0.203708,0.0247 -0.189304,0.0247 -0.353916,0.0803 -0.162555,0.0535 -0.26338,0.16255 -0.09877,0.107 -0.09877,0.29219 0,0.25309 0.187246,0.38272 0.189304,0.12758 0.479433,0.12758 z"
         style="font-style:normal;font-variant:normal;font-weight:normal;font-stretch:normal;font-family:'Inter UI';-inkscape-font-specification:'Inter UI';stroke-width:0.14485878"
         id="path877"
         inkscape:connector-curvature="0" />
      <path
         d="m 84.943364,144.57565 v -4.21407 h -0.485606 v 1.55559 h -0.04115 q -0.0535,-0.0823 -0.150209,-0.20989 -0.09465,-0.12963 -0.275726,-0.23045 -0.179015,-0.10289 -0.487663,-0.10289 -0.399185,0 -0.703718,0.1996 -0.304532,0.19959 -0.475318,0.56585 -0.170785,0.36626 -0.170785,0.86422 0,0.50206 0.170785,0.87038 0.170786,0.36627 0.473261,0.56792 0.302475,0.19959 0.697544,0.19959 0.304533,0 0.487664,-0.10083 0.183131,-0.10288 0.281898,-0.23251 0.09877,-0.13169 0.152267,-0.21811 h 0.05761 v 0.4856 z m -0.477376,-1.58027 q 0,0.53704 -0.234572,0.8745 -0.232515,0.3354 -0.670795,0.3354 -0.304533,0 -0.510298,-0.1605 -0.203708,-0.16256 -0.308648,-0.43622 -0.102883,-0.27573 -0.102883,-0.61318 0,-0.33334 0.100825,-0.60084 0.102883,-0.26955 0.306591,-0.42593 0.205765,-0.15844 0.514413,-0.15844 0.444453,0 0.67491,0.32716 0.230457,0.32717 0.230457,0.85805 z"
         style="font-style:normal;font-variant:normal;font-weight:normal;font-stretch:normal;font-family:'Inter UI';-inkscape-font-specification:'Inter UI';stroke-width:0.14485878"
         id="path879"
         inkscape:connector-curvature="0" />
      <path
         d="m 88.542203,144.57565 v -4.21407 h -0.485607 v 1.55559 h -0.04115 q -0.0535,-0.0823 -0.150208,-0.20989 -0.09465,-0.12963 -0.275726,-0.23045 -0.179016,-0.10289 -0.487664,-0.10289 -0.399184,0 -0.703717,0.1996 -0.304533,0.19959 -0.475318,0.56585 -0.170785,0.36626 -0.170785,0.86422 0,0.50206 0.170785,0.87038 0.170785,0.36627 0.47326,0.56792 0.302475,0.19959 0.697545,0.19959 0.304532,0 0.487664,-0.10083 0.183131,-0.10288 0.281898,-0.23251 0.09877,-0.13169 0.152266,-0.21811 h 0.05761 v 0.4856 z m -0.477376,-1.58027 q 0,0.53704 -0.234572,0.8745 -0.232515,0.3354 -0.670795,0.3354 -0.304533,0 -0.510298,-0.1605 -0.203708,-0.16256 -0.308648,-0.43622 -0.102883,-0.27573 -0.102883,-0.61318 0,-0.33334 0.100825,-0.60084 0.102883,-0.26955 0.30659,-0.42593 0.205766,-0.15844 0.514414,-0.15844 0.444453,0 0.67491,0.32716 0.230457,0.32717 0.230457,0.85805 z"
         style="font-style:normal;font-variant:normal;font-weight:normal;font-stretch:normal;font-family:'Inter UI';-inkscape-font-specification:'Inter UI';stroke-width:0.14485878"
         id="path881"
         inkscape:connector-curvature="0" />
      <path
         d="m 89.499007,144.57565 v -3.16055 h 0.469145 v 0.47737 h 0.03292 q 0.08436,-0.23457 0.310705,-0.38066 0.226342,-0.1461 0.512356,-0.1461 0.13169,0 0.230457,0.0309 0.09877,0.0309 0.172843,0.0844 l -0.164612,0.41153 q -0.05144,-0.0267 -0.121402,-0.0412 -0.0679,-0.0165 -0.158439,-0.0165 -0.345686,0 -0.572028,0.21194 -0.226342,0.20988 -0.226342,0.52881 v 2.00004 z"
         style="font-style:normal;font-variant:normal;font-weight:normal;font-stretch:normal;font-family:'Inter UI';-inkscape-font-specification:'Inter UI';stroke-width:0.14485878"
         id="path883"
         inkscape:connector-curvature="0" />
      <path
         d="m 92.940431,144.6415 q -0.456799,0 -0.788082,-0.20165 -0.329224,-0.20371 -0.50824,-0.56791 -0.176958,-0.36627 -0.176958,-0.85187 0,-0.48561 0.176958,-0.85599 0.179016,-0.37243 0.497952,-0.58025 0.320994,-0.20989 0.748986,-0.20989 0.246918,0 0.487664,0.0823 0.240745,0.0823 0.43828,0.2675 0.197535,0.18313 0.314821,0.4856 0.117286,0.30248 0.117286,0.74487 v 0.20577 h -2.294283 q 0.01646,0.50618 0.286014,0.77573 0.27161,0.26956 0.699602,0.26956 0.286013,0 0.491779,-0.12346 0.205765,-0.12346 0.298359,-0.37038 l 0.469145,0.13169 q -0.111113,0.35803 -0.444453,0.5782 -0.33334,0.22017 -0.81483,0.22017 z m -0.985616,-1.90127 h 1.800446 q 0,-0.40125 -0.234572,-0.66463 -0.234573,-0.26543 -0.629642,-0.26543 -0.277783,0 -0.481491,0.12963 -0.203708,0.12963 -0.320994,0.34363 -0.117286,0.21194 -0.133747,0.4568 z"
         style="font-style:normal;font-variant:normal;font-weight:normal;font-stretch:normal;font-family:'Inter UI';-inkscape-font-specification:'Inter UI';stroke-width:0.14485878"
         id="path885"
         inkscape:connector-curvature="0" />
      <path
         d="m 97.226526,142.12293 -0.436222,0.12346 q -0.06379,-0.16461 -0.213996,-0.30865 -0.150209,-0.14403 -0.469145,-0.14403 -0.290129,0 -0.483549,0.13374 -0.191361,0.13169 -0.191361,0.3354 0,0.18107 0.131689,0.28601 0.13169,0.10495 0.411531,0.17491 l 0.469145,0.11522 q 0.839522,0.20577 0.839522,0.85599 0,0.27161 -0.156381,0.4856 -0.154324,0.214 -0.432107,0.33746 -0.277784,0.12346 -0.646103,0.12346 -0.483549,0 -0.800427,-0.20988 -0.316879,-0.20988 -0.401243,-0.61318 l 0.460914,-0.11523 q 0.129633,0.5103 0.732525,0.5103 0.339513,0 0.539105,-0.14404 0.20165,-0.14609 0.20165,-0.3498 0,-0.3354 -0.469145,-0.44445 l -0.526759,-0.12346 q -0.434165,-0.10289 -0.637872,-0.31894 -0.20165,-0.21811 -0.20165,-0.54528 0,-0.26749 0.150208,-0.47326 0.152267,-0.20576 0.413588,-0.32305 0.26338,-0.11729 0.59672,-0.11729 0.469145,0 0.73664,0.20577 0.269552,0.20577 0.382723,0.54322 z"
         style="font-style:normal;font-variant:normal;font-weight:normal;font-stretch:normal;font-family:'Inter UI';-inkscape-font-specification:'Inter UI';stroke-width:0.14485878"
         id="path887"
         inkscape:connector-curvature="0" />
      <path
         d="m 100.25951,142.12293 -0.436224,0.12346 q -0.06379,-0.16461 -0.213996,-0.30865 -0.150209,-0.14403 -0.469145,-0.14403 -0.290129,0 -0.483549,0.13374 -0.191361,0.13169 -0.191361,0.3354 0,0.18107 0.131689,0.28601 0.13169,0.10495 0.411531,0.17491 l 0.469145,0.11522 q 0.83952,0.20577 0.83952,0.85599 0,0.27161 -0.15638,0.4856 -0.15432,0.214 -0.432106,0.33746 -0.277784,0.12346 -0.646104,0.12346 -0.483548,0 -0.800427,-0.20988 -0.316878,-0.20988 -0.401242,-0.61318 l 0.460914,-0.11523 q 0.129632,0.5103 0.732525,0.5103 0.339513,0 0.539105,-0.14404 0.20165,-0.14609 0.20165,-0.3498 0,-0.3354 -0.469145,-0.44445 l -0.526759,-0.12346 q -0.434165,-0.10289 -0.637873,-0.31894 -0.20165,-0.21811 -0.20165,-0.54528 0,-0.26749 0.150209,-0.47326 0.152266,-0.20576 0.413588,-0.32305 0.26338,-0.11729 0.59672,-0.11729 0.469145,0 0.73664,0.20577 0.269555,0.20577 0.382725,0.54322 z"
         style="font-style:normal;font-variant:normal;font-weight:normal;font-stretch:normal;font-family:'Inter UI';-inkscape-font-specification:'Inter UI';stroke-width:0.14485878"
         id="path889"
         inkscape:connector-curvature="0" />
      <path
         d="m 102.68342,144.57565 v -3.16055 h 0.48561 v 3.16055 z m 0.24692,-3.67908 q -0.14197,0 -0.24486,-0.0967 -0.10082,-0.0967 -0.10082,-0.23252 0,-0.1358 0.10082,-0.23251 0.10289,-0.0967 0.24486,-0.0967 0.14198,0 0.24281,0.0967 0.10288,0.0967 0.10288,0.23251 0,0.13581 -0.10288,0.23252 -0.10083,0.0967 -0.24281,0.0967 z"
         style="font-style:normal;font-variant:normal;font-weight:normal;font-stretch:normal;font-family:'Inter UI';-inkscape-font-specification:'Inter UI';stroke-width:0.14485878"
         id="path891"
         inkscape:connector-curvature="0" />
      <path
         d="m 106.29151,142.12293 -0.43622,0.12346 q -0.0638,-0.16461 -0.214,-0.30865 -0.1502,-0.14403 -0.46914,-0.14403 -0.29013,0 -0.48355,0.13374 -0.19136,0.13169 -0.19136,0.3354 0,0.18107 0.13169,0.28601 0.13169,0.10495 0.41153,0.17491 l 0.46915,0.11522 q 0.83952,0.20577 0.83952,0.85599 0,0.27161 -0.15638,0.4856 -0.15433,0.214 -0.43211,0.33746 -0.27778,0.12346 -0.6461,0.12346 -0.48355,0 -0.80043,-0.20988 -0.31688,-0.20988 -0.40124,-0.61318 l 0.46091,-0.11523 q 0.12963,0.5103 0.73253,0.5103 0.33951,0 0.5391,-0.14404 0.20165,-0.14609 0.20165,-0.3498 0,-0.3354 -0.46914,-0.44445 l -0.52676,-0.12346 q -0.43417,-0.10289 -0.63788,-0.31894 -0.20165,-0.21811 -0.20165,-0.54528 0,-0.26749 0.15021,-0.47326 0.15227,-0.20576 0.41359,-0.32305 0.26338,-0.11729 0.59672,-0.11729 0.46914,0 0.73664,0.20577 0.26955,0.20577 0.38272,0.54322 z"
         style="font-style:normal;font-variant:normal;font-weight:normal;font-stretch:normal;font-family:'Inter UI';-inkscape-font-specification:'Inter UI';stroke-width:0.14485878"
         id="path893"
         inkscape:connector-curvature="0" />
      <path
         d="m 109.64549,144.64973 q -0.30042,0 -0.54528,-0.11317 -0.24486,-0.11523 -0.3889,-0.33128 -0.14403,-0.21812 -0.14403,-0.52676 0,-0.27161 0.107,-0.44034 0.107,-0.17079 0.28601,-0.2675 0.17902,-0.0967 0.39507,-0.14403 0.21811,-0.0494 0.43828,-0.0782 0.28807,-0.037 0.46709,-0.0556 0.18107,-0.0206 0.26338,-0.0679 0.0844,-0.0473 0.0844,-0.16461 v -0.0165 q 0,-0.30453 -0.16667,-0.47326 -0.16461,-0.16872 -0.50001,-0.16872 -0.34774,0 -0.54528,0.15226 -0.19753,0.15227 -0.27778,0.32511 l -0.46091,-0.16461 q 0.12346,-0.28807 0.32922,-0.44857 0.20782,-0.16255 0.45268,-0.22634 0.24692,-0.0658 0.48561,-0.0658 0.15227,0 0.3498,0.037 0.19959,0.035 0.38478,0.1461 0.18725,0.11111 0.31071,0.33539 0.12346,0.22429 0.12346,0.60084 v 2.08234 h -0.48561 v -0.42799 h -0.0247 q -0.0494,0.10288 -0.16461,0.22017 -0.11523,0.11729 -0.30659,0.19959 -0.19137,0.0823 -0.46709,0.0823 z m 0.0741,-0.43622 q 0.28808,0 0.48561,-0.11317 0.19959,-0.11318 0.30042,-0.29219 0.10288,-0.17902 0.10288,-0.37655 v -0.44446 q -0.0309,0.037 -0.1358,0.0679 -0.10289,0.0288 -0.23869,0.0514 -0.13375,0.0206 -0.26132,0.037 -0.12552,0.0144 -0.20371,0.0247 -0.18931,0.0247 -0.35392,0.0803 -0.16255,0.0535 -0.26338,0.16255 -0.0988,0.107 -0.0988,0.29219 0,0.25309 0.18724,0.38272 0.18931,0.12758 0.47943,0.12758 z"
         style="font-style:normal;font-variant:normal;font-weight:normal;font-stretch:normal;font-family:'Inter UI';-inkscape-font-specification:'Inter UI';stroke-width:0.14485878"
         id="path895"
         inkscape:connector-curvature="0" />
      <path
         d="m 112.47167,142.67438 v 1.90127 h -0.4856 v -3.16055 h 0.46914 v 0.49383 h 0.0412 q 0.11111,-0.24074 0.33745,-0.38683 0.22634,-0.14816 0.58437,-0.14816 0.47944,0 0.77368,0.29425 0.2963,0.29424 0.2963,0.89919 v 2.00827 h -0.4856 v -1.97534 q 0,-0.37244 -0.19342,-0.58026 -0.19342,-0.20988 -0.53088,-0.20988 -0.34774,0 -0.5782,0.22634 -0.2284,0.22428 -0.2284,0.63787 z"
         style="font-style:normal;font-variant:normal;font-weight:normal;font-stretch:normal;font-family:'Inter UI';-inkscape-font-specification:'Inter UI';stroke-width:0.14485878"
         id="path897"
         inkscape:connector-curvature="0" />
      <path
         d="m 117.01086,144.57565 v -3.16055 h 0.48561 v 3.16055 z m 0.24692,-3.67908 q -0.14198,0 -0.24486,-0.0967 -0.10082,-0.0967 -0.10082,-0.23252 0,-0.1358 0.10082,-0.23251 0.10288,-0.0967 0.24486,-0.0967 0.14198,0 0.2428,0.0967 0.10289,0.0967 0.10289,0.23251 0,0.13581 -0.10289,0.23252 -0.10082,0.0967 -0.2428,0.0967 z"
         style="font-style:normal;font-variant:normal;font-weight:normal;font-stretch:normal;font-family:'Inter UI';-inkscape-font-specification:'Inter UI';stroke-width:0.14485878"
         id="path899"
         inkscape:connector-curvature="0" />
      <path
         d="m 118.38023,144.57565 v -3.16055 h 0.46914 v 0.49383 h 0.0412 q 0.0988,-0.25309 0.31894,-0.39301 0.22017,-0.14198 0.52882,-0.14198 0.31276,0 0.52058,0.14198 0.20988,0.13992 0.32717,0.39301 h 0.0329 q 0.1214,-0.24486 0.36421,-0.38889 0.2428,-0.1461 0.58231,-0.1461 0.42388,0 0.69343,0.26544 0.26955,0.26338 0.26955,0.82101 v 2.11526 h -0.4856 v -2.11526 q 0,-0.34981 -0.19136,-0.50001 -0.19137,-0.15021 -0.45063,-0.15021 -0.33334,0 -0.51647,0.20165 -0.18313,0.19959 -0.18313,0.50618 v 2.05765 h -0.49384 V 142.411 q 0,-0.26955 -0.1749,-0.43416 -0.1749,-0.16667 -0.45063,-0.16667 -0.1893,0 -0.35391,0.10082 -0.16256,0.10083 -0.26338,0.27984 -0.0988,0.17696 -0.0988,0.40948 v 1.97534 z"
         style="font-style:normal;font-variant:normal;font-weight:normal;font-stretch:normal;font-family:'Inter UI';-inkscape-font-specification:'Inter UI';stroke-width:0.14485878"
         id="path901"
         inkscape:connector-curvature="0" />
      <path
         d="m 124.34639,144.64973 q -0.30041,0 -0.54527,-0.11317 -0.24486,-0.11523 -0.3889,-0.33128 -0.14404,-0.21812 -0.14404,-0.52676 0,-0.27161 0.107,-0.44034 0.107,-0.17079 0.28602,-0.2675 0.17901,-0.0967 0.39507,-0.14403 0.21811,-0.0494 0.43828,-0.0782 0.28807,-0.037 0.46708,-0.0556 0.18108,-0.0206 0.26338,-0.0679 0.0844,-0.0473 0.0844,-0.16461 v -0.0165 q 0,-0.30453 -0.16667,-0.47326 -0.16462,-0.16872 -0.50001,-0.16872 -0.34775,0 -0.54528,0.15226 -0.19754,0.15227 -0.27778,0.32511 l -0.46092,-0.16461 q 0.12346,-0.28807 0.32923,-0.44857 0.20782,-0.16255 0.45268,-0.22634 0.24692,-0.0658 0.48561,-0.0658 0.15226,0 0.3498,0.037 0.19959,0.035 0.38478,0.1461 0.18724,0.11111 0.3107,0.33539 0.12346,0.22429 0.12346,0.60084 v 2.08234 h -0.4856 v -0.42799 h -0.0247 q -0.0494,0.10288 -0.16461,0.22017 -0.11523,0.11729 -0.30659,0.19959 -0.19136,0.0823 -0.46709,0.0823 z m 0.0741,-0.43622 q 0.28807,0 0.48561,-0.11317 0.19959,-0.11318 0.30041,-0.29219 0.10289,-0.17902 0.10289,-0.37655 v -0.44446 q -0.0309,0.037 -0.13581,0.0679 -0.10288,0.0288 -0.23869,0.0514 -0.13374,0.0206 -0.26132,0.037 -0.12552,0.0144 -0.20371,0.0247 -0.1893,0.0247 -0.35391,0.0803 -0.16256,0.0535 -0.26338,0.16255 -0.0988,0.107 -0.0988,0.29219 0,0.25309 0.18725,0.38272 0.1893,0.12758 0.47943,0.12758 z"
         style="font-style:normal;font-variant:normal;font-weight:normal;font-stretch:normal;font-family:'Inter UI';-inkscape-font-specification:'Inter UI';stroke-width:0.14485878"
         id="path903"
         inkscape:connector-curvature="0" />
      <path
         d="m 127.96272,145.82671 q -0.52882,0 -0.83747,-0.19342 -0.30659,-0.19136 -0.45474,-0.44034 l 0.38684,-0.27161 q 0.0658,0.0864 0.16667,0.19753 0.10083,0.11317 0.27573,0.19548 0.17695,0.0844 0.46297,0.0844 0.38272,0 0.6317,-0.18518 0.24897,-0.18519 0.24897,-0.58026 v -0.64199 h -0.0411 q -0.0535,0.0864 -0.15227,0.214 -0.0967,0.12551 -0.27984,0.22428 -0.18107,0.0967 -0.48972,0.0967 -0.38272,0 -0.68725,-0.18107 -0.30248,-0.18108 -0.47944,-0.52676 -0.1749,-0.34569 -0.1749,-0.83953 0,-0.4856 0.17079,-0.84569 0.17078,-0.36215 0.47531,-0.55968 0.30454,-0.1996 0.70372,-0.1996 0.30865,0 0.48972,0.10289 0.18313,0.10082 0.27984,0.23045 0.0988,0.12758 0.15227,0.20989 h 0.0494 v -0.50207 h 0.46915 v 3.25109 q 0,0.40742 -0.18519,0.66256 -0.18313,0.25721 -0.49384,0.37655 -0.30864,0.12141 -0.68725,0.12141 z m -0.0165,-1.73666 q 0.43828,0 0.67079,-0.29631 0.23457,-0.29835 0.23457,-0.82306 0,-0.51235 -0.23045,-0.8354 -0.23046,-0.32511 -0.67491,-0.32511 -0.30865,0 -0.51442,0.15638 -0.2037,0.15638 -0.30659,0.41976 -0.10082,0.26338 -0.10082,0.58437 0,0.49384 0.23251,0.8066 0.23252,0.31277 0.68932,0.31277 z"
         style="font-style:normal;font-variant:normal;font-weight:normal;font-stretch:normal;font-family:'Inter UI';-inkscape-font-specification:'Inter UI';stroke-width:0.14485878"
         id="path905"
         inkscape:connector-curvature="0" />
      <path
         d="m 131.54303,144.6415 q -0.4568,0 -0.78808,-0.20165 -0.32922,-0.20371 -0.50824,-0.56791 -0.17696,-0.36627 -0.17696,-0.85187 0,-0.48561 0.17696,-0.85599 0.17902,-0.37243 0.49795,-0.58025 0.321,-0.20989 0.74899,-0.20989 0.24692,0 0.48766,0.0823 0.24075,0.0823 0.43828,0.2675 0.19754,0.18313 0.31482,0.4856 0.11729,0.30248 0.11729,0.74487 v 0.20577 h -2.29429 q 0.0165,0.50618 0.28602,0.77573 0.27161,0.26956 0.6996,0.26956 0.28601,0 0.49178,-0.12346 0.20577,-0.12346 0.29836,-0.37038 l 0.46914,0.13169 q -0.11111,0.35803 -0.44445,0.5782 -0.33334,0.22017 -0.81483,0.22017 z m -0.98562,-1.90127 h 1.80045 q 0,-0.40125 -0.23457,-0.66463 -0.23457,-0.26543 -0.62964,-0.26543 -0.27779,0 -0.48149,0.12963 -0.20371,0.12963 -0.321,0.34363 -0.11728,0.21194 -0.13375,0.4568 z"
         style="font-style:normal;font-variant:normal;font-weight:normal;font-stretch:normal;font-family:'Inter UI';-inkscape-font-specification:'Inter UI';stroke-width:0.14485878"
         id="path907"
         inkscape:connector-curvature="0" />
      <path
         d="m 133.94432,144.60858 q -0.15227,0 -0.26133,-0.10906 -0.10905,-0.10906 -0.10905,-0.26132 0,-0.15227 0.10905,-0.26132 0.10906,-0.10906 0.26133,-0.10906 0.15226,0 0.26132,0.10906 0.10905,0.10905 0.10905,0.26132 0,0.15226 -0.10905,0.26132 -0.10906,0.10906 -0.26132,0.10906 z m 0,-2.34573 q -0.15227,0 -0.26133,-0.10905 -0.10905,-0.10906 -0.10905,-0.26133 0,-0.15226 0.10905,-0.26132 0.10906,-0.10905 0.26133,-0.10905 0.15226,0 0.26132,0.10905 0.10905,0.10906 0.10905,0.26132 0,0.15227 -0.10905,0.26133 -0.10906,0.10905 -0.26132,0.10905 z"
         style="font-style:normal;font-variant:normal;font-weight:normal;font-stretch:normal;font-family:'Inter UI';-inkscape-font-specification:'Inter UI';stroke-width:0.14485878"
         id="path909"
         inkscape:connector-curvature="0" />
    </g>
    <g
       aria-label="jakson@protonmail.com"
       style="font-style:normal;font-variant:normal;font-weight:normal;font-stretch:normal;font-size:10.68027496px;line-height:1.25;font-family:Inter;-inkscape-font-specification:Inter;letter-spacing:0px;word-spacing:0px;fill:#000000;fill-opacity:1;stroke:none;stroke-width:0.2670069"
       id="text829"
       transform="translate(-2.3119008,-2.6726953)">
      <path
         d="m 3.2069807,152.17276 h 2.0935766 v 5.99249 q 0,0.76612 -0.3223805,1.20987 -0.3223804,0.44754 -0.9102507,0.6258 -0.5840775,0.18205 -1.3767542,0.15171 -0.079647,-0.004 -0.1668793,-0.004 -0.087232,0 -0.2123918,-0.0114 v -1.54743 q 0.1327449,0.0152 0.2427335,0.0152 0.3754784,0 0.512016,-0.11757 0.1403304,-0.11378 0.1403304,-0.3679 z m 1.0467883,-0.60683 q -0.4247837,0 -0.7282006,-0.28066 -0.3034169,-0.28066 -0.3034169,-0.6751 0,-0.39445 0.3034169,-0.67511 0.3034169,-0.28066 0.7282006,-0.28066 0.4285763,0 0.7282005,0.28066 0.3034169,0.28066 0.3034169,0.67511 0,0.39444 -0.3034169,0.6751 -0.2996242,0.28066 -0.7282005,0.28066 z"
         style="stroke-width:0.2670069"
         id="path912"
         inkscape:connector-curvature="0" />
      <path
         d="m 7.9801079,158.08939 q -0.8343965,0 -1.3653761,-0.4134 -0.5309796,-0.4172 -0.5309796,-1.28573 0,-0.64097 0.2844534,-1.03162 0.2844533,-0.39065 0.7699204,-0.58408 0.485467,-0.19343 1.0847154,-0.23515 0.735786,-0.0531 1.0429956,-0.1555 0.3072096,-0.10619 0.3072096,-0.3603 v -0.0152 q 0,-0.22757 -0.1744647,-0.34893 -0.1744647,-0.12137 -0.4475399,-0.12137 -0.2996242,0 -0.4892598,0.13274 -0.1858428,0.12896 -0.22377,0.39824 H 6.3113149 q 0.037927,-0.53098 0.3375513,-0.97852 0.3034169,-0.45133 0.8837017,-0.72062 0.5802849,-0.27307 1.4488157,-0.27307 0.8343965,0 1.4336454,0.25411 0.603041,0.25411 0.925421,0.68648 0.326173,0.43237 0.326173,0.97094 v 3.98993 H 9.7095842 v -0.81923 h -0.045513 q -0.2654898,0.48926 -0.6902735,0.70165 -0.4247836,0.2086 -0.9936903,0.2086 z m 0.682688,-1.31986 q 0.3565149,0 0.6409682,-0.21619 0.2844534,-0.21997 0.2844534,-0.61821 v -0.48546 q -0.3110024,0.12895 -0.8343965,0.21239 -0.3641003,0.0569 -0.5309796,0.21997 -0.1668793,0.16309 -0.1668793,0.38686 0,0.24273 0.170672,0.37169 0.170672,0.12895 0.4361618,0.12895 z"
         style="stroke-width:0.2670069"
         id="path914"
         inkscape:connector-curvature="0" />
      <path
         d="m 12.677381,157.99837 v -7.76748 h 2.093576 v 3.89891 h 0.07585 l 1.410889,-1.95704 h 2.351481 l -1.979795,2.5525 2.040478,3.27311 h -2.396993 l -1.187119,-2.05186 -0.314795,0.39824 v 1.65362 z"
         style="stroke-width:0.2670069"
         id="path916"
         inkscape:connector-curvature="0" />
      <path
         d="m 24.48978,154.06912 h -1.926698 q -0.02276,-0.26928 -0.250319,-0.42099 -0.227562,-0.1555 -0.538565,-0.1555 -0.269282,0 -0.46271,0.0986 -0.193429,0.0986 -0.189636,0.28066 -0.0038,0.12895 0.109989,0.23894 0.117574,0.10999 0.451332,0.17067 l 1.183326,0.21239 q 1.763611,0.31859 1.774989,1.57777 -0.0038,0.622 -0.371686,1.08092 -0.3641,0.45513 -0.997483,0.70545 -0.62959,0.24652 -1.437437,0.24652 -1.335035,0 -2.089784,-0.54615 -0.750957,-0.54615 -0.838189,-1.44123 h 2.078405 q 0.04172,0.27687 0.273076,0.42858 0.235148,0.14791 0.591663,0.14791 0.288246,0 0.474088,-0.0986 0.189636,-0.0986 0.193429,-0.28066 -0.01138,-0.30341 -0.667517,-0.42478 l -1.031618,-0.18205 q -1.786367,-0.3148 -1.774989,-1.71431 -0.0038,-0.91025 0.716823,-1.4033 0.720615,-0.49305 1.968417,-0.49305 1.262973,0 1.991173,0.52339 0.731994,0.5234 0.769921,1.44882 z"
         style="stroke-width:0.2670069"
         id="path918"
         inkscape:connector-curvature="0" />
      <path
         d="m 28.250253,158.10456 q -0.948178,0 -1.623281,-0.37548 -0.675102,-0.37927 -1.03541,-1.05437 -0.360307,-0.67889 -0.360307,-1.57397 0,-0.89508 0.360307,-1.57019 0.360308,-0.67889 1.03541,-1.05437 0.675103,-0.37927 1.623281,-0.37927 0.948178,0 1.62328,0.37927 0.675103,0.37548 1.03541,1.05437 0.360308,0.67511 0.360308,1.57019 0,0.89508 -0.360308,1.57397 -0.360307,0.6751 -1.03541,1.05437 -0.675102,0.37548 -1.62328,0.37548 z m 0.01517,-1.54742 q 0.398234,0 0.62959,-0.39065 0.235148,-0.39444 0.235148,-1.08092 0,-0.68649 -0.235148,-1.07713 -0.231356,-0.39445 -0.62959,-0.39445 -0.420991,0 -0.659932,0.39445 -0.235148,0.39064 -0.235148,1.07713 0,0.68648 0.235148,1.08092 0.238941,0.39065 0.659932,0.39065 z"
         style="stroke-width:0.2670069"
         id="path920"
         inkscape:connector-curvature="0" />
      <path
         d="m 34.212396,154.72146 v 3.27691 h -2.093577 v -5.82561 H 34.1062 v 1.10747 h 0.06068 q 0.189636,-0.55373 0.667517,-0.86853 0.481675,-0.31479 1.122643,-0.31479 0.618212,0 1.073337,0.28445 0.458918,0.28066 0.709237,0.77372 0.254112,0.49305 0.250319,1.12643 v 3.71686 H 35.89636 v -3.27691 q 0.0038,-0.43236 -0.219978,-0.67889 -0.219977,-0.24653 -0.614419,-0.24653 -0.390649,0 -0.618212,0.24653 -0.227562,0.24653 -0.231355,0.67889 z"
         style="stroke-width:0.2670069"
         id="path922"
         inkscape:connector-curvature="0" />
      <path
         d="m 44.515294,160.36502 q -1.657415,0 -2.840741,-0.59546 -1.183326,-0.59166 -1.816709,-1.70672 -0.633382,-1.11126 -0.637175,-2.67386 0.0038,-1.55501 0.637175,-2.74971 0.637176,-1.19471 1.850844,-1.86981 1.21746,-0.6751 2.958314,-0.6751 1.56639,0 2.719374,0.56511 1.152985,0.56511 1.782575,1.64983 0.62959,1.08472 0.625797,2.63973 0.0076,1.59294 -0.67131,2.40078 -0.675103,0.80785 -1.922905,0.92163 -0.534772,0.0493 -0.777505,-0.0455 -0.242734,-0.0948 -0.322381,-0.27687 -0.07965,-0.18584 -0.117574,-0.39444 -0.0076,-0.0379 -0.01138,-0.0569 h -0.04551 q -0.08723,0.23515 -0.40582,0.40961 -0.318587,0.17447 -0.750956,0.2617 -0.43237,0.0872 -0.860946,0.0569 -0.417198,-0.0303 -0.834396,-0.20101 -0.417199,-0.17068 -0.766128,-0.51202 -0.345137,-0.34134 -0.553736,-0.87612 -0.208599,-0.53856 -0.212392,-1.29331 0.0038,-0.75854 0.208599,-1.28952 0.208599,-0.53098 0.534773,-0.87612 0.329966,-0.34514 0.709237,-0.53098 0.383063,-0.18584 0.731993,-0.24652 0.458918,-0.0834 0.891287,-0.019 0.432369,0.0607 0.735786,0.2086 0.303417,0.14412 0.375478,0.311 h 0.06068 v -0.42478 h 1.44123 v 3.88374 q 0.0076,0.22756 0.07585,0.30341 0.07206,0.0759 0.16688,0.0759 0.269282,0 0.477881,-0.46651 0.212392,-0.47029 0.204807,-1.46019 0.0038,-0.84957 -0.219978,-1.41847 -0.219977,-0.5727 -0.591663,-0.91784 -0.371685,-0.34893 -0.830603,-0.52339 -0.455126,-0.17826 -0.9368,-0.23515 -0.481674,-0.0607 -0.910251,-0.0607 -0.982312,0 -1.691549,0.29584 -0.705444,0.29203 -1.16057,0.80405 -0.455125,0.50822 -0.675102,1.16436 -0.216185,0.65235 -0.219977,1.37676 0.0076,1.70672 0.967141,2.598 0.959556,0.89129 2.749716,0.89129 0.678895,0 1.285729,-0.10999 0.606834,-0.10999 0.974727,-0.26928 l 0.485467,1.36538 q -0.356515,0.23894 -1.130228,0.4134 -0.773713,0.17826 -1.737062,0.17826 z m 0,-3.70169 q 0.656139,0 0.898872,-0.3603 0.242734,-0.36031 0.22377,-1.02024 -0.0038,-0.33376 -0.08723,-0.62201 -0.07965,-0.29204 -0.326173,-0.47029 -0.242734,-0.18205 -0.739579,-0.18205 -0.618212,0 -0.95197,0.32617 -0.329966,0.32617 -0.337552,0.96335 0.0038,0.34893 0.12516,0.66372 0.125159,0.311 0.409613,0.50822 0.288246,0.19343 0.785091,0.19343 z"
         style="stroke-width:0.2670069"
         id="path924"
         inkscape:connector-curvature="0" />
      <path
         d="m 50.705001,160.18297 v -8.01021 h 2.078406 v 1.01645 h 0.04551 q 0.170672,-0.44375 0.580285,-0.76613 0.409613,-0.32617 1.058166,-0.32617 0.576493,0 1.096094,0.30721 0.523394,0.30721 0.849567,0.96714 0.329966,0.65993 0.329966,1.71431 0,1.00886 -0.314795,1.67258 -0.311002,0.66373 -0.834396,0.9899 -0.519602,0.32617 -1.141606,0.32617 -0.61442,0 -1.027825,-0.29204 -0.413406,-0.29583 -0.595456,-0.73958 h -0.03034 v 3.14037 z m 2.048064,-5.0974 q 0,0.63717 0.246526,1.00886 0.246526,0.37168 0.678895,0.37168 0.43237,0 0.67131,-0.3641 0.238941,-0.36789 0.238941,-1.01644 0,-0.64856 -0.238941,-1.01266 -0.23894,-0.36789 -0.67131,-0.36789 -0.432369,0 -0.678895,0.36789 -0.246526,0.3641 -0.246526,1.01266 z"
         style="stroke-width:0.2670069"
         id="path926"
         inkscape:connector-curvature="0" />
      <path
         d="m 57.630492,157.99837 v -5.82561 h 2.032893 v 1.10747 h 0.06068 q 0.159294,-0.61441 0.50443,-0.89887 0.34893,-0.28445 0.815433,-0.28445 0.261697,0 0.53098,0.0796 v 1.78636 q -0.155501,-0.0531 -0.383064,-0.0796 -0.227563,-0.0266 -0.390649,-0.0266 -0.462711,0 -0.769921,0.30341 -0.307209,0.30342 -0.307209,0.80406 v 3.03417 z"
         style="stroke-width:0.2670069"
         id="path928"
         inkscape:connector-curvature="0" />
      <path
         d="m 64.734241,158.10456 q -0.948178,0 -1.623281,-0.37548 -0.675103,-0.37927 -1.03541,-1.05437 -0.360308,-0.67889 -0.360308,-1.57397 0,-0.89508 0.360308,-1.57019 0.360307,-0.67889 1.03541,-1.05437 0.675103,-0.37927 1.623281,-0.37927 0.948177,0 1.62328,0.37927 0.675103,0.37548 1.03541,1.05437 0.360308,0.67511 0.360308,1.57019 0,0.89508 -0.360308,1.57397 -0.360307,0.6751 -1.03541,1.05437 -0.675103,0.37548 -1.62328,0.37548 z m 0.01517,-1.54742 q 0.398235,0 0.62959,-0.39065 0.235149,-0.39444 0.235149,-1.08092 0,-0.68649 -0.235149,-1.07713 -0.231355,-0.39445 -0.62959,-0.39445 -0.420991,0 -0.659931,0.39445 -0.235148,0.39064 -0.235148,1.07713 0,0.68648 0.235148,1.08092 0.23894,0.39065 0.659931,0.39065 z"
         style="stroke-width:0.2670069"
         id="path930"
         inkscape:connector-curvature="0" />
      <path
         d="m 72.076925,152.17276 v 1.51709 h -1.001276 v 2.43492 q 0,0.3641 0.394442,0.3641 0.09482,0 0.219977,-0.0228 0.128952,-0.0227 0.189636,-0.0379 l 0.303417,1.47158 q -0.140331,0.0417 -0.402028,0.1024 -0.257904,0.0607 -0.614419,0.0796 -1.084715,0.0607 -1.642244,-0.39065 -0.553736,-0.45513 -0.542358,-1.36917 v -2.63214 h -0.743371 v -1.51709 h 0.743371 v -1.39571 h 2.093577 v 1.39571 z"
         style="stroke-width:0.2670069"
         id="path932"
         inkscape:connector-curvature="0" />
      <path
         d="m 75.664832,158.10456 q -0.948178,0 -1.62328,-0.37548 -0.675103,-0.37927 -1.03541,-1.05437 -0.360308,-0.67889 -0.360308,-1.57397 0,-0.89508 0.360308,-1.57019 0.360307,-0.67889 1.03541,-1.05437 0.675102,-0.37927 1.62328,-0.37927 0.948178,0 1.623281,0.37927 0.675102,0.37548 1.03541,1.05437 0.360307,0.67511 0.360307,1.57019 0,0.89508 -0.360307,1.57397 -0.360308,0.6751 -1.03541,1.05437 -0.675103,0.37548 -1.623281,0.37548 z m 0.01517,-1.54742 q 0.398235,0 0.62959,-0.39065 0.235148,-0.39444 0.235148,-1.08092 0,-0.68649 -0.235148,-1.07713 -0.231355,-0.39445 -0.62959,-0.39445 -0.420991,0 -0.659932,0.39445 -0.235148,0.39064 -0.235148,1.07713 0,0.68648 0.235148,1.08092 0.238941,0.39065 0.659932,0.39065 z"
         style="stroke-width:0.2670069"
         id="path934"
         inkscape:connector-curvature="0" />
      <path
         d="m 81.626973,154.72146 v 3.27691 h -2.093576 v -5.82561 h 1.98738 v 1.10747 h 0.06068 q 0.189635,-0.55373 0.667517,-0.86853 0.481674,-0.31479 1.122642,-0.31479 0.618212,0 1.073338,0.28445 0.458918,0.28066 0.709237,0.77372 0.254111,0.49305 0.250319,1.12643 v 3.71686 h -2.093577 v -3.27691 q 0.0038,-0.43236 -0.219977,-0.67889 -0.219977,-0.24653 -0.614419,-0.24653 -0.39065,0 -0.618212,0.24653 -0.227563,0.24653 -0.231356,0.67889 z"
         style="stroke-width:0.2670069"
         id="path936"
         inkscape:connector-curvature="0" />
      <path
         d="m 86.438029,157.99837 v -5.82561 h 1.987381 v 1.10747 h 0.06068 q 0.18205,-0.54615 0.622005,-0.86473 0.439954,-0.31859 1.046788,-0.31859 0.61442,0 1.058167,0.32617 0.443747,0.32238 0.534772,0.85715 h 0.06068 q 0.147916,-0.53477 0.62959,-0.85715 0.481675,-0.32617 1.130228,-0.32617 0.83819,0 1.357791,0.53856 0.523394,0.53857 0.523394,1.43365 v 3.92925 h -2.093576 v -3.39827 q 0,-0.38307 -0.193429,-0.59925 -0.193428,-0.21998 -0.519601,-0.21998 -0.322381,0 -0.512016,0.21998 -0.185843,0.21618 -0.185843,0.59925 v 3.39827 h -2.002552 v -3.39827 q 0,-0.38307 -0.193428,-0.59925 -0.193428,-0.21998 -0.519601,-0.21998 -0.322381,0 -0.512016,0.21998 -0.185843,0.21618 -0.185843,0.59925 v 3.39827 z"
         style="stroke-width:0.2670069"
         id="path938"
         inkscape:connector-curvature="0" />
      <path
         d="m 98.094925,158.08939 q -0.834397,0 -1.365376,-0.4134 -0.53098,-0.4172 -0.53098,-1.28573 0,-0.64097 0.284453,-1.03162 0.284454,-0.39065 0.769921,-0.58408 0.485467,-0.19343 1.084715,-0.23515 0.735786,-0.0531 1.042996,-0.1555 0.30721,-0.10619 0.30721,-0.3603 v -0.0152 q 0,-0.22757 -0.174465,-0.34893 -0.174465,-0.12137 -0.44754,-0.12137 -0.299624,0 -0.48926,0.13274 -0.185843,0.12896 -0.22377,0.39824 h -1.926697 q 0.03793,-0.53098 0.337551,-0.97852 0.303417,-0.45133 0.883702,-0.72062 0.580285,-0.27307 1.448816,-0.27307 0.834396,0 1.433649,0.25411 0.60304,0.25411 0.92542,0.68648 0.32617,0.43237 0.32617,0.97094 v 3.98993 h -1.957039 v -0.81923 h -0.04551 q -0.26549,0.48926 -0.690274,0.70165 -0.424784,0.2086 -0.99369,0.2086 z m 0.682688,-1.31986 q 0.356515,0 0.640968,-0.21619 0.284453,-0.21997 0.284453,-0.61821 v -0.48546 q -0.311002,0.12895 -0.834396,0.21239 -0.3641,0.0569 -0.53098,0.21997 -0.166879,0.16309 -0.166879,0.38686 0,0.24273 0.170672,0.37169 0.170672,0.12895 0.436162,0.12895 z"
         style="stroke-width:0.2670069"
         id="path940"
         inkscape:connector-curvature="0" />
      <path
         d="m 102.7922,157.99837 v -5.82561 h 2.09358 v 5.82561 z m 1.04679,-6.43244 q -0.42478,0 -0.7282,-0.28066 -0.30342,-0.28066 -0.30342,-0.6751 0,-0.39445 0.30342,-0.67511 0.30342,-0.28066 0.7282,-0.28066 0.42858,0 0.7282,0.28066 0.30342,0.28066 0.30342,0.67511 0,0.39444 -0.30342,0.6751 -0.29962,0.28066 -0.7282,0.28066 z"
         style="stroke-width:0.2670069"
         id="path942"
         inkscape:connector-curvature="0" />
      <path
         d="m 108.03563,150.23089 v 7.76748 h -2.09358 v -7.76748 z"
         style="stroke-width:0.2670069"
         id="path944"
         inkscape:connector-curvature="0" />
      <path
         d="m 110.2297,158.11973 q -0.43995,0 -0.75474,-0.30721 -0.31101,-0.311 -0.30721,-0.75475 -0.004,-0.43236 0.30721,-0.73957 0.31479,-0.30721 0.75474,-0.30721 0.4172,0 0.73579,0.30721 0.32238,0.30721 0.32617,0.73957 -0.004,0.44375 -0.32617,0.75475 -0.31859,0.30721 -0.73579,0.30721 z"
         style="stroke-width:0.2670069"
         id="path946"
         inkscape:connector-curvature="0" />
      <path
         d="m 115.23608,158.10456 q -0.94817,0 -1.62328,-0.37548 -0.6751,-0.37927 -1.03541,-1.05437 -0.36031,-0.67889 -0.36031,-1.57397 0,-0.89508 0.36031,-1.57019 0.36031,-0.67889 1.03541,-1.05437 0.67511,-0.37927 1.62328,-0.37927 0.85716,0 1.48295,0.311 0.62959,0.30721 0.97473,0.87232 0.34514,0.56133 0.34893,1.31987 h -1.94187 q -0.0417,-0.45892 -0.26549,-0.69786 -0.21998,-0.24273 -0.56891,-0.24273 -0.4134,0 -0.66372,0.35651 -0.24653,0.35272 -0.24653,1.06955 0,0.71682 0.24653,1.07333 0.25032,0.35272 0.66372,0.35272 0.34514,0 0.5727,-0.23894 0.22757,-0.24273 0.2617,-0.70165 h 1.94187 q -0.0152,1.15678 -0.76613,1.84705 -0.74716,0.68648 -2.04048,0.68648 z"
         style="stroke-width:0.2670069"
         id="path948"
         inkscape:connector-curvature="0" />
      <path
         d="m 121.72352,158.10456 q -0.94818,0 -1.62328,-0.37548 -0.67511,-0.37927 -1.03541,-1.05437 -0.36031,-0.67889 -0.36031,-1.57397 0,-0.89508 0.36031,-1.57019 0.3603,-0.67889 1.03541,-1.05437 0.6751,-0.37927 1.62328,-0.37927 0.94818,0 1.62328,0.37927 0.6751,0.37548 1.03541,1.05437 0.36031,0.67511 0.36031,1.57019 0,0.89508 -0.36031,1.57397 -0.36031,0.6751 -1.03541,1.05437 -0.6751,0.37548 -1.62328,0.37548 z m 0.0152,-1.54742 q 0.39823,0 0.62959,-0.39065 0.23515,-0.39444 0.23515,-1.08092 0,-0.68649 -0.23515,-1.07713 -0.23136,-0.39445 -0.62959,-0.39445 -0.42099,0 -0.65993,0.39445 -0.23515,0.39064 -0.23515,1.07713 0,0.68648 0.23515,1.08092 0.23894,0.39065 0.65993,0.39065 z"
         style="stroke-width:0.2670069"
         id="path950"
         inkscape:connector-curvature="0" />
      <path
         d="m 125.59208,157.99837 v -5.82561 h 1.98738 v 1.10747 h 0.0607 q 0.18205,-0.54615 0.622,-0.86473 0.43996,-0.31859 1.04679,-0.31859 0.61442,0 1.05817,0.32617 0.44374,0.32238 0.53477,0.85715 h 0.0607 q 0.14792,-0.53477 0.62959,-0.85715 0.48168,-0.32617 1.13023,-0.32617 0.83819,0 1.35779,0.53856 0.52339,0.53857 0.52339,1.43365 v 3.92925 h -2.09357 v -3.39827 q 0,-0.38307 -0.19343,-0.59925 -0.19343,-0.21998 -0.5196,-0.21998 -0.32238,0 -0.51202,0.21998 -0.18584,0.21618 -0.18584,0.59925 v 3.39827 h -2.00255 v -3.39827 q 0,-0.38307 -0.19343,-0.59925 -0.19343,-0.21998 -0.5196,-0.21998 -0.32238,0 -0.51202,0.21998 -0.18584,0.21618 -0.18584,0.59925 v 3.39827 z"
         style="stroke-width:0.2670069"
         id="path952"
         inkscape:connector-curvature="0" />
    </g>
  </g>
</svg>
