<?xml version="1.0" encoding="UTF-8" standalone="no"?>
<!-- Created with Inkscape (http://www.inkscape.org/) -->

<svg
   xmlns:i="http://ns.adobe.com/AdobeIllustrator/10.0/"
   xmlns:dc="http://purl.org/dc/elements/1.1/"
   xmlns:cc="http://creativecommons.org/ns#"
   xmlns:rdf="http://www.w3.org/1999/02/22-rdf-syntax-ns#"
   xmlns:svg="http://www.w3.org/2000/svg"
   xmlns="http://www.w3.org/2000/svg"
   xmlns:sodipodi="http://sodipodi.sourceforge.net/DTD/sodipodi-0.dtd"
   xmlns:inkscape="http://www.inkscape.org/namespaces/inkscape"
   width="100"
   height="100"
   viewBox="0 0 26.458333 26.458334"
   version="1.1"
   id="svg840"
   inkscape:version="0.92.4 5da689c313, 2019-01-14"
   sodipodi:docname="rocket.svg">
  <defs
     id="defs834" />
  <sodipodi:namedview
     id="base"
     pagecolor="#ffffff"
     bordercolor="#666666"
     borderopacity="1.0"
     inkscape:pageopacity="0.0"
     inkscape:pageshadow="2"
     inkscape:zoom="2.8"
     inkscape:cx="66.738558"
     inkscape:cy="66.213454"
     inkscape:document-units="mm"
     inkscape:current-layer="layer1"
     showgrid="false"
     units="px"
     fit-margin-top="0"
     fit-margin-left="0"
     fit-margin-right="0"
     fit-margin-bottom="0"
     inkscape:window-width="1924"
     inkscape:window-height="706"
     inkscape:window-x="613"
     inkscape:window-y="170"
     inkscape:window-maximized="0" />
  <metadata
     id="metadata837">
    <rdf:RDF>
      <cc:Work
         rdf:about="">
        <dc:format>image/svg+xml</dc:format>
        <dc:type
           rdf:resource="http://purl.org/dc/dcmitype/StillImage" />
        <dc:title></dc:title>
      </cc:Work>
    </rdf:RDF>
  </metadata>
  <g
     inkscape:label="Layer 1"
     inkscape:groupmode="layer"
     id="layer1"
     transform="translate(-59.90336,-131.30961)">
    <g
       style="fill:#2f3542"
       i:extraneous="self"
       id="g8"
       transform="matrix(0.2782284,0,0,0.2782284,59.321907,130.59414)">
      <g
         id="g6">
        <path
           d="m 29.6,78.2 c -1,1.6 -2.9,2.5 -4.2,2.8 -2.2,0.4 -4.3,0.6 -5.9,1.9 -0.5,0.4 -1.3,0.1 -1.4,-0.5 -0.3,-1.9 0.2,-4 1.1,-5.3 -0.4,0 -0.7,0.1 -1.1,0.3 -0.7,0.3 -1.4,-0.3 -1.3,-1 0.6,-2.2 2.1,-5.1 4.4,-6.4 L 17.4,66.2 C 17.2,66 16.9,65.7 16.7,65.5 9.3,67.1 4.7,75.9 3.1,81.9 2.7,83.6 4.4,84.9 6,84.2 6.8,83.8 7.6,83.6 8.5,83.6 6.5,86.6 5.2,91.5 6,96 6.3,97.5 8.1,98.2 9.3,97.2 13.1,94.1 18,93.8 23.1,92.8 26.9,92 33,88.7 34.5,83.1 34.1,82.8 33.7,82.4 33.3,82 Z"
           id="path2"
           inkscape:connector-curvature="0" />
        <path
           d="M 78.5,54.3 C 93.5,37.3 97.3,12.9 96.9,5.5 96.9,4.7 96.5,4 96,3.5 95.5,3 94.8,2.7 94,2.6 86.6,2.2 62.2,5.9 45.2,21 L 39.8,19 C 33.8,16.8 27.1,18.6 23,23.4 l -9.4,11.1 c -1.3,1.6 -0.7,4 1.2,4.7 l 12,4.4 c -3.3,5.4 -5.6,10.1 -7,13 -0.9,2.1 -0.5,4.5 1.1,6.2 l 15.8,15.8 c 1.6,1.6 4.1,2.1 6.2,1.1 3,-1.4 7.7,-3.7 13,-7 l 4.4,12 c 0.7,1.9 3.1,2.6 4.7,1.2 l 11,-9.4 c 4.8,-4.1 6.6,-10.8 4.4,-16.8 z M 72,40.9 c -3.8,3.8 -9.8,3.8 -13.6,0 -3.8,-3.8 -3.8,-9.8 0,-13.6 3.8,-3.8 9.8,-3.8 13.6,0 3.8,3.8 3.8,9.9 0,13.6 z"
           id="path4"
           inkscape:connector-curvature="0" />
      </g>
    </g>
  </g>
</svg>
