<?xml version="1.0" encoding="UTF-8" standalone="no"?>
<!-- Created with Inkscape (http://www.inkscape.org/) -->

<svg
   xmlns:dc="http://purl.org/dc/elements/1.1/"
   xmlns:cc="http://creativecommons.org/ns#"
   xmlns:rdf="http://www.w3.org/1999/02/22-rdf-syntax-ns#"
   xmlns:svg="http://www.w3.org/2000/svg"
   xmlns="http://www.w3.org/2000/svg"
   xmlns:sodipodi="http://sodipodi.sourceforge.net/DTD/sodipodi-0.dtd"
   xmlns:inkscape="http://www.inkscape.org/namespaces/inkscape"
   width="100"
   height="100"
   viewBox="0 0 26.458333 26.458333"
   version="1.1"
   id="svg1427"
   inkscape:version="0.92.4 5da689c313, 2019-01-14"
   sodipodi:docname="thoughts.svg">
  <defs
     id="defs1421" />
  <sodipodi:namedview
     id="base"
     pagecolor="#ffffff"
     bordercolor="#666666"
     borderopacity="1.0"
     inkscape:pageopacity="0.0"
     inkscape:pageshadow="2"
     inkscape:zoom="1.979899"
     inkscape:cx="41.242138"
     inkscape:cy="36.688791"
     inkscape:document-units="mm"
     inkscape:current-layer="layer1"
     showgrid="false"
     units="px"
     fit-margin-top="0"
     fit-margin-left="0"
     fit-margin-right="0"
     fit-margin-bottom="0"
     inkscape:window-width="1387"
     inkscape:window-height="741"
     inkscape:window-x="736"
     inkscape:window-y="198"
     inkscape:window-maximized="0" />
  <metadata
     id="metadata1424">
    <rdf:RDF>
      <cc:Work
         rdf:about="">
        <dc:format>image/svg+xml</dc:format>
        <dc:type
           rdf:resource="http://purl.org/dc/dcmitype/StillImage" />
        <dc:title></dc:title>
      </cc:Work>
    </rdf:RDF>
  </metadata>
  <g
     inkscape:label="Layer 1"
     inkscape:groupmode="layer"
     id="layer1"
     transform="translate(-26.603714,-100.68147)">
    <circle
       style="fill:#2f3542;stroke-width:0.33072805"
       cx="27.926702"
       cy="125.81689"
       r="1.3229122"
       id="circle4" />
    <circle
       style="fill:#2f3542;stroke-width:0.33072805"
       cx="32.556896"
       cy="122.50961"
       r="1.9843684"
       id="circle6" />
    <path
       style="fill:#2f3542;stroke-width:0.33072805"
       d="m 51.386436,109.69518 a 4.4706165,4.4706165 0 0 0 0.352688,-1.73761 4.6358153,4.6358153 0 0 0 -4.630194,-4.6302 4.5138096,4.5138096 0 0 0 -1.066466,0.12783 4.6040655,4.6040655 0 0 0 -8.148047,-0.57877 4.5511157,4.5511157 0 0 0 -2.691697,-0.87203 4.6376342,4.6376342 0 0 0 -4.588851,4.01008 4.6306226,4.6306226 0 0 0 0.42052,9.21517 4.6586025,4.6586025 0 0 0 5.234797,2.5218 4.5915307,4.5915307 0 0 0 7.500152,1.39128 4.3989147,4.3989147 0 0 0 3.968736,-1.32292 4.2240257,4.2240257 0 0 0 0.693769,0.0595 4.6227515,4.6227515 0 0 0 2.954593,-8.18423 z"
       id="path8"
       inkscape:connector-curvature="0" />
  </g>
</svg>
