<?xml version="1.0" encoding="UTF-8" standalone="no"?>
<!-- Created with Inkscape (http://www.inkscape.org/) -->

<svg
   xmlns:dc="http://purl.org/dc/elements/1.1/"
   xmlns:cc="http://creativecommons.org/ns#"
   xmlns:rdf="http://www.w3.org/1999/02/22-rdf-syntax-ns#"
   xmlns:svg="http://www.w3.org/2000/svg"
   xmlns="http://www.w3.org/2000/svg"
   xmlns:sodipodi="http://sodipodi.sourceforge.net/DTD/sodipodi-0.dtd"
   xmlns:inkscape="http://www.inkscape.org/namespaces/inkscape"
   width="100"
   height="100"
   viewBox="0 0 99.999997 99.999997"
   id="svg2"
   version="1.1"
   inkscape:version="0.91 r13725"
   sodipodi:docname="block-predictor.svg">
  <defs
     id="defs4" />
  <sodipodi:namedview
     id="base"
     pagecolor="#ffffff"
     bordercolor="#666666"
     borderopacity="1.0"
     inkscape:pageopacity="0.0"
     inkscape:pageshadow="2"
     inkscape:zoom="5.6"
     inkscape:cx="52.649729"
     inkscape:cy="28.025474"
     inkscape:document-units="px"
     inkscape:current-layer="layer1"
     showgrid="false"
     units="px"
     inkscape:snap-bbox="true"
     inkscape:bbox-paths="true"
     inkscape:bbox-nodes="true"
     inkscape:snap-bbox-midpoints="true"
     inkscape:snap-bbox-edge-midpoints="true"
     inkscape:object-paths="true"
     inkscape:object-nodes="true"
     inkscape:snap-intersection-paths="true"
     inkscape:snap-smooth-nodes="true"
     inkscape:snap-object-midpoints="true"
     inkscape:snap-center="true"
     inkscape:window-width="2542"
     inkscape:window-height="1399"
     inkscape:window-x="8"
     inkscape:window-y="31"
     inkscape:window-maximized="0" />
  <metadata
     id="metadata7">
    <rdf:RDF>
      <cc:Work
         rdf:about="">
        <dc:format>image/svg+xml</dc:format>
        <dc:type
           rdf:resource="http://purl.org/dc/dcmitype/StillImage" />
        <dc:title></dc:title>
      </cc:Work>
    </rdf:RDF>
  </metadata>
  <g
     inkscape:label="Layer 1"
     inkscape:groupmode="layer"
     id="layer1"
     transform="translate(0,-952.36223)">
    <path
       style="fill:#556270;fill-opacity:1"
       d="M 50 0 L 33.333984 16.666016 L 40.167969 23.501953 L 23.501953 40.167969 L 16.666016 33.333984 L 0 50 L 16.666016 66.666016 L 23.501953 59.832031 L 40.167969 76.498047 L 33.333984 83.333984 L 50 100 L 66.666016 83.333984 L 59.832031 76.498047 L 76.498047 59.832031 L 78.333984 61.666016 L 81.666016 58.333984 L 75 51.666016 L 71.666016 55 L 73.501953 56.833984 L 56.833984 73.501953 L 50 66.666016 L 43.166016 73.501953 L 26.498047 56.833984 L 33.333984 50 L 26.498047 43.166016 L 43.166016 26.498047 L 50 33.333984 L 66.666016 16.666016 L 50 0 z M 83.333984 33.333984 L 80 36.666016 L 83.333984 40 L 86.666016 36.666016 L 83.333984 33.333984 z M 78.333984 38.333984 L 71.666016 45 L 75 48.333984 L 81.666016 41.666016 L 78.333984 38.333984 z M 88.333984 38.333984 L 85 41.666016 L 91.666016 48.333984 L 95 45 L 88.333984 38.333984 z M 70 46.666016 L 66.666016 50 L 70 53.333984 L 73.333984 50 L 70 46.666016 z M 96.666016 46.666016 L 93.333984 50 L 96.666016 53.333984 L 100 50 L 96.666016 46.666016 z M 91.666016 51.666016 L 85 58.333984 L 88.333984 61.666016 L 95 55 L 91.666016 51.666016 z M 83.333984 60 L 80 63.333984 L 83.333984 66.666016 L 86.666016 63.333984 L 83.333984 60 z "
       transform="translate(0,952.36223)"
       id="rect4136" />
  </g>
</svg>
