<?xml version="1.0" encoding="UTF-8" standalone="no"?>
<svg
   xmlns:dc="http://purl.org/dc/elements/1.1/"
   xmlns:cc="http://creativecommons.org/ns#"
   xmlns:rdf="http://www.w3.org/1999/02/22-rdf-syntax-ns#"
   xmlns:svg="http://www.w3.org/2000/svg"
   xmlns="http://www.w3.org/2000/svg"
   xmlns:sodipodi="http://sodipodi.sourceforge.net/DTD/sodipodi-0.dtd"
   xmlns:inkscape="http://www.inkscape.org/namespaces/inkscape"
   height="28"
   id="Layer_1"
   version="1.1"
   viewBox="0 0 28 28"
   width="28"
   xml:space="preserve"
   inkscape:version="0.91 r13725"
   sodipodi:docname="back-arrow.svg"><metadata
     id="metadata4190"><rdf:RDF><cc:Work
         rdf:about=""><dc:format>image/svg+xml</dc:format><dc:type
           rdf:resource="http://purl.org/dc/dcmitype/StillImage" /><dc:title></dc:title></cc:Work></rdf:RDF></metadata><defs
     id="defs4188" /><sodipodi:namedview
     pagecolor="#ffffff"
     bordercolor="#666666"
     borderopacity="1"
     objecttolerance="10"
     gridtolerance="10"
     guidetolerance="10"
     inkscape:pageopacity="0"
     inkscape:pageshadow="2"
     inkscape:window-width="2542"
     inkscape:window-height="1399"
     id="namedview4186"
     showgrid="false"
     fit-margin-top="0"
     fit-margin-left="0"
     fit-margin-right="0"
     fit-margin-bottom="0"
     inkscape:zoom="13.401883"
     inkscape:cx="10.752994"
     inkscape:cy="12.066055"
     inkscape:window-x="8"
     inkscape:window-y="31"
     inkscape:window-maximized="0"
     inkscape:current-layer="Layer_1" /><path
     d="M 26,12 6.8,12 11.42,7.38 C 11.814,6.986 12,6.516 12,6 12,5.016 11.187,4 10,4 9.469,4 9.006,4.193 8.62,4.58 L 0.662,12.538 C 0.334,12.866 0,13.271 0,14 c 0,0.729 0.279,1.08 0.646,1.447 L 8.62,23.42 C 9.006,23.807 9.469,24 10,24 c 1.188,0 2,-1.016 2,-2 0,-0.516 -0.186,-0.986 -0.58,-1.38 L 6.8,16 26,16 c 1.104,0 2,-0.896 2,-2 0,-1.104 -0.896,-2 -2,-2 z"
     id="path4184"
     style="fill:#f3f2f0;fill-opacity:1"
     inkscape:connector-curvature="0" /></svg>