<?xml version="1.0" encoding="UTF-8" standalone="no"?>
<!-- Created with Inkscape (http://www.inkscape.org/) -->

<svg
   xmlns:dc="http://purl.org/dc/elements/1.1/"
   xmlns:cc="http://creativecommons.org/ns#"
   xmlns:rdf="http://www.w3.org/1999/02/22-rdf-syntax-ns#"
   xmlns:svg="http://www.w3.org/2000/svg"
   xmlns="http://www.w3.org/2000/svg"
   xmlns:sodipodi="http://sodipodi.sourceforge.net/DTD/sodipodi-0.dtd"
   xmlns:inkscape="http://www.inkscape.org/namespaces/inkscape"
   width="71.683052mm"
   height="150.41197mm"
   viewBox="0 0 253.99507 532.9558"
   id="svg4216"
   version="1.1"
   inkscape:version="0.91 r13725"
   sodipodi:docname="circuit-buck-v3-white.svg"
   inkscape:export-filename="/home/sabreok/jak-file-net/projects/Art/final_render/circuit-buck-v3.png"
   inkscape:export-xdpi="425.54999"
   inkscape:export-ydpi="425.54999">
  <defs
     id="defs4218" />
  <sodipodi:namedview
     id="base"
     pagecolor="#000000"
     bordercolor="#666666"
     borderopacity="1.0"
     inkscape:pageopacity="0"
     inkscape:pageshadow="2"
     inkscape:zoom="1.4"
     inkscape:cx="-6.7758314"
     inkscape:cy="174.81468"
     inkscape:document-units="px"
     inkscape:current-layer="layer1"
     showgrid="false"
     showborder="true"
     inkscape:window-width="2542"
     inkscape:window-height="1399"
     inkscape:window-x="8"
     inkscape:window-y="31"
     inkscape:window-maximized="0"
     fit-margin-top="0"
     fit-margin-left="0"
     fit-margin-right="0"
     fit-margin-bottom="0"
     inkscape:snap-bbox="true"
     inkscape:bbox-paths="true"
     inkscape:bbox-nodes="true"
     inkscape:snap-bbox-edge-midpoints="true"
     inkscape:snap-bbox-midpoints="true"
     inkscape:object-paths="true"
     inkscape:snap-intersection-paths="true"
     inkscape:object-nodes="true"
     inkscape:snap-smooth-nodes="true"
     inkscape:snap-midpoints="true"
     inkscape:snap-object-midpoints="true"
     borderlayer="true"
     inkscape:snap-global="false" />
  <metadata
     id="metadata4221">
    <rdf:RDF>
      <cc:Work
         rdf:about="">
        <dc:format>image/svg+xml</dc:format>
        <dc:type
           rdf:resource="http://purl.org/dc/dcmitype/StillImage" />
        <dc:title></dc:title>
      </cc:Work>
    </rdf:RDF>
  </metadata>
  <g
     inkscape:label="Layer 1"
     inkscape:groupmode="layer"
     id="layer1"
     transform="translate(127.61684,-810.78972)">
    <path
       style="fill:none;fill-rule:evenodd;stroke:#ffffff;stroke-width:6;stroke-linecap:butt;stroke-linejoin:miter;stroke-miterlimit:4;stroke-dasharray:none;stroke-opacity:1"
       d="m -50,1052.3622 c 0,0 -2.836786,79.7818 0,90 2.836786,10.2182 19.035299,33.947 33.333759,35 14.8194605,1.0913 18.0079452,-0.1669 32.827406,0 14.336289,0.1615 31.359192,-26.5676 33.838835,-35 2.479643,-8.4324 0,-90 0,-90 z"
       id="path4764"
       inkscape:connector-curvature="0"
       sodipodi:nodetypes="czsszcc" />
    <path
       style="fill:none;fill-opacity:1;fill-rule:evenodd;stroke:#ffffff;stroke-width:3;stroke-linecap:butt;stroke-linejoin:miter;stroke-opacity:1;stroke-miterlimit:4;stroke-dasharray:none"
       d="m -50.255089,1068.0018 35.860415,35.8604 -36.61803,0"
       id="path4766"
       inkscape:connector-curvature="0"
       sodipodi:nodetypes="ccc" />
    <path
       sodipodi:nodetypes="ccc"
       inkscape:connector-curvature="0"
       id="path4768"
       d="m 50.054818,1068.0018 -35.860415,35.8604 36.61803,0"
       style="fill:none;fill-opacity:1;fill-rule:evenodd;stroke:#ffffff;stroke-width:3;stroke-linecap:butt;stroke-linejoin:miter;stroke-opacity:1;stroke-miterlimit:4;stroke-dasharray:none" />
    <path
       style="fill:none;fill-rule:evenodd;stroke:#ffffff;stroke-width:3;stroke-linecap:butt;stroke-linejoin:miter;stroke-miterlimit:4;stroke-dasharray:none;stroke-opacity:1"
       d="M -49.928569,1054.4336 1.6e-4,1104.3622 48.857141,1055.5051"
       id="path4772"
       inkscape:connector-curvature="0"
       sodipodi:nodetypes="ccc" />
    <path
       style="fill:none;fill-rule:evenodd;stroke:#ffffff;stroke-width:3;stroke-linecap:butt;stroke-linejoin:miter;stroke-miterlimit:4;stroke-dasharray:none;stroke-opacity:1"
       d="m -20,1103.9693 0,72.8572"
       id="path4778"
       inkscape:connector-curvature="0"
       sodipodi:nodetypes="cc" />
    <path
       sodipodi:nodetypes="cc"
       inkscape:connector-curvature="0"
       id="path4780"
       d="m 20,1103.9694 0,72.1429"
       style="fill:none;fill-rule:evenodd;stroke:#ffffff;stroke-width:3;stroke-linecap:butt;stroke-linejoin:miter;stroke-miterlimit:4;stroke-dasharray:none;stroke-opacity:1" />
    <path
       sodipodi:nodetypes="cc"
       inkscape:connector-curvature="0"
       id="path4785"
       d="m 50.357171,1128.0765 -102.142914,0"
       style="fill:none;fill-rule:evenodd;stroke:#ffffff;stroke-width:3;stroke-linecap:butt;stroke-linejoin:miter;stroke-miterlimit:4;stroke-dasharray:none;stroke-opacity:1" />
    <path
       style="fill:none;fill-rule:evenodd;stroke:#ffffff;stroke-width:3;stroke-linecap:butt;stroke-linejoin:miter;stroke-miterlimit:4;stroke-dasharray:none;stroke-opacity:1"
       d="m 50.357171,1120.0765 -102.142914,0"
       id="path4787"
       inkscape:connector-curvature="0"
       sodipodi:nodetypes="cc" />
    <path
       style="fill:none;fill-rule:evenodd;stroke:#ffffff;stroke-width:6;stroke-linecap:butt;stroke-linejoin:miter;stroke-miterlimit:4;stroke-dasharray:none;stroke-opacity:1"
       d="M -99.124383,820.5864 -68,851.71078 l 0,154.68952 47.162423,47.1624"
       id="path4795"
       inkscape:connector-curvature="0"
       sodipodi:nodetypes="cccc" />
    <path
       sodipodi:nodetypes="ccc"
       inkscape:connector-curvature="0"
       id="path4799"
       d="m -48.245703,1025.4105 0,-121.41401 31.124383,-31.12438"
       style="fill:none;fill-rule:evenodd;stroke:#ffffff;stroke-width:6;stroke-linecap:butt;stroke-linejoin:miter;stroke-miterlimit:4;stroke-dasharray:none;stroke-opacity:1" />
    <path
       style="fill:none;fill-rule:evenodd;stroke:#ffffff;stroke-width:6;stroke-linecap:butt;stroke-linejoin:miter;stroke-miterlimit:4;stroke-dasharray:none;stroke-opacity:1"
       d="m -30.821428,1052.0051 -61.875,-61.87504 0,-101.875"
       id="path4803"
       inkscape:connector-curvature="0"
       sodipodi:nodetypes="ccc" />
    <path
       style="fill:none;fill-rule:evenodd;stroke:#ffffff;stroke-width:3;stroke-linecap:butt;stroke-linejoin:miter;stroke-miterlimit:4;stroke-dasharray:none;stroke-opacity:1"
       d="m -92.620581,980.24226 c -5.850466,0 -42.811789,0 -22.551399,0"
       id="path4805"
       inkscape:connector-curvature="0"
       sodipodi:nodetypes="cc" />
    <path
       style="fill:none;fill-rule:evenodd;stroke:#ffffff;stroke-width:3;stroke-linecap:butt;stroke-linejoin:miter;stroke-miterlimit:4;stroke-dasharray:none;stroke-opacity:1"
       d="m -47.25,1026.6836 -59.46429,0"
       id="path4807"
       inkscape:connector-curvature="0" />
    <path
       style="fill:none;fill-rule:evenodd;stroke:#ffffff;stroke-width:6;stroke-linecap:butt;stroke-linejoin:miter;stroke-miterlimit:4;stroke-dasharray:none;stroke-opacity:1"
       d="m -27.213203,1048.5741 0,-87.87889"
       id="path4809"
       inkscape:connector-curvature="0"
       sodipodi:nodetypes="cc" />
    <path
       style="fill:none;fill-rule:evenodd;stroke:#ffffff;stroke-width:6;stroke-linecap:butt;stroke-linejoin:miter;stroke-miterlimit:4;stroke-dasharray:none;stroke-opacity:1"
       d="m -50.780471,1065.7264 c -18.412275,-0.7771 -43.627175,-17.9737 -62.250649,-19.1137 l 28.644493,48.0182 c 8.215328,-7.3783 21.559795,-4.371 17.948792,10.8592 l 14.647212,-6.061"
       id="path4830"
       inkscape:connector-curvature="0"
       sodipodi:nodetypes="ccccc" />
    <path
       sodipodi:nodetypes="ccccc"
       inkscape:connector-curvature="0"
       id="path4832"
       d="m 49.619268,1065.7264 c 18.412275,-0.7771 43.627175,-17.9737 62.250652,-19.1137 l -28.644496,48.0182 c -8.215328,-7.3783 -21.559795,-4.371 -17.948792,10.8592 l -14.647212,-6.061"
       style="fill:none;fill-rule:evenodd;stroke:#ffffff;stroke-width:6;stroke-linecap:butt;stroke-linejoin:miter;stroke-miterlimit:4;stroke-dasharray:none;stroke-opacity:1" />
    <path
       style="fill:none;fill-rule:evenodd;stroke:#ffffff;stroke-width:6;stroke-linecap:butt;stroke-linejoin:miter;stroke-miterlimit:4;stroke-dasharray:none;stroke-opacity:1"
       d="M -50.883883,1102.3622 -75,1263.7908 1.6e-4,1339.4997 75,1264.9752 51.428571,1102.3622"
       id="path4834"
       inkscape:connector-curvature="0"
       sodipodi:nodetypes="ccccc" />
    <path
       style="fill:none;fill-rule:evenodd;stroke:#ffffff;stroke-width:3;stroke-linecap:butt;stroke-linejoin:miter;stroke-miterlimit:4;stroke-dasharray:none;stroke-opacity:1"
       d="M -41.428571,1297.3622 1.6e-4,1257.5408 39.464286,1298.6122"
       id="path4838"
       inkscape:connector-curvature="0"
       sodipodi:nodetypes="ccc" />
    <path
       inkscape:connector-curvature="0"
       id="path4840"
       d="m 46.642845,1291.7908 -46.642685,-48.25 -48.071577,46.4643"
       style="fill:none;fill-rule:evenodd;stroke:#ffffff;stroke-width:3;stroke-linecap:butt;stroke-linejoin:miter;stroke-miterlimit:4;stroke-dasharray:none;stroke-opacity:1"
       sodipodi:nodetypes="ccc" />
    <circle
       r="6.7644801"
       cy="1299.6515"
       cx="-0.96107328"
       id="circle4842"
       style="opacity:1;fill:#ffffff;fill-opacity:1;stroke:none;stroke-width:2;stroke-miterlimit:4;stroke-dasharray:none;stroke-opacity:1" />
    <path
       style="fill:none;fill-rule:evenodd;stroke:#ffffff;stroke-width:2;stroke-linecap:butt;stroke-linejoin:miter;stroke-miterlimit:4;stroke-dasharray:none;stroke-opacity:1"
       d="m -49.537514,1158.6112 -12.170348,4.8777 z m -1.134666,7.919 -12.170342,4.8779 z m -1.134661,7.9191 -12.170345,4.8779 z m -1.134664,7.9191 -12.170342,4.878 z m -1.134662,7.9192 -12.170344,4.8779 z m -1.134663,7.9191 -12.170346,4.8778 z m -1.134661,7.9192 -12.170348,4.8777 z m -1.134661,7.9192 -12.170348,4.8777 z m -1.134663,7.919 -12.170346,4.8779 z m -1.134665,7.9191 -12.170344,4.8779 z m -1.134664,7.9191 -12.170342,4.878 z m -1.134661,7.9192 -12.170345,4.8778 z m -1.134664,7.9191 -12.170342,4.8779 z"
       id="path4844"
       inkscape:connector-curvature="0"
       sodipodi:nodetypes="ccccccccccccccccccccccccccccccccccccccc" />
    <path
       sodipodi:nodetypes="ccccccccccccccccccccccccccccccccccccccc"
       inkscape:connector-curvature="0"
       id="path4903"
       d="m 49.686329,1158.6112 12.170348,4.8777 z m 1.134666,7.919 12.170342,4.8779 z m 1.134661,7.9191 12.170345,4.8779 z m 1.134664,7.9191 12.170342,4.878 z m 1.134662,7.9192 12.170344,4.8779 z m 1.134663,7.9191 12.170346,4.8778 z m 1.134661,7.9192 12.170348,4.8777 z m 1.134661,7.9192 12.170348,4.8777 z m 1.134663,7.919 12.170346,4.8779 z m 1.134665,7.9191 12.170344,4.8779 z m 1.134664,7.9191 12.170342,4.878 z m 1.134661,7.9192 12.170345,4.8778 z m 1.134664,7.9191 12.170342,4.8779 z"
       style="fill:none;fill-rule:evenodd;stroke:#ffffff;stroke-width:2;stroke-linecap:butt;stroke-linejoin:miter;stroke-miterlimit:4;stroke-dasharray:none;stroke-opacity:1" />
    <circle
       style="opacity:1;fill:none;fill-opacity:0.48333333;stroke:#ffffff;stroke-width:3;stroke-miterlimit:4;stroke-dasharray:none;stroke-opacity:1"
       id="path4908"
       cx="-101.96449"
       cy="817.50171"
       r="5.2119913" />
    <circle
       r="5.2119913"
       cy="869.7771"
       cx="-14.333759"
       id="circle4910"
       style="opacity:1;fill:none;fill-opacity:0.48333333;stroke:#ffffff;stroke-width:3;stroke-miterlimit:4;stroke-dasharray:none;stroke-opacity:1" />
    <circle
       style="opacity:1;fill:none;fill-opacity:0.48333333;stroke:#ffffff;stroke-width:3;stroke-miterlimit:4;stroke-dasharray:none;stroke-opacity:1"
       id="circle4912"
       cx="-92.873123"
       cy="882.65656"
       r="5.2119913" />
    <circle
       r="5.2119913"
       cy="980.13629"
       cx="-120.90485"
       id="circle4914"
       style="opacity:1;fill:none;fill-opacity:0.48333333;stroke:#ffffff;stroke-width:3;stroke-miterlimit:4;stroke-dasharray:none;stroke-opacity:1" />
    <circle
       style="opacity:1;fill:none;fill-opacity:0.48333333;stroke:#ffffff;stroke-width:3;stroke-miterlimit:4;stroke-dasharray:none;stroke-opacity:1"
       id="circle4916"
       cx="-27.213198"
       cy="955.89264"
       r="5.2119913" />
    <circle
       r="5.2119913"
       cy="1026.432"
       cx="-111.81348"
       id="circle4918"
       style="opacity:1;fill:none;fill-opacity:0.48333333;stroke:#ffffff;stroke-width:3;stroke-miterlimit:4;stroke-dasharray:none;stroke-opacity:1" />
    <path
       sodipodi:nodetypes="cccc"
       inkscape:connector-curvature="0"
       id="path4920"
       d="m 97.885778,820.5864 -31.124383,31.12438 0,154.68952 -47.162425,47.1624"
       style="fill:none;fill-rule:evenodd;stroke:#ffffff;stroke-width:6;stroke-linecap:butt;stroke-linejoin:miter;stroke-miterlimit:4;stroke-dasharray:none;stroke-opacity:1" />
    <path
       style="fill:none;fill-rule:evenodd;stroke:#ffffff;stroke-width:6;stroke-linecap:butt;stroke-linejoin:miter;stroke-miterlimit:4;stroke-dasharray:none;stroke-opacity:1"
       d="m 47.007098,1025.4105 0,-121.41401 -31.124388,-31.12438"
       id="path4922"
       inkscape:connector-curvature="0"
       sodipodi:nodetypes="ccc" />
    <path
       sodipodi:nodetypes="ccc"
       inkscape:connector-curvature="0"
       id="path4924"
       d="m 29.582823,1052.0051 61.875,-61.87504 0,-101.875"
       style="fill:none;fill-rule:evenodd;stroke:#ffffff;stroke-width:6;stroke-linecap:butt;stroke-linejoin:miter;stroke-miterlimit:4;stroke-dasharray:none;stroke-opacity:1" />
    <path
       sodipodi:nodetypes="cc"
       inkscape:connector-curvature="0"
       id="path4926"
       d="m 91.381976,980.24226 c 5.850466,0 42.811794,0 22.551394,0"
       style="fill:none;fill-rule:evenodd;stroke:#ffffff;stroke-width:3;stroke-linecap:butt;stroke-linejoin:miter;stroke-miterlimit:4;stroke-dasharray:none;stroke-opacity:1" />
    <path
       inkscape:connector-curvature="0"
       id="path4928"
       d="m 46.011395,1026.6836 59.464295,0"
       style="fill:none;fill-rule:evenodd;stroke:#ffffff;stroke-width:3;stroke-linecap:butt;stroke-linejoin:miter;stroke-miterlimit:4;stroke-dasharray:none;stroke-opacity:1" />
    <path
       sodipodi:nodetypes="cc"
       inkscape:connector-curvature="0"
       id="path4930"
       d="m 25.9746,1048.5741 0,-87.87889"
       style="fill:none;fill-rule:evenodd;stroke:#ffffff;stroke-width:6;stroke-linecap:butt;stroke-linejoin:miter;stroke-miterlimit:4;stroke-dasharray:none;stroke-opacity:1" />
    <circle
       r="5.2119913"
       cy="817.50171"
       cx="-100.72589"
       id="circle4932"
       style="opacity:1;fill:none;fill-opacity:0.48333333;stroke:#ffffff;stroke-width:3;stroke-miterlimit:4;stroke-dasharray:none;stroke-opacity:1"
       transform="scale(-1,1)" />
    <circle
       style="opacity:1;fill:none;fill-opacity:0.48333333;stroke:#ffffff;stroke-width:3;stroke-miterlimit:4;stroke-dasharray:none;stroke-opacity:1"
       id="circle4934"
       cx="-13.095154"
       cy="869.7771"
       r="5.2119913"
       transform="scale(-1,1)" />
    <circle
       r="5.2119913"
       cy="882.65656"
       cx="-91.634521"
       id="circle4936"
       style="opacity:1;fill:none;fill-opacity:0.48333333;stroke:#ffffff;stroke-width:3;stroke-miterlimit:4;stroke-dasharray:none;stroke-opacity:1"
       transform="scale(-1,1)" />
    <circle
       style="opacity:1;fill:none;fill-opacity:0.48333333;stroke:#ffffff;stroke-width:3;stroke-miterlimit:4;stroke-dasharray:none;stroke-opacity:1"
       id="circle4938"
       cx="-119.66624"
       cy="980.13629"
       r="5.2119913"
       transform="scale(-1,1)" />
    <circle
       r="5.2119913"
       cy="955.89264"
       cx="-25.974586"
       id="circle4940"
       style="opacity:1;fill:none;fill-opacity:0.48333333;stroke:#ffffff;stroke-width:3;stroke-miterlimit:4;stroke-dasharray:none;stroke-opacity:1"
       transform="scale(-1,1)" />
    <circle
       style="opacity:1;fill:none;fill-opacity:0.48333333;stroke:#ffffff;stroke-width:3;stroke-miterlimit:4;stroke-dasharray:none;stroke-opacity:1"
       id="circle4942"
       cx="-110.57487"
       cy="1026.432"
       r="5.2119913"
       transform="scale(-1,1)" />
    <path
       style="opacity:1;fill:#ffffff;fill-opacity:1;stroke:none;stroke-width:3;stroke-miterlimit:4;stroke-dasharray:none;stroke-opacity:1"
       d="m -98.546875,1050.1289 -1.953125,0.4297 2.246094,10.2266 c 0.740773,0.2666 1.479665,0.5289 2.226562,0.8105 l -2.519531,-11.4668 z m 7.625,2.4219 -1.953125,0.4277 2.371094,10.7969 c 0.748553,0.3034 1.49925,0.613 2.25,0.9219 l -2.667969,-12.1465 z m 7.625,2.4199 -1.953125,0.4297 2.541016,11.5723 c 0.751037,0.3109 1.502489,0.6242 2.251953,0.9316 l -2.839844,-12.9336 z m 7.625,2.4219 -1.953125,0.4277 2.697266,12.2891 c 0.746632,0.2892 1.493182,0.5753 2.234375,0.8515 l -2.978516,-13.5683 z m 7.625,2.4199 -1.955078,0.4297 2.771484,12.6152 c 0.736131,0.2364 1.46886,0.4646 2.195313,0.6778 l -3.011719,-13.7227 z m 7.625,2.4219 -1.955078,0.4297 2.685547,12.2226 c 0.718041,0.1468 1.42942,0.2772 2.132812,0.3887 l -2.863281,-13.041 z"
       id="rect4948"
       inkscape:connector-curvature="0" />
    <path
       id="path4967"
       d="m 98.003509,1050.1289 1.953129,0.4297 -2.246098,10.2266 c -0.740773,0.2666 -1.479665,0.5289 -2.226562,0.8105 l 2.519531,-11.4668 z m -7.625,2.4219 1.953125,0.4277 -2.371094,10.7969 c -0.748553,0.3034 -1.49925,0.613 -2.25,0.9219 l 2.667969,-12.1465 z m -7.625,2.4199 1.953125,0.4297 -2.541016,11.5723 c -0.751037,0.3109 -1.502489,0.6242 -2.251953,0.9316 l 2.839844,-12.9336 z m -7.625,2.4219 1.953125,0.4277 -2.697266,12.2891 c -0.746632,0.2892 -1.493182,0.5753 -2.234375,0.8515 l 2.978516,-13.5683 z m -7.625,2.4199 1.955078,0.4297 -2.771484,12.6152 c -0.736131,0.2364 -1.46886,0.4646 -2.195313,0.6778 l 3.011719,-13.7227 z m -7.625,2.4219 1.955078,0.4297 -2.685547,12.2226 c -0.718041,0.1468 -1.42942,0.2772 -2.132812,0.3887 l 2.863281,-13.041 z"
       style="opacity:1;fill:#ffffff;fill-opacity:1;stroke:none;stroke-width:3;stroke-miterlimit:4;stroke-dasharray:none;stroke-opacity:1"
       inkscape:connector-curvature="0" />
    <path
       style="fill:none;fill-rule:evenodd;stroke:#ffffff;stroke-width:3;stroke-linecap:butt;stroke-linejoin:miter;stroke-miterlimit:4;stroke-dasharray:none;stroke-opacity:1"
       d="m 1.6e-4,1064.9614 0,14.0429"
       id="path4811"
       inkscape:connector-curvature="0"
       sodipodi:nodetypes="cc" />
    <path
       style="fill:none;fill-rule:evenodd;stroke:#ffffff;stroke-width:3;stroke-linecap:butt;stroke-linejoin:miter;stroke-miterlimit:4;stroke-dasharray:none;stroke-opacity:1"
       d="M -17.566979,1231.8104 1.6e-4,1215.7902 18.159851,1232.0875"
       id="path4817"
       inkscape:connector-curvature="0"
       sodipodi:nodetypes="ccc" />
    <path
       style="fill:none;fill-rule:evenodd;stroke:#ffffff;stroke-width:3;stroke-linecap:butt;stroke-linejoin:miter;stroke-miterlimit:4;stroke-dasharray:none;stroke-opacity:1"
       d="m 1.6e-4,1215.6879 0,-20.0247"
       id="path4819"
       inkscape:connector-curvature="0"
       sodipodi:nodetypes="cc" />
    <path
       style="fill:none;fill-rule:evenodd;stroke:#ffffff;stroke-width:3;stroke-linecap:butt;stroke-linejoin:miter;stroke-miterlimit:4;stroke-dasharray:none;stroke-opacity:1"
       d="m -13.06053,1065.9436 13.06069,13.0607 13.0607,-13.0608"
       id="path4824"
       inkscape:connector-curvature="0"
       sodipodi:nodetypes="ccc" />
    <path
       style="fill:none;fill-rule:evenodd;stroke:#ffffff;stroke-width:3;stroke-linecap:butt;stroke-linejoin:miter;stroke-miterlimit:4;stroke-dasharray:none;stroke-opacity:1"
       d="m 19.821486,1141.8979 -39.821486,0"
       id="path4188"
       inkscape:connector-curvature="0"
       sodipodi:nodetypes="cc" />
  </g>
</svg>
